<?xml version="1.0" encoding="UTF-8" standalone="no"?>
<svg
   height="500"
   viewBox="0 0 500 500"
   width="500"
   version="1.1"
   id="svg6"
   sodipodi:docname="assist.svg"
   inkscape:version="1.1-dev (25441a5, 2020-10-26)"
   xmlns:inkscape="http://www.inkscape.org/namespaces/inkscape"
   xmlns:sodipodi="http://sodipodi.sourceforge.net/DTD/sodipodi-0.dtd"
   xmlns="http://www.w3.org/2000/svg"
   xmlns:svg="http://www.w3.org/2000/svg">
  <defs
     id="defs10" />
  <sodipodi:namedview
     pagecolor="#ffffff"
     bordercolor="#666666"
     borderopacity="1"
     objecttolerance="10"
     gridtolerance="10"
     guidetolerance="10"
     inkscape:pageopacity="0"
     inkscape:pageshadow="2"
     inkscape:window-width="1920"
     inkscape:window-height="1057"
     id="namedview8"
     showgrid="false"
     width="500px"
     inkscape:zoom="0.14208984"
     inkscape:cx="-436.34364"
     inkscape:cy="2107.8213"
     inkscape:window-x="-8"
     inkscape:window-y="-8"
     inkscape:window-maximized="1"
     inkscape:current-layer="svg6" />
  <g
     id="g829"
     transform="matrix(20.833333,0,0,20.833333,4e-6,4e-6)">
    <path
       d="M 0,0 H 24 V 24 H 0 Z"
       fill="none"
       id="path2" />
    <path
       d="M 15,9 H 9 v 6 h 6 z m -2,4 h -2 v -2 h 2 z m 8,-2 V 9 H 19 V 7 C 19,5.9 18.1,5 17,5 H 15 V 3 H 13 V 5 H 11 V 3 H 9 V 5 H 7 C 5.9,5 5,5.9 5,7 V 9 H 3 v 2 h 2 v 2 H 3 v 2 h 2 v 2 c 0,1.1 0.9,2 2,2 h 2 v 2 h 2 v -2 h 2 v 2 h 2 v -2 h 2 c 1.1,0 2,-0.9 2,-2 v -2 h 2 v -2 h -2 v -2 z m -4,6 H 7 V 7 h 10 z"
       id="path4" />
  </g>
</svg>
