<?xml version="1.0" encoding="UTF-8" standalone="no"?>
<svg
   enable-background="new 0 0 24 24"
   height="500"
   viewBox="0 0 500 500"
   width="500"
   version="1.1"
   id="svg6"
   sodipodi:docname="changeMode.svg"
   inkscape:version="1.1-dev (25441a5, 2020-10-26)"
   xmlns:inkscape="http://www.inkscape.org/namespaces/inkscape"
   xmlns:sodipodi="http://sodipodi.sourceforge.net/DTD/sodipodi-0.dtd"
   xmlns="http://www.w3.org/2000/svg"
   xmlns:svg="http://www.w3.org/2000/svg">
  <defs
     id="defs10" />
  <sodipodi:namedview
     pagecolor="#ffffff"
     bordercolor="#666666"
     borderopacity="1"
     objecttolerance="10"
     gridtolerance="10"
     guidetolerance="10"
     inkscape:pageopacity="0"
     inkscape:pageshadow="2"
     inkscape:window-width="1920"
     inkscape:window-height="1057"
     id="namedview8"
     showgrid="false"
     width="500px"
     inkscape:zoom="1.1367188"
     inkscape:cx="122.28179"
     inkscape:cy="213.33333"
     inkscape:window-x="1912"
     inkscape:window-y="-8"
     inkscape:window-maximized="1"
     inkscape:current-layer="svg6" />
  <g
     id="g829"
     transform="matrix(20.833333,0,0,20.833333,4e-6,4e-6)">
    <rect
       fill="none"
       height="24"
       width="24"
       id="rect2"
       x="0"
       y="0" />
    <path
       d="M 12,2 C 6.48,2 2,6.48 2,12 2,17.52 6.48,22 12,22 17.52,22 22,17.52 22,12 22,6.48 17.52,2 12,2 Z m 0,18 C 7.59,20 4,16.41 4,12 4,7.59 7.59,4 12,4 c 4.41,0 8,3.59 8,8 0,4.41 -3.59,8 -8,8 z m 4.17,-5.24 -1.1,-1.1 C 15.78,12.33 15.6,10.65 14.48,9.53 13.79,8.84 12.9,8.5 12,8.5 11.97,8.5 11.94,8.51 11.91,8.51 L 13,9.6 11.94,10.66 9.11,7.83 11.94,5 13,6.06 12.04,7.02 c 1.27,0.01 2.53,0.48 3.5,1.44 1.7,1.71 1.91,4.36 0.63,6.3 z M 14.89,16.17 12.06,19 11,17.94 11.95,16.99 C 10.69,16.98 9.43,16.49 8.47,15.53 6.76,13.82 6.55,11.18 7.83,9.24 l 1.1,1.1 c -0.71,1.33 -0.53,3.01 0.59,4.13 0.7,0.7 1.63,1.04 2.56,1.01 L 11,14.4 12.06,13.34 Z"
       id="path4" />
  </g>
</svg>
