<?xml version="1.0" encoding="UTF-8" standalone="no"?>
<svg
   version="1.1"
   x="0px"
   y="0px"
   width="500"
   height="500"
   viewBox="0 0 499.99998 500"
   enable-background="new 0 0 640.499 779"
   xml:space="preserve"
   id="svg41"
   sodipodi:docname="combat.svg"
   inkscape:version="1.1-dev (25441a5, 2020-10-26)"
   xmlns:inkscape="http://www.inkscape.org/namespaces/inkscape"
   xmlns:sodipodi="http://sodipodi.sourceforge.net/DTD/sodipodi-0.dtd"
   xmlns="http://www.w3.org/2000/svg"
   xmlns:svg="http://www.w3.org/2000/svg"><defs
   id="defs45" /><sodipodi:namedview
   pagecolor="#ffffff"
   bordercolor="#666666"
   borderopacity="1"
   objecttolerance="10"
   gridtolerance="10"
   guidetolerance="10"
   inkscape:pageopacity="0"
   inkscape:pageshadow="2"
   inkscape:window-width="1920"
   inkscape:window-height="1057"
   id="namedview43"
   showgrid="false"
   width="500px"
   inkscape:zoom="0.7924316"
   inkscape:cx="262.48322"
   inkscape:cy="414.54682"
   inkscape:window-x="1912"
   inkscape:window-y="-8"
   inkscape:window-maximized="1"
   inkscape:current-layer="svg41" />
<g
   id="Layer_4"
   transform="matrix(0.64184852,0,0,0.64184852,44.287549,0)">
	<g
   id="g4">
		<polygon
   fill="#ffffff"
   points="321,725.195 332,763.725 310,763.725 "
   id="polygon2" />
	</g>
	<g
   id="g8">
		<polygon
   fill="#ffffff"
   points="277.963,721 274.345,760.905 253.822,752.98 "
   id="polygon6" />
	</g>
	<g
   id="g12">
		<polygon
   fill="#ffffff"
   points="229.827,692.162 232.247,732.158 210.766,727.407 "
   id="polygon10" />
	</g>
	<g
   id="g16">
		<polygon
   fill="#ffffff"
   points="363.037,721 366.654,760.905 387.178,752.98 "
   id="polygon14" />
	</g>
	<g
   id="g20">
		<polygon
   fill="#ffffff"
   points="411.173,692.162 408.753,732.158 430.234,727.407 "
   id="polygon18" />
	</g>
</g>
<g
   id="Layer_2"
   transform="matrix(0.64184852,0,0,0.64184852,44.448332,0)">
	<g
   id="g25">
		<path
   fill="#ffffff"
   d="m 320.334,20 c 33.162,0 68.257,6.304 101.488,18.23 36.305,13.029 69.03,32.006 97.269,56.403 31.114,26.882 55.54,59.44 72.598,96.772 19.117,41.838 28.811,89.477 28.811,141.594 0,31.574 -4.931,60.399 -15.074,88.123 -8.885,24.283 -20.571,44.454 -30.883,62.251 -15.048,25.971 -28.043,48.399 -28.043,74.626 0,8.401 3.949,15.588 8.949,24.688 4.241,7.719 10.051,18.291 10.051,25.309 -0.038,3.116 -4.051,13.928 -13.545,25.948 -9.722,12.309 -18.123,16.856 -20.496,17.056 -0.688,-10e-4 -1.217,-0.035 -1.605,-0.077 -0.27,-0.458 -0.573,-1.001 -0.826,-1.454 C 526.359,644.692 519.27,632 502.501,632 c -14.577,0 -26.896,5.852 -35.623,16.921 -12.649,16.045 -14.787,40.48 -12.402,61.071 -1.801,0.009 -3.563,0.009 -5.121,0.009 h -2.304 L 444.501,710 c -15.723,0 -26.889,3.99 -34.135,12.198 -6.357,7.203 -7.77,15.361 -7.745,22.071 -15.152,0.814 -29.604,3.902 -37.418,14.73 H 275.3 c -7.814,-10.828 -22.266,-13.916 -37.418,-14.73 0.024,-6.71 -1.387,-14.868 -7.746,-22.071 C 222.889,713.99 211.723,710 196,710 l -2.55,10e-4 h -2.303 c -1.559,0 -3.321,0 -5.122,-0.009 2.385,-20.591 0.247,-45.026 -12.403,-61.071 C 164.895,637.852 152.577,632 138,632 c -16.77,0 -23.859,12.691 -26.528,17.469 -0.252,0.453 -0.556,0.996 -0.825,1.454 -0.39,0.042 -0.918,0.076 -1.606,0.077 -2.372,-0.199 -10.774,-4.747 -20.496,-17.056 C 79.051,621.924 75.039,611.112 75,608 c 0,-7.021 5.809,-17.594 10.051,-25.313 5,-9.1 8.949,-16.286 8.949,-24.688 C 94,531.772 81.004,509.344 65.957,483.373 55.646,465.576 43.959,445.405 35.074,421.122 24.931,393.399 20,364.574 20,333 20,280.887 29.701,233.249 48.834,191.412 65.906,154.081 90.35,121.522 121.487,94.639 149.745,70.241 182.491,51.263 218.816,38.232 252.064,26.304 287.169,20 320.334,20 m 0,-20 C 182.334,0 0,101 0,333 c 0,126 74,172 74,225 0,8.332 -19,30 -19,50 0,20 31,63 54,63 23,0 17,-19 29,-19 31,0 32,43 26,68 -2.33,9.707 3.247,10.001 27.147,10.001 1.54,0 3.158,-10e-4 4.853,-10e-4 42,0 6,34 30,34 50,0 26,15 41,15 8,0 98.499,0 106.499,0 15,0 -9,-15 41,-15 24,0 -12,-34 30,-34 1.697,0 3.312,10e-4 4.854,10e-4 23.896,0 29.477,-0.294 27.146,-10.001 -6,-25 -5,-68 26,-68 12,0 6,19 29,19 23,0 54,-43 54,-63 0,-20 -19,-41.668 -19,-50 0,-53 74,-99 74,-225 C 640.499,101 458.334,0 320.334,0 Z"
   id="path23" />
	</g>
</g>
<g
   id="Layer_3"
   transform="matrix(0.64184852,0,0,0.64184852,45.571246,0)">
	<g
   id="g30">
		<path
   fill="#ffffff"
   d="m 130,396.5 c 8.28,0 31.107,1.892 54.975,5.058 29.064,3.854 43.337,7.402 48.002,9.134 3.267,3.655 9.106,10.995 15.275,19.634 7.652,10.714 11.357,17.126 12.748,19.903 v 9.637 c -1.525,3.698 -8.094,14.372 -21.046,28.116 -13.533,14.36 -23.623,20.829 -26.946,22.019 h -82.747 c -3.738,-1.246 -13.729,-7.969 -25.909,-19.942 -2.104,-4.383 -6.548,-18.485 -10.53,-38.274 -3.59,-17.842 -4.829,-30.286 -4.907,-36.526 3.548,-2.534 9.162,-6.21 15.988,-9.854 15.472,-8.263 23.121,-8.905 25.097,-8.905 m 0,-20 c -21,0 -53.5,22 -59,27.5 -8,8 9.25,90.25 18,99 10.25,10.25 29.333,27 40.333,27 H 214 c 19.5,0 67,-53.5 67,-68.5 0,-9 0,1.833 0,-14.167 C 281,440 254.667,403.996 245.667,394.996 236.667,385.996 151,376.5 130,376.5 Z"
   id="path28" />
	</g>
	<g
   id="g34">
		<path
   fill="#ffffff"
   d="m 318.5,499.197 c 5.354,6.532 12.37,15.493 20.602,26.606 15.475,20.893 24.152,34.366 27.023,39.656 v 19.415 c 0,7.805 -2.388,9.208 -3.535,9.883 -1.948,1.145 -5.925,2.509 -13.813,2.509 -0.248,0 -0.493,-10e-4 -0.735,-0.004 -3.178,-4.869 -7.804,-13.148 -11.562,-20.853 L 318.5,539.49 300.519,576.409 c -3.686,7.568 -8.371,15.943 -11.569,20.854 -0.24,0.002 -0.482,0.003 -0.728,0.003 -7.888,0 -11.865,-1.364 -13.813,-2.509 -1.147,-0.674 -3.535,-2.077 -3.535,-9.883 V 565.46 c 2.871,-5.29 11.549,-18.764 27.024,-39.656 8.232,-11.114 15.248,-20.075 20.602,-26.607 m 0,-28.697 c -5.848,0 -67.625,82.875 -67.625,91.375 v 23 c 0,29.146 23.287,32.392 37.348,32.392 4.031,0 7.304,-0.267 9.052,-0.267 5.721,0 21.225,-31.833 21.225,-31.833 0,0 15.504,31.833 21.226,31.833 1.749,0 5.02,0.267 9.052,0.267 14.061,0 37.348,-3.248 37.348,-32.392 v -23 C 386.125,553.375 324.349,470.5 318.5,470.5 Z"
   id="path32" />
	</g>
	<g
   id="g38">
		<path
   fill="#ffffff"
   d="m 507,396.5 c 1.976,0 9.625,0.642 25.097,8.902 6.826,3.645 12.44,7.32 15.988,9.854 -0.079,6.24 -1.317,18.685 -4.907,36.526 -3.982,19.789 -8.427,33.892 -10.53,38.274 -12.18,11.974 -22.171,18.696 -25.909,19.942 h -82.746 c -3.323,-1.189 -13.412,-7.658 -26.945,-22.019 -12.953,-13.744 -19.521,-24.418 -21.047,-28.116 v -9.637 c 1.391,-2.777 5.097,-9.189 12.748,-19.903 6.169,-8.639 12.009,-15.979 15.274,-19.634 4.665,-1.731 18.939,-5.279 48.003,-9.134 C 475.893,398.392 498.72,396.5 507,396.5 m 0,-20 c -21,0 -106.667,9.496 -115.667,18.496 -9,9 -35.333,45.004 -35.333,52.337 0,16 0,5.167 0,14.167 0,15 47.5,68.5 67,68.5 h 84.666 c 11,0 30.084,-16.75 40.334,-27 8.75,-8.75 26,-91 18,-99 -5.5,-5.5 -38,-27.5 -59,-27.5 z"
   id="path36" />
	</g>
</g>
</svg>
