<?xml version="1.0" encoding="UTF-8" standalone="no"?>
<svg
   viewBox="0 0 500 500"
   width="500"
   height="500"
   version="1.1"
   id="svg6"
   sodipodi:docname="fss.svg"
   inkscape:version="1.1-dev (25441a5, 2020-10-26)"
   xmlns:inkscape="http://www.inkscape.org/namespaces/inkscape"
   xmlns:sodipodi="http://sodipodi.sourceforge.net/DTD/sodipodi-0.dtd"
   xmlns="http://www.w3.org/2000/svg"
   xmlns:svg="http://www.w3.org/2000/svg">
  <defs
     id="defs10" />
  <sodipodi:namedview
     pagecolor="#ffffff"
     bordercolor="#666666"
     borderopacity="1"
     objecttolerance="10"
     gridtolerance="10"
     guidetolerance="10"
     inkscape:pageopacity="0"
     inkscape:pageshadow="2"
     inkscape:window-width="1920"
     inkscape:window-height="1057"
     id="namedview8"
     showgrid="false"
     width="500px"
     inkscape:zoom="0.56835938"
     inkscape:cx="-73.896907"
     inkscape:cy="153.95189"
     inkscape:window-x="-8"
     inkscape:window-y="-8"
     inkscape:window-maximized="1"
     inkscape:current-layer="svg6" />
  <path
     fill="none"
     d="M 0,0 H 500 V 500 H 0 Z"
     id="path2"
     style="stroke-width:20.8333" />
  <path
     d="M 118.14583,88.6875 279.45833,250 250,279.45833 178.20833,207.66667 a 83.333333,83.333333 0 1 0 77.02084,-40.83334 L 217.625,129.22917 A 125,125 0 1 1 148.10417,177.5625 L 118.33333,147.79167 A 166.66667,166.66667 0 1 0 184.91667,96.520833 L 153.625,65.25 A 207.4375,207.4375 0 0 1 250,41.666667 C 365.0625,41.666667 458.33333,134.9375 458.33333,250 458.33333,365.0625 365.0625,458.33333 250,458.33333 134.9375,458.33333 41.666667,365.0625 41.666667,250 A 207.91667,207.91667 0 0 1 118.14583,88.6875 Z"
     id="path4"
     style="stroke-width:20.8333" />
</svg>
