<?xml version="1.0" encoding="UTF-8" standalone="no"?>
<svg
   version="1.1"
   id="Layer_1"
   x="0px"
   y="0px"
   width="500"
   height="500"
   viewBox="-335.827 -202.312 500 499.99999"
   enable-background="new -335.827 -202.312 700 421.717"
   xml:space="preserve"
   sodipodi:docname="hardpoints.svg"
   inkscape:version="1.1-dev (25441a5, 2020-10-26)"
   xmlns:inkscape="http://www.inkscape.org/namespaces/inkscape"
   xmlns:sodipodi="http://sodipodi.sourceforge.net/DTD/sodipodi-0.dtd"
   xmlns="http://www.w3.org/2000/svg"
   xmlns:svg="http://www.w3.org/2000/svg"><defs
   id="defs18" /><sodipodi:namedview
   pagecolor="#ffffff"
   bordercolor="#666666"
   borderopacity="1"
   objecttolerance="10"
   gridtolerance="10"
   guidetolerance="10"
   inkscape:pageopacity="0"
   inkscape:pageshadow="2"
   inkscape:window-width="1920"
   inkscape:window-height="1057"
   id="namedview16"
   showgrid="false"
   width="500px"
   inkscape:zoom="0.42214286"
   inkscape:cx="563.79019"
   inkscape:cy="628.93401"
   inkscape:window-x="-8"
   inkscape:window-y="-8"
   inkscape:window-maximized="1"
   inkscape:current-layer="Layer_1" />
<g
   id="g843"
   transform="translate(-0.32699953,99.247439)"><g
     id="Layer_x0020_1"
     transform="matrix(0.71495266,0,0,0.71495266,-95.633382,-57.669067)">
	<g
   id="_225733672">
		<g
   id="g3">
			<polygon
   id="_226601008"
   fill="#ffb000"
   points="105.767,-18.34 105.767,-53.491 363.847,-53.491 363.847,-18.34 " />
		</g>
		<g
   id="g7">
			<polygon
   fill="#ffb000"
   points="114.464,184.23 114.464,219.405 -327.296,219.405 -327.296,184.23 "
   id="polygon5" />
		</g>
		<g
   id="g11">
			<path
   fill="#ffb000"
   d="M 127.234,-15.257 V 108.796 H 85.168 v -124.053 0 z M -58.291,-167.185 v -35.127 0 l 9.757,0.266 9.625,0.747 9.505,1.252 9.336,1.735 9.155,2.192 8.975,2.65 8.745,3.06 8.528,3.493 8.301,3.879 8.07,4.265 7.758,4.626 7.518,4.986 7.275,5.301 6.938,5.638 6.649,5.975 6.361,6.24 6.071,6.529 5.733,6.818 5.396,7.059 5.036,7.324 4.697,7.541 4.386,7.782 3.975,7.975 3.59,8.216 3.229,8.384 2.843,8.553 2.409,8.746 2.024,8.89 1.565,9.059 1.133,9.18 0.698,9.3 0.241,9.396 H 85.168 l -0.193,-7.95 -0.602,-7.854 -0.964,-7.733 -1.301,-7.613 -1.687,-7.469 -2.024,-7.324 -2.36,-7.155 -2.699,-6.987 -3.011,-6.817 -3.301,-6.626 -3.59,-6.408 -3.879,-6.216 -4.145,-5.976 -4.385,-5.758 -4.626,-5.518 -4.866,-5.252 -5.084,-4.987 -5.275,-4.722 -5.493,-4.457 -5.662,-4.145 -5.83,-3.854 -5.987,-3.565 -6.132,-3.253 -6.264,-2.939 -6.385,-2.602 -6.517,-2.289 -6.614,-1.927 -6.722,-1.614 -6.818,-1.277 -6.914,-0.915 -7.023,-0.555 z m -91.684,-35.127 h 91.685 v 35.127 h -91.685 v 0 z M -293.434,-15.257 H -335.5 v 0 l 0.229,-9.396 0.698,-9.3 1.133,-9.18 1.578,-9.059 2.012,-8.89 2.421,-8.746 2.831,-8.553 3.229,-8.384 3.602,-8.216 3.987,-7.975 4.349,-7.782 4.71,-7.541 5.06,-7.324 5.396,-7.059 5.723,-6.818 6.047,-6.529 6.36,-6.24 6.662,-5.975 6.963,-5.638 7.239,-5.301 7.529,-4.986 7.781,-4.626 8.047,-4.265 8.301,-3.879 8.54,-3.493 8.746,-3.06 8.962,-2.65 9.168,-2.192 9.336,-1.711 9.492,-1.276 9.637,-0.747 9.758,-0.266 v 35.127 l -7.119,0.169 -7.012,0.555 -6.914,0.915 -6.818,1.277 -6.722,1.59 -6.626,1.951 -6.505,2.289 -6.384,2.602 -6.276,2.939 -6.132,3.253 -5.975,3.541 -5.831,3.879 -5.661,4.145 -5.481,4.457 -5.288,4.722 -5.084,4.987 -4.866,5.252 -4.638,5.518 -4.385,5.758 -4.145,5.976 -3.866,6.216 -3.59,6.408 -3.313,6.626 -2.999,6.817 -2.687,6.987 -2.361,7.155 -2.035,7.324 -1.675,7.469 -1.337,7.613 -0.952,7.733 -0.59,7.854 z M -335.5,108.796 V -15.257 h 42.066 v 124.053 l -21.033,17.563 z m 21.033,17.563 H -335.5 v -17.563 z m 420.668,0 H -314.467 V 91.232 h 420.668 l 21.033,17.563 z m 21.033,-17.563 v 17.563 h -21.033 z"
   id="path9" />
		</g>
	</g>
</g></g>
</svg>
