<?xml version="1.0" encoding="UTF-8" standalone="no"?>
<svg
   version="1.1"
   id="Layer_2"
   x="0px"
   y="0px"
   width="500"
   height="500"
   viewBox="0 0 500 500"
   enable-background="new 0 0 476.25 806.06"
   xml:space="preserve"
   sodipodi:docname="mapmarker.svg"
   inkscape:version="1.1-dev (25441a5, 2020-10-26)"
   xmlns:inkscape="http://www.inkscape.org/namespaces/inkscape"
   xmlns:sodipodi="http://sodipodi.sourceforge.net/DTD/sodipodi-0.dtd"
   xmlns="http://www.w3.org/2000/svg"
   xmlns:svg="http://www.w3.org/2000/svg"><defs
   id="defs41" /><sodipodi:namedview
   pagecolor="#ffffff"
   bordercolor="#666666"
   borderopacity="1"
   objecttolerance="10"
   gridtolerance="10"
   guidetolerance="10"
   inkscape:pageopacity="0"
   inkscape:pageshadow="2"
   inkscape:window-width="1920"
   inkscape:window-height="1057"
   id="namedview39"
   showgrid="false"
   width="500px"
   inkscape:zoom="0.38291455"
   inkscape:cx="524.92129"
   inkscape:cy="421.76512"
   inkscape:window-x="1912"
   inkscape:window-y="-8"
   inkscape:window-maximized="1"
   inkscape:current-layer="Layer_2" />

















<g
   id="g856"
   transform="translate(-62.39458,0.10999989)"><polygon
     points="238.25,-0.11 238.13,0 238,-0.11 "
     id="polygon2"
     transform="matrix(0.61950479,0,0,0.61950479,62.734148,-0.04185447)" /><polygon
     fill="#ffffff"
     stroke="#000000"
     stroke-miterlimit="10"
     points="238.12,806.06 238.25,806.39 238,806.36 "
     id="polygon4"
     transform="matrix(0.61950479,0,0,0.61950479,62.734148,-0.04185447)" /><path
     d="M 312.39768,-0.04185447 164.875,130.94624 312.39148,499.31618 459.91416,130.94624 Z M 312.31714,219.1947 210.09885,128.12749 312.31714,37.060287 414.64075,128.12749 Z"
     id="path6"
     style="stroke-width:0.619505" /><g
     id="g8"
     transform="matrix(0.61950479,0,0,0.61950479,62.734148,-0.04185447)">
</g><g
     id="g10"
     transform="matrix(0.61950479,0,0,0.61950479,62.734148,-0.04185447)">
</g><g
     id="g12"
     transform="matrix(0.61950479,0,0,0.61950479,62.734148,-0.04185447)">
</g><g
     id="g14"
     transform="matrix(0.61950479,0,0,0.61950479,62.734148,-0.04185447)">
</g><g
     id="g16"
     transform="matrix(0.61950479,0,0,0.61950479,62.734148,-0.04185447)">
</g><g
     id="g18"
     transform="matrix(0.61950479,0,0,0.61950479,62.734148,-0.04185447)">
</g><g
     id="g20"
     transform="matrix(0.61950479,0,0,0.61950479,62.734148,-0.04185447)">
</g><g
     id="g22"
     transform="matrix(0.61950479,0,0,0.61950479,62.734148,-0.04185447)">
</g><g
     id="g24"
     transform="matrix(0.61950479,0,0,0.61950479,62.734148,-0.04185447)">
</g><g
     id="g26"
     transform="matrix(0.61950479,0,0,0.61950479,62.734148,-0.04185447)">
</g><g
     id="g28"
     transform="matrix(0.61950479,0,0,0.61950479,62.734148,-0.04185447)">
</g><g
     id="g30"
     transform="matrix(0.61950479,0,0,0.61950479,62.734148,-0.04185447)">
</g><g
     id="g32"
     transform="matrix(0.61950479,0,0,0.61950479,62.734148,-0.04185447)">
</g><g
     id="g34"
     transform="matrix(0.61950479,0,0,0.61950479,62.734148,-0.04185447)">
</g><g
     id="g36"
     transform="matrix(0.61950479,0,0,0.61950479,62.734148,-0.04185447)">
</g></g>
</svg>
