<?xml version="1.0" encoding="UTF-8" standalone="no"?>
<svg
   enable-background="new 0 0 24 24"
   height="500"
   viewBox="0 0 500 500"
   width="500"
   version="1.1"
   id="svg14"
   sodipodi:docname="nightvision.svg"
   inkscape:version="1.1-dev (25441a5, 2020-10-26)"
   xmlns:inkscape="http://www.inkscape.org/namespaces/inkscape"
   xmlns:sodipodi="http://sodipodi.sourceforge.net/DTD/sodipodi-0.dtd"
   xmlns="http://www.w3.org/2000/svg"
   xmlns:svg="http://www.w3.org/2000/svg">
  <defs
     id="defs18" />
  <sodipodi:namedview
     pagecolor="#ffffff"
     bordercolor="#666666"
     borderopacity="1"
     objecttolerance="10"
     gridtolerance="10"
     guidetolerance="10"
     inkscape:pageopacity="0"
     inkscape:pageshadow="2"
     inkscape:window-width="1920"
     inkscape:window-height="1057"
     id="namedview16"
     showgrid="false"
     width="500px"
     inkscape:zoom="1.1367188"
     inkscape:cx="187.38144"
     inkscape:cy="161.42955"
     inkscape:window-x="-8"
     inkscape:window-y="-8"
     inkscape:window-maximized="1"
     inkscape:current-layer="svg14" />
  <g
     id="g841">
    <g
       id="g4"
       transform="scale(20.833333)">
      <path
         d="M 0,0 H 24 V 24 H 0 Z"
         fill="none"
         id="path2" />
    </g>
    <g
       id="g12"
       transform="scale(20.833333)">
      <g
         id="g10">
        <g
           id="g8">
          <path
             d="m 14,4 c 0.34,0 0.68,0.02 1.01,0.07 C 13.1,6.23 12,9.05 12,12 c 0,2.95 1.1,5.77 3.01,7.93 C 14.68,19.98 14.34,20 14,20 9.59,20 6,16.41 6,12 6,7.59 9.59,4 14,4 M 14,2 C 8.48,2 4,6.48 4,12 c 0,5.52 4.48,10 10,10 1.82,0 3.53,-0.5 5,-1.35 C 16.01,18.92 14,15.7 14,12 14,8.3 16.01,5.08 19,3.35 17.53,2.5 15.82,2 14,2 Z"
             id="path6" />
        </g>
      </g>
    </g>
  </g>
</svg>
