<?xml version="1.0" encoding="UTF-8" standalone="no"?>
<svg
   height="500"
   viewBox="0 0 500 500"
   width="500"
   version="1.1"
   id="svg6"
   sodipodi:docname="silent.svg"
   inkscape:version="1.1-dev (25441a5, 2020-10-26)"
   xmlns:inkscape="http://www.inkscape.org/namespaces/inkscape"
   xmlns:sodipodi="http://sodipodi.sourceforge.net/DTD/sodipodi-0.dtd"
   xmlns="http://www.w3.org/2000/svg"
   xmlns:svg="http://www.w3.org/2000/svg">
  <defs
     id="defs10" />
  <sodipodi:namedview
     pagecolor="#ffffff"
     bordercolor="#666666"
     borderopacity="1"
     objecttolerance="10"
     gridtolerance="10"
     guidetolerance="10"
     inkscape:pageopacity="0"
     inkscape:pageshadow="2"
     inkscape:window-width="1920"
     inkscape:window-height="1057"
     id="namedview8"
     showgrid="false"
     inkscape:zoom="0.56835938"
     inkscape:cx="309.66323"
     inkscape:cy="155.71134"
     inkscape:window-x="-8"
     inkscape:window-y="-8"
     inkscape:window-maximized="1"
     inkscape:current-layer="svg6"
     width="500px" />
  <g
     id="g829"
     transform="matrix(20.833333,0,0,20.833333,4e-6,4e-6)">
    <path
       d="M 0,0 H 24 V 24 H 0 Z"
       fill="none"
       id="path2" />
    <path
       d="M 4.34,2.93 2.93,4.34 7.29,8.7 7,9 H 3 v 6 h 4 l 5,5 v -6.59 l 4.18,4.18 C 15.53,18.08 14.8,18.47 14,18.7 v 2.06 c 1.34,-0.3 2.57,-0.92 3.61,-1.75 l 2.05,2.05 1.41,-1.41 z M 10,15.17 7.83,13 H 5 V 11 H 7.83 L 8.71,10.12 10,11.41 Z M 19,12 c 0,0.82 -0.15,1.61 -0.41,2.34 l 1.53,1.53 C 20.68,14.7 21,13.39 21,12 21,7.72 18.01,4.14 14,3.23 v 2.06 c 2.89,0.86 5,3.54 5,6.71 z M 12,4 10.12,5.88 12,7.76 Z m 4.5,8 C 16.5,10.23 15.48,8.71 14,7.97 v 1.79 l 2.48,2.48 C 16.49,12.16 16.5,12.08 16.5,12 Z"
       id="path4" />
  </g>
</svg>
