<?xml version="1.0" encoding="UTF-8" standalone="no"?>
<svg
   id="Layer_1"
   data-name="Layer 1"
   viewBox="0 0 500 500"
   version="1.1"
   sodipodi:docname="targetingNext.svg"
   width="500"
   height="500"
   inkscape:version="1.1-dev (25441a5, 2020-10-26)"
   xmlns:inkscape="http://www.inkscape.org/namespaces/inkscape"
   xmlns:sodipodi="http://sodipodi.sourceforge.net/DTD/sodipodi-0.dtd"
   xmlns="http://www.w3.org/2000/svg"
   xmlns:svg="http://www.w3.org/2000/svg"
   xmlns:rdf="http://www.w3.org/1999/02/22-rdf-syntax-ns#"
   xmlns:cc="http://creativecommons.org/ns#"
   xmlns:dc="http://purl.org/dc/elements/1.1/">
  <sodipodi:namedview
     pagecolor="#ffffff"
     bordercolor="#666666"
     borderopacity="1"
     objecttolerance="10"
     gridtolerance="10"
     guidetolerance="10"
     inkscape:pageopacity="0"
     inkscape:pageshadow="2"
     inkscape:window-width="1920"
     inkscape:window-height="1057"
     id="namedview11"
     showgrid="false"
     width="199px"
     inkscape:zoom="1.5432606"
     inkscape:cx="263.07936"
     inkscape:cy="306.81792"
     inkscape:window-x="1912"
     inkscape:window-y="-8"
     inkscape:window-maximized="1"
     inkscape:current-layer="Layer_1" />
  <defs
     id="defs4">
    <style
       id="style2">.cls-1{fill:#f07b05;}</style>
  </defs>
  <title
     id="title6">icon-hardpoint</title>
  <path
     class="cls-1"
     d="M 500,232.5 H 441 A 192.075,192.075 0 0 0 267.5,59 V 0 h -35 V 59 A 192.075,192.075 0 0 0 59,232.5 H 0 v 35 H 59 A 192.075,192.075 0 0 0 232.5,441 v 59 h 35 V 441 A 192.075,192.075 0 0 0 441,267.5 h 59 z M 267.5,388.15 V 338.8 h -35 v 49.35 A 139.5,139.5 0 0 1 111.85,267.5 h 49.35 v -35 H 111.85 A 139.5,139.5 0 0 1 232.5,111.85 v 49.35 h 35 V 111.85 A 139.5,139.5 0 0 1 388.15,232.5 H 338.8 v 35 h 49.35 A 139.5,139.5 0 0 1 267.5,388.15 Z"
     id="path8"
     style="stroke-width:2.5" />
  <metadata
     id="metadata828">
    <rdf:RDF>
      <cc:Work
         rdf:about="">
        <dc:title>icon-hardpoint</dc:title>
      </cc:Work>
    </rdf:RDF>
  </metadata>
  <g
     id="g933"
     transform="matrix(7.6957801,0,0,7.9755292,156.47446,151.29063)">
    <path
       d="M 0,0 H 24 V 24 H 0 Z"
       fill="none"
       id="path921" />
    <path
       d="M 18.4,10.6 C 16.55,8.99 14.15,8 11.5,8 6.85,8 2.92,11.03 1.54,15.22 L 3.9,16 c 1.05,-3.19 4.05,-5.5 7.6,-5.5 1.95,0 3.73,0.72 5.12,1.88 L 13,16 h 9 V 7 Z"
       id="path923" />
  </g>
</svg>
