<?xml version="1.0" encoding="UTF-8" standalone="no"?>
<svg
   height="500"
   viewBox="0 0 500 500"
   width="500"
   version="1.1"
   id="svg6"
   sodipodi:docname="zoomIn.svg"
   inkscape:version="1.1-dev (25441a5, 2020-10-26)"
   xmlns:inkscape="http://www.inkscape.org/namespaces/inkscape"
   xmlns:sodipodi="http://sodipodi.sourceforge.net/DTD/sodipodi-0.dtd"
   xmlns="http://www.w3.org/2000/svg"
   xmlns:svg="http://www.w3.org/2000/svg">
  <defs
     id="defs10" />
  <sodipodi:namedview
     pagecolor="#ffffff"
     bordercolor="#666666"
     borderopacity="1"
     objecttolerance="10"
     gridtolerance="10"
     guidetolerance="10"
     inkscape:pageopacity="0"
     inkscape:pageshadow="2"
     inkscape:window-width="1920"
     inkscape:window-height="1057"
     id="namedview8"
     showgrid="false"
     width="500px"
     inkscape:zoom="0.56835938"
     inkscape:cx="114.36426"
     inkscape:cy="190.90034"
     inkscape:window-x="1912"
     inkscape:window-y="-8"
     inkscape:window-maximized="1"
     inkscape:current-layer="svg6" />
  <g
     id="g834"
     transform="matrix(20.833333,0,0,20.833333,4e-6,4e-6)">
    <g
       id="g829">
      <path
         d="M 0,0 H 24 V 24 H 0 Z"
         fill="none"
         id="path2" />
      <path
         d="M 15.5,14 H 14.71 L 14.43,13.73 C 15.41,12.59 16,11.11 16,9.5 16,5.91 13.09,3 9.5,3 5.91,3 3,5.91 3,9.5 3,13.09 5.91,16 9.5,16 c 1.61,0 3.09,-0.59 4.23,-1.57 L 14,14.71 v 0.79 l 5,4.99 1.49,-1.49 z m -6,0 C 7.01,14 5,11.99 5,9.5 5,7.01 7.01,5 9.5,5 11.99,5 14,7.01 14,9.5 14,11.99 11.99,14 9.5,14 Z M 10,7 H 9 V 9 H 7 v 1 h 2 v 2 h 1 v -2 h 2 V 9 h -2 z"
         id="path4" />
    </g>
  </g>
</svg>
