<?xml version="1.0" encoding="UTF-8" standalone="no"?>
<svg
   version="1.1"
   x="0px"
   y="0px"
   width="500"
   height="500"
   viewBox="0 0 500 500.00002"
   enable-background="new 0 0 1850 1129.455"
   xml:space="preserve"
   id="svg16"
   sodipodi:docname="engageAtWill.svg"
   inkscape:version="1.1-dev (25441a5, 2020-10-26)"
   xmlns:inkscape="http://www.inkscape.org/namespaces/inkscape"
   xmlns:sodipodi="http://sodipodi.sourceforge.net/DTD/sodipodi-0.dtd"
   xmlns="http://www.w3.org/2000/svg"
   xmlns:svg="http://www.w3.org/2000/svg"><defs
   id="defs20" /><sodipodi:namedview
   pagecolor="#ffffff"
   bordercolor="#666666"
   borderopacity="1"
   objecttolerance="10"
   gridtolerance="10"
   guidetolerance="10"
   inkscape:pageopacity="0"
   inkscape:pageshadow="2"
   inkscape:window-width="1920"
   inkscape:window-height="1057"
   id="namedview18"
   showgrid="false"
   width="500px"
   inkscape:zoom="0.15972973"
   inkscape:cx="-162.77496"
   inkscape:cy="748.13875"
   inkscape:window-x="-8"
   inkscape:window-y="-8"
   inkscape:window-maximized="1"
   inkscape:current-layer="svg16" />

<g
   id="g845"
   transform="translate(0,97.370944)"><g
     id="Layer_2"
     transform="scale(0.27027027)">
	<g
   id="g8">
		<rect
   y="82.455002"
   width="285"
   height="250"
   id="rect2"
   x="0" />
		<rect
   x="1559"
   y="82.455002"
   width="291"
   height="250"
   id="rect4" />
		<rect
   x="797"
   y="841.45502"
   width="250"
   height="288"
   id="rect6" />
	</g>
	<path
   d="m 1401.646,283.687 c -26.035,61.554 -63.362,116.891 -110.943,164.472 -47.58,47.581 -102.917,84.908 -164.472,110.943 -63.593,26.897 -131.297,40.536 -201.231,40.536 -69.934,0 -137.638,-13.639 -201.231,-40.536 C 662.214,533.067 606.877,495.74 559.297,448.159 511.716,400.578 474.389,345.242 448.354,283.687 421.457,220.094 407.818,152.39 407.818,82.456 h -260 c 0,429.227 347.957,777.183 777.183,777.183 429.227,0 777.183,-347.956 777.183,-777.183 h -260 c -10e-4,69.933 -13.64,137.637 -40.538,201.231 z"
   id="path10" />
</g><g
     id="Layer_3"
     transform="scale(0.27027027)">
	<circle
   cx="925"
   cy="204.455"
   r="204.455"
   id="circle13" />
</g></g>
</svg>
