<?xml version="1.0" encoding="UTF-8" standalone="no"?>
<svg
   id="Layer_1"
   data-name="Layer 1"
   viewBox="0 0 500 500"
   version="1.1"
   sodipodi:docname="flightcontrol.svg"
   width="500"
   height="500"
   inkscape:version="1.1-dev (25441a5, 2020-10-26)"
   xmlns:inkscape="http://www.inkscape.org/namespaces/inkscape"
   xmlns:sodipodi="http://sodipodi.sourceforge.net/DTD/sodipodi-0.dtd"
   xmlns="http://www.w3.org/2000/svg"
   xmlns:svg="http://www.w3.org/2000/svg"
   xmlns:rdf="http://www.w3.org/1999/02/22-rdf-syntax-ns#"
   xmlns:cc="http://creativecommons.org/ns#"
   xmlns:dc="http://purl.org/dc/elements/1.1/">
  <sodipodi:namedview
     pagecolor="#ffffff"
     bordercolor="#666666"
     borderopacity="1"
     objecttolerance="10"
     gridtolerance="10"
     guidetolerance="10"
     inkscape:pageopacity="0"
     inkscape:pageshadow="2"
     inkscape:window-width="1920"
     inkscape:window-height="1057"
     id="namedview15"
     showgrid="false"
     width="1e-05px"
     inkscape:zoom="0.4546875"
     inkscape:cx="318.90035"
     inkscape:cy="414.57045"
     inkscape:window-x="1912"
     inkscape:window-y="-8"
     inkscape:window-maximized="1"
     inkscape:current-layer="Layer_1"
     height="500px" />
  <defs
     id="defs4">
    <style
       id="style2">.cls-1{fill:red;}</style>
  </defs>
  <title
     id="title6">ship</title>
  <path
     class="cls-1"
     d="m 314.22601,148.46719 -23.49886,-15.3281 a 7.3473528,7.3473528 0 0 0 -4.11706,-1.26679 h -73.15682 a 7.727388,7.727388 0 0 0 -4.1804,1.26679 l -23.49886,15.64479 C 70.559922,231.1249 0,284.5199 0,351.46947 v 9.43755 a 7.2206741,7.2206741 0 0 0 7.157335,7.22068 H 492.84269 A 7.2206741,7.2206741 0 0 0 500,360.90702 v -9.69089 C 500,284.20319 429.4401,230.55485 314.22601,148.46719 Z m -67.83634,7.9174 3.61034,-2.47023 3.80036,2.53357 25.33569,16.84824 a 1.520142,1.520142 0 0 1 0.44338,2.02686 l -21.09197,36.04002 a 1.520142,1.520142 0 0 1 -2.66025,0 l -4.37041,-7.22067 a 1.520142,1.520142 0 0 0 -2.66025,0 l -4.30707,7.22067 a 1.520142,1.520142 0 0 1 -2.66024,0 l -21.15531,-36.04002 a 1.520142,1.520142 0 0 1 0.50671,-2.02686 z M 37.243477,329.49076 a 85.634661,85.634661 0 0 1 8.994175,-17.35496 3.6736763,3.6736763 0 0 1 6.333922,0.44337 l 7.410694,16.91159 a 3.6736763,3.6736763 0 0 1 -3.293642,5.13048 H 42.310619 c -4.243732,0 -5.953891,-2.59692 -5.067142,-5.13048 z M 82.02432,326.57715 59.285536,297.82114 a 1.520142,1.520142 0 0 1 0,-1.96353 c 19.888523,-21.72536 50.671394,-44.33746 90.068414,-72.52343 a 1.520142,1.520142 0 0 1 2.28021,1.90018 l -52.19154,101.3428 a 1.5834812,1.5834812 0 0 1 -1.39347,0.82341 l -14.94806,-0.3167 a 1.3934635,1.3934635 0 0 1 -1.07677,-0.38003 z m 84.30454,-115.02408 a 1.7734989,1.7734989 0 0 1 0.57006,-0.63338 c 11.97112,-8.48746 24.63896,-17.35496 38.00354,-26.85585 l 3.67368,-2.47023 29.1994,38.95364 a 1.520142,1.520142 0 0 1 0,1.71015 l -6.33393,11.08439 -0.44338,0.44336 -88.67494,63.33926 a 1.520142,1.520142 0 0 1 -2.15354,-0.38004 l -5.89054,-8.74082 a 1.520142,1.520142 0 0 1 0,-1.45681 z m -22.99214,120.34458 85.57132,-80.94756 a 1.6468204,1.6468204 0 0 1 1.20345,-0.44337 l 15.20142,1.52014 a 46.364329,46.364329 0 0 0 9.3742,0 l 15.26476,-1.52014 a 1.6468204,1.6468204 0 0 1 1.20345,0.44337 L 356.6633,331.961 a 1.520142,1.520142 0 0 1 -1.01342,2.66024 H 144.41349 a 1.520142,1.520142 0 0 1 -1.07677,-2.66024 z m 214.72005,-35.02661 -88.67495,-63.33924 -0.38003,-0.19001 -6.33393,-11.08439 a 1.520142,1.520142 0 0 1 0,-1.71015 l 29.19939,-38.95364 3.67368,2.47023 c 13.30124,9.50089 26.03243,18.43173 38.00355,26.85585 a 1.4568027,1.4568027 0 0 1 0.50671,0.69673 l 32.61971,74.74032 a 1.7101597,1.7101597 0 0 1 0,1.45679 l -5.89055,8.74081 a 1.5834812,1.5834812 0 0 1 -2.72358,0.38005 z m 42.43729,29.89613 -52.1282,-101.3428 a 1.520142,1.520142 0 0 1 2.28021,-1.96352 c 39.5237,28.0593 70.17989,50.6714 90.00508,72.52344 a 1.520142,1.520142 0 0 1 0,1.96352 l -22.67546,28.94603 a 1.6468204,1.6468204 0 0 1 -1.20344,0.6334 l -14.75805,0.12667 a 1.5834812,1.5834812 0 0 1 -1.52014,-0.8234 z m 38.00355,5.57385 10.38764,-22.92881 a 1.5834812,1.5834812 0 0 1 2.72359,0 83.481127,83.481127 0 0 1 12.16111,23.37219 1.6468204,1.6468204 0 0 1 -1.52012,2.02685 h -22.23208 a 1.520142,1.520142 0 0 1 -1.52014,-2.40689 z"
     id="path12"
     style="stroke-width:6.33391" />
  <metadata
     id="metadata832">
    <rdf:RDF>
      <cc:Work
         rdf:about="">
        <dc:title>ship</dc:title>
      </cc:Work>
    </rdf:RDF>
  </metadata>
</svg>
