<?xml version="1.0" encoding="UTF-8" standalone="no"?>
<svg
   version="1.1"
   id="Layer_2"
   x="0px"
   y="0px"
   width="500"
   height="500"
   viewBox="0 0 500 500"
   enable-background="new 0 0 960 960"
   xml:space="preserve"
   sodipodi:docname="galmap.svg"
   inkscape:version="1.1-dev (25441a5, 2020-10-26)"
   xmlns:inkscape="http://www.inkscape.org/namespaces/inkscape"
   xmlns:sodipodi="http://sodipodi.sourceforge.net/DTD/sodipodi-0.dtd"
   xmlns="http://www.w3.org/2000/svg"
   xmlns:svg="http://www.w3.org/2000/svg"><defs
   id="defs45" /><sodipodi:namedview
   pagecolor="#ffffff"
   bordercolor="#666666"
   borderopacity="1"
   objecttolerance="10"
   gridtolerance="10"
   guidetolerance="10"
   inkscape:pageopacity="0"
   inkscape:pageshadow="2"
   inkscape:window-width="1920"
   inkscape:window-height="1057"
   id="namedview43"
   showgrid="false"
   height="500px"
   inkscape:zoom="0.4546875"
   inkscape:cx="444.26117"
   inkscape:cy="718.0756"
   inkscape:window-x="1912"
   inkscape:window-y="-8"
   inkscape:window-maximized="1"
   inkscape:current-layer="Layer_2" />



















<g
   id="g882"
   transform="translate(-124.13103,-122.4185)"><circle
     fill="#ffffff"
     cx="232.20413"
     cy="508.02487"
     r="108.07312"
     id="circle2"
     style="stroke-width:0.685708" /><circle
     fill="#ffffff"
     cx="429.00308"
     cy="189.85619"
     r="61.11718"
     id="circle4"
     style="stroke-width:0.685708" /><circle
     fill="#ffffff"
     cx="593.57245"
     cy="336.59775"
     r="30.55859"
     id="circle6"
     style="stroke-width:0.685708" /><polygon
     fill="#ffffff"
     points="604.45,281.867 639.1,248.452 790.36,406.175 774.75,418.75 "
     id="polygon8"
     transform="matrix(0.68570833,0,0,0.68570833,39.013343,40.461597)" /><polygon
     fill="#ffffff"
     points="248.797,660.119 513.261,278.609 538.706,290.016 301.606,690.544 "
     id="polygon10"
     transform="matrix(0.68570833,0,0,0.68570833,39.013343,40.461597)" /><g
     id="g12"
     transform="matrix(0.68570833,0,0,0.68570833,39.013343,40.461597)">
</g><g
     id="g14"
     transform="matrix(0.68570833,0,0,0.68570833,39.013343,40.461597)">
</g><g
     id="g16"
     transform="matrix(0.68570833,0,0,0.68570833,39.013343,40.461597)">
</g><g
     id="g18"
     transform="matrix(0.68570833,0,0,0.68570833,39.013343,40.461597)">
</g><g
     id="g20"
     transform="matrix(0.68570833,0,0,0.68570833,39.013343,40.461597)">
</g><g
     id="g22"
     transform="matrix(0.68570833,0,0,0.68570833,39.013343,40.461597)">
</g><g
     id="g24"
     transform="matrix(0.68570833,0,0,0.68570833,39.013343,40.461597)">
</g><g
     id="g26"
     transform="matrix(0.68570833,0,0,0.68570833,39.013343,40.461597)">
</g><g
     id="g28"
     transform="matrix(0.68570833,0,0,0.68570833,39.013343,40.461597)">
</g><g
     id="g30"
     transform="matrix(0.68570833,0,0,0.68570833,39.013343,40.461597)">
</g><g
     id="g32"
     transform="matrix(0.68570833,0,0,0.68570833,39.013343,40.461597)">
</g><g
     id="g34"
     transform="matrix(0.68570833,0,0,0.68570833,39.013343,40.461597)">
</g><g
     id="g36"
     transform="matrix(0.68570833,0,0,0.68570833,39.013343,40.461597)">
</g><g
     id="g38"
     transform="matrix(0.68570833,0,0,0.68570833,39.013343,40.461597)">
</g><g
     id="g40"
     transform="matrix(0.68570833,0,0,0.68570833,39.013343,40.461597)">
</g></g>
</svg>
