<?xml version="1.0" encoding="UTF-8" standalone="no"?>
<svg
   enable-background="new 0 0 24 24"
   height="500"
   viewBox="0 0 500 500"
   width="500"
   version="1.1"
   id="svg6"
   sodipodi:docname="light.svg"
   inkscape:version="1.1-dev (25441a5, 2020-10-26)"
   xmlns:inkscape="http://www.inkscape.org/namespaces/inkscape"
   xmlns:sodipodi="http://sodipodi.sourceforge.net/DTD/sodipodi-0.dtd"
   xmlns="http://www.w3.org/2000/svg"
   xmlns:svg="http://www.w3.org/2000/svg">
  <defs
     id="defs10" />
  <sodipodi:namedview
     pagecolor="#ffffff"
     bordercolor="#666666"
     borderopacity="1"
     objecttolerance="10"
     gridtolerance="10"
     guidetolerance="10"
     inkscape:pageopacity="0"
     inkscape:pageshadow="2"
     inkscape:window-width="1920"
     inkscape:window-height="1057"
     id="namedview8"
     showgrid="false"
     width="500px"
     inkscape:zoom="0.28417969"
     inkscape:cx="-17.594502"
     inkscape:cy="1011.6838"
     inkscape:window-x="1912"
     inkscape:window-y="-8"
     inkscape:window-maximized="1"
     inkscape:current-layer="svg6" />
  <g
     id="g829">
    <rect
       fill="none"
       height="500"
       width="500"
       id="rect2"
       x="0"
       y="0"
       style="stroke-width:20.8333" />
    <path
       d="m 250,187.5 c 34.375,0 62.5,28.125 62.5,62.5 0,34.375 -28.125,62.5 -62.5,62.5 -34.375,0 -62.5,-28.125 -62.5,-62.5 0,-34.375 28.125,-62.5 62.5,-62.5 m 0,-41.66667 C 192.5,145.83333 145.83333,192.5 145.83333,250 145.83333,307.5 192.5,354.16667 250,354.16667 307.5,354.16667 354.16667,307.5 354.16667,250 354.16667,192.5 307.5,145.83333 250,145.83333 Z m -208.333333,125 h 41.666666 c 11.458334,0 20.833337,-9.375 20.833337,-20.83333 0,-11.45833 -9.375003,-20.83333 -20.833337,-20.83333 H 41.666667 c -11.458334,0 -20.833334,9.375 -20.833334,20.83333 0,11.45833 9.375,20.83333 20.833334,20.83333 z m 375.000003,0 h 41.66666 c 11.45834,0 20.83334,-9.375 20.83334,-20.83333 0,-11.45833 -9.375,-20.83333 -20.83334,-20.83333 h -41.66666 c -11.45834,0 -20.83334,9.375 -20.83334,20.83333 0,11.45833 9.375,20.83333 20.83334,20.83333 z m -187.5,-229.166663 v 41.666666 c 0,11.458334 9.375,20.833337 20.83333,20.833337 11.45833,0 20.83333,-9.375003 20.83333,-20.833337 V 41.666667 c 0,-11.458334 -9.375,-20.833334 -20.83333,-20.833334 -11.45833,0 -20.83333,9.375 -20.83333,20.833334 z m 0,375.000003 v 41.66666 c 0,11.45834 9.375,20.83334 20.83333,20.83334 11.45833,0 20.83333,-9.375 20.83333,-20.83334 v -41.66666 c 0,-11.45834 -9.375,-20.83334 -20.83333,-20.83334 -11.45833,0 -20.83333,9.375 -20.83333,20.83334 z M 124.79167,95.416667 c -8.125,-8.125 -21.45834,-8.125 -29.375003,0 -8.125,8.125003 -8.125,21.458333 0,29.375003 L 117.5,146.875 c 8.125,8.125 21.45833,8.125 29.375,0 7.91667,-8.125 8.125,-21.45833 0,-29.375 z M 382.5,353.125 c -8.125,-8.125 -21.45833,-8.125 -29.375,0 -8.125,8.125 -8.125,21.45833 0,29.375 l 22.08333,22.08333 c 8.125,8.125 21.45834,8.125 29.375,0 8.125,-8.125 8.125,-21.45833 0,-29.375 z m 22.08333,-228.33333 c 8.125,-8.125 8.125,-21.45834 0,-29.375003 -8.125,-8.125 -21.45833,-8.125 -29.375,0 L 353.125,117.5 c -8.125,8.125 -8.125,21.45833 0,29.375 8.125,7.91667 21.45833,8.125 29.375,0 z M 146.875,382.5 c 8.125,-8.125 8.125,-21.45833 0,-29.375 -8.125,-8.125 -21.45833,-8.125 -29.375,0 l -22.083333,22.08333 c -8.125,8.125 -8.125,21.45834 0,29.375 8.125003,7.91667 21.458333,8.125 29.375003,0 z"
       id="path4"
       style="stroke-width:20.8333" />
  </g>
</svg>
