<?xml version="1.0" encoding="UTF-8" standalone="no"?>
<svg
   enable-background="new 0 0 24 24"
   height="500"
   viewBox="0 0 500 500"
   width="500"
   version="1.1"
   id="svg14"
   sodipodi:docname="next.svg"
   inkscape:version="1.1-dev (25441a5, 2020-10-26)"
   xmlns:inkscape="http://www.inkscape.org/namespaces/inkscape"
   xmlns:sodipodi="http://sodipodi.sourceforge.net/DTD/sodipodi-0.dtd"
   xmlns="http://www.w3.org/2000/svg"
   xmlns:svg="http://www.w3.org/2000/svg">
  <defs
     id="defs18" />
  <sodipodi:namedview
     pagecolor="#ffffff"
     bordercolor="#666666"
     borderopacity="1"
     objecttolerance="10"
     gridtolerance="10"
     guidetolerance="10"
     inkscape:pageopacity="0"
     inkscape:pageshadow="2"
     inkscape:window-width="1920"
     inkscape:window-height="1057"
     id="namedview16"
     showgrid="false"
     width="500px"
     inkscape:zoom="0.28417969"
     inkscape:cx="-823.42268"
     inkscape:cy="103.80756"
     inkscape:window-x="1912"
     inkscape:window-y="-8"
     inkscape:window-maximized="1"
     inkscape:current-layer="svg14" />
  <g
     id="g841"
     transform="matrix(20.833333,0,0,20.833333,4e-6,4e-6)">
    <g
       id="g4">
      <rect
         fill="none"
         height="24"
         width="24"
         id="rect2"
         x="0"
         y="0" />
    </g>
    <g
       id="g12">
      <g
         id="g10">
        <path
           d="M 12,2 C 6.48,2 2,6.48 2,12 2,17.52 6.48,22 12,22 17.52,22 22,17.52 22,12 22,6.48 17.52,2 12,2 Z m 0,18 C 7.58,20 4,16.42 4,12 4,7.58 7.58,4 12,4 c 4.42,0 8,3.58 8,8 0,4.42 -3.58,8 -8,8 z"
           id="path6" />
        <path
           d="M 15.97,11.03 C 14.87,9.79 13.28,9 11.5,9 8.68,9 6.32,10.95 5.68,13.56 l 0.96,0.32 C 7.15,11.66 9.13,10 11.5,10 c 1.51,0 2.85,0.68 3.76,1.74 L 13,14 h 5 V 9 Z"
           id="path8" />
      </g>
    </g>
  </g>
</svg>
