<?xml version="1.0" encoding="UTF-8" standalone="no"?>
<svg
   viewBox="0 0 500 500"
   version="1.1"
   id="svg25"
   sodipodi:docname="python.svg"
   width="500"
   height="500"
   inkscape:version="1.1-dev (25441a5, 2020-10-26)"
   xmlns:inkscape="http://www.inkscape.org/namespaces/inkscape"
   xmlns:sodipodi="http://sodipodi.sourceforge.net/DTD/sodipodi-0.dtd"
   xmlns="http://www.w3.org/2000/svg"
   xmlns:svg="http://www.w3.org/2000/svg"
   xmlns:rdf="http://www.w3.org/1999/02/22-rdf-syntax-ns#"
   xmlns:cc="http://creativecommons.org/ns#"
   xmlns:dc="http://purl.org/dc/elements/1.1/">
  <defs
     id="defs29" />
  <sodipodi:namedview
     pagecolor="#ffffff"
     bordercolor="#666666"
     borderopacity="1"
     objecttolerance="10"
     gridtolerance="10"
     guidetolerance="10"
     inkscape:pageopacity="0"
     inkscape:pageshadow="2"
     inkscape:window-width="1920"
     inkscape:window-height="1057"
     id="namedview27"
     showgrid="false"
     inkscape:zoom="0.582"
     inkscape:cx="642.61168"
     inkscape:cy="578.17869"
     inkscape:window-x="1912"
     inkscape:window-y="-8"
     inkscape:window-maximized="1"
     inkscape:current-layer="svg25"
     width="500px" />
  <title
     id="title2">Python</title>
  <g
     id="Python"
     transform="matrix(0.3780421,0,0,0.3780421,-45.828962,-45.794688)">
    <g
       id="Colour">
      <path
         d="m 1437.86,1211.81 c -3.69,-5 -6.56,-10.6 -9.68,-16 -6.86,-11.92 -13.56,-23.94 -20.48,-35.82 -11.26,-19.32 -22.54,-38.62 -34.08,-57.77 -1.63,-2.71 -4.74,-4.54 -7.22,-6.73 -2.19,-1.93 -4.94,-3.44 -6.56,-5.75 a 61.43,61.43 0 0 1 -6.69,-12.28 c -1.15,-2.91 -1,-6.33 -1.41,-9.53 -0.24,-1.76 0,-3.77 -0.78,-5.23 -4.35,-8.06 -9.11,-15.9 -13.36,-24 -1.62,-3.08 -3.32,-6.76 -3.09,-10 0.34,-4.9 2.43,-9.66 3.65,-14.51 2.32,-9.18 3.11,-18 -3.82,-26 -3.92,-4.56 -6.67,-10.11 -10,-15.18 -13.76,-21 -27.38,-42.09 -41.34,-63 -12.65,-18.91 -25.78,-37.51 -38.54,-56.35 -11.06,-16.34 -21.75,-32.94 -32.9,-49.22 -8.18,-11.95 -14.2,-25.68 -26.62,-34.29 A 122.37,122.37 0 0 0 1168.14,760 c -6.27,-3 -13,-4.94 -19.55,-7.43 a 8.11,8.11 0 0 1 -3.53,-2.11 q -13.35,-17 -26.48,-34.15 c -6.39,-8.31 -12.79,-16.62 -19,-25.09 -1.59,-2.19 -1.87,-5.35 -3.52,-7.46 -2.43,-3.1 -5.83,-5.43 -8.34,-8.48 -5.84,-7.1 -11.44,-14.39 -17,-21.67 q -15.8,-20.54 -31.46,-41.15 c -7,-9.17 -14.1,-18.22 -20.76,-27.62 -6.48,-9.15 -17,-15.66 -15.84,-29.7 0.82,-10.45 -1.95,-21.15 -2.85,-31.76 -0.92,-10.84 -1.24,-21.73 -2.37,-32.54 -0.53,-5 -2.05,-10.19 -6.93,-12.83 -8.1,-4.39 -16.48,-8.27 -24.69,-12.46 -14.85,-7.57 -29.63,-15.3 -44.54,-22.76 -4.81,-2.41 -9.95,-4.17 -15.92,-6.64 a 29.26,29.26 0 0 0 -4.63,-4.12 c -6.11,-3.83 -12.24,-7.68 -18.65,-11 -6.57,-3.39 -13.57,-5.91 -20.2,-9.19 -13.18,-6.54 -26.17,-13.47 -39.37,-20 a 102.42,102.42 0 0 0 -16.25,-6.59 c -7.36,-2.16 -15,-3.39 -22.44,-5.22 A 332.35,332.35 0 0 1 715.16,354.68 C 686.51,340.5 657.39,327.25 628.31,313.97 a 37.84,37.84 0 0 0 -15.55,-3.37 c -11.23,0.09 -22.45,1.22 -33.67,2.07 -4.3,0.33 -8.57,1.08 -12.86,1.64 -9.61,1.26 -19.18,2.88 -28.83,3.69 -9.65,0.81 -19.28,1 -28.93,1.17 q -38.1,0.69 -76.22,1.08 a 6.8,6.8 0 0 1 -4,-1.18 c -5,-3.87 -9.61,-8.27 -14.78,-11.87 -6.37,-4.44 -12.58,-1.8 -18.61,1.45 -18.84,10.17 -37.94,19.87 -56.48,30.55 -14.73,8.48 -28.94,17.89 -43.07,27.35 a 183.78,183.78 0 0 0 -20.51,16.22 c -3.83,3.45 -4.8,8 -3.52,13.74 1.49,6.72 0,14.15 6.05,19.55 -1.11,1.2 -2.06,2.05 -2.81,3.06 -12.22,16.61 -24.37,33.27 -36.64,49.84 -6.95,9.38 -14.21,18.52 -21.1,27.93 -7.1,9.7 -13.95,19.59 -20.87,29.42 -4.28,6.07 -8.5,12.19 -12.74,18.29 -0.83,1.17 -3.32,1.17 -4.39,2.4 -5.21,6 -10,12.27 -15,18.46 -9.69,12.1 -19.33,24.24 -29.06,36.3 -7.47,9.26 -11.44,19.41 -8.6,31.47 1.64,7 3,14 4.93,20.89 2.06,7.58 3.5,15.59 7.09,22.42 5.3,10.09 12.33,19.25 18.5,28.89 9.65,15.08 19.28,30.17 28.72,45.38 2,3.28 4.29,7 4.54,10.65 0.37,5.49 -0.89,11.11 -1.52,16.66 -1.15,10 -4.1,20.2 1.87,29.58 5.12,8 10.62,15.8 16.34,23.4 18.49,24.59 37.28,49 55.73,73.57 15.52,20.71 30.66,41.7 46.2,62.38 a 16.89,16.89 0 0 0 7.93,5.41 c 10.37,3.39 21,2.39 31.7,1.43 12.7,-1.14 25.51,-1 38.27,-1.26 25,-0.45 50.09,-0.59 75.12,-1.25 6.38,-0.17 12.37,-2.39 15.23,-9.13 a 30.66,30.66 0 0 0 3.5,1.55 c 8.33,2.68 16.9,4.78 25,8.08 10.67,4.38 21.28,8.76 32.3,12.29 18.9,6.05 37.49,13 56.19,19.7 20,7.14 39.93,14.68 60.11,21.38 9,3 17.42,7.55 27.27,8.65 6.33,0.71 12.17,5.15 18.41,7.43 20.48,7.47 41,14.83 61.59,21.94 3.42,1.18 4.94,2.72 4.32,6.13 -1.29,7.06 -1.07,13.82 3.38,19.88 3.62,4.93 7.21,9.88 10.93,14.73 1.38,1.79 2.82,4.14 4.74,4.82 13.61,4.76 27.39,9 41,13.71 20.58,7.06 41.07,14.37 61.63,21.47 q 38.61,13.34 77.28,26.5 c 21.93,7.45 43.94,14.67 65.86,22.15 18.45,6.28 36.77,13 55.27,19.1 7.85,2.6 15.77,4.16 24.3,1.3 16.72,-5.6 33.65,-10.56 50.59,-15.44 3.89,-1.12 7.51,-3.49 12.29,-1.77 11.94,4.29 24.09,8 36.22,11.71 26.16,8 52.18,16.58 78.61,23.59 17.75,4.7 34,13.54 52.45,16.44 12.44,2 24.67,6.06 36.57,10.4 12.69,4.63 22.41,1.68 31.56,-7.74 8.86,-9.11 18.7,-17.28 27.88,-26.1 3.64,-3.49 5.52,-7.36 1.84,-12.34 z"
         fill="#3e471b"
         id="path4" />
      <path
         d="m 1437.86,1211.81 c -3.69,-5 -6.56,-10.6 -9.68,-16 -6.86,-11.92 -13.56,-23.94 -20.48,-35.82 -11.26,-19.32 -22.54,-38.62 -34.08,-57.77 -1.63,-2.71 -4.74,-4.54 -7.22,-6.73 -2.19,-1.93 -4.94,-3.44 -6.56,-5.75 a 61.43,61.43 0 0 1 -6.69,-12.28 c -1.15,-2.91 -1,-6.33 -1.41,-9.53 -0.24,-1.76 0,-3.77 -0.78,-5.23 -4.35,-8.06 -9.11,-15.9 -13.36,-24 -1.62,-3.08 -3.32,-6.76 -3.09,-10 0.34,-4.9 2.43,-9.66 3.65,-14.51 2.32,-9.18 3.11,-18 -3.82,-26 -3.92,-4.56 -6.67,-10.11 -10,-15.18 -13.76,-21 -27.38,-42.09 -41.34,-63 -12.65,-18.91 -25.78,-37.51 -38.54,-56.35 -11.06,-16.34 -21.75,-32.94 -32.9,-49.22 -8.18,-11.95 -14.2,-25.68 -26.62,-34.29 A 122.37,122.37 0 0 0 1168.14,760 c -6.27,-3 -13,-4.94 -19.55,-7.43 a 8.11,8.11 0 0 1 -3.53,-2.11 q -13.35,-17 -26.48,-34.15 c -6.39,-8.31 -12.79,-16.62 -19,-25.09 -1.59,-2.19 -1.87,-5.35 -3.52,-7.46 -2.43,-3.1 -5.83,-5.43 -8.34,-8.48 -5.84,-7.1 -11.44,-14.39 -17,-21.67 q -15.8,-20.54 -31.46,-41.15 c -7,-9.17 -14.1,-18.22 -20.76,-27.62 -6.48,-9.15 -17,-15.66 -15.84,-29.7 0.82,-10.45 -1.95,-21.15 -2.85,-31.76 -0.92,-10.84 -1.24,-21.73 -2.37,-32.54 -0.53,-5 -2.05,-10.19 -6.93,-12.83 -8.1,-4.39 -16.48,-8.27 -24.69,-12.46 -14.85,-7.57 -29.63,-15.3 -44.54,-22.76 -4.81,-2.41 -9.95,-4.17 -15.92,-6.64 a 29.26,29.26 0 0 0 -4.63,-4.12 c -6.11,-3.83 -12.24,-7.68 -18.65,-11 -6.57,-3.39 -13.57,-5.91 -20.2,-9.19 -13.18,-6.54 -26.17,-13.47 -39.37,-20 a 102.42,102.42 0 0 0 -16.25,-6.59 c -7.36,-2.16 -15,-3.39 -22.44,-5.22 A 332.35,332.35 0 0 1 715.16,354.68 C 686.51,340.5 657.39,327.25 628.31,313.97 a 37.84,37.84 0 0 0 -15.55,-3.37 c -11.23,0.09 -22.45,1.22 -33.67,2.07 -4.3,0.33 -8.57,1.08 -12.86,1.64 -9.61,1.26 -19.18,2.88 -28.83,3.69 -9.65,0.81 -19.28,1 -28.93,1.17 q -38.1,0.69 -76.22,1.08 a 6.8,6.8 0 0 1 -4,-1.18 c -5,-3.87 -9.61,-8.27 -14.78,-11.87 -6.37,-4.44 -12.58,-1.8 -18.61,1.45 -18.84,10.17 -37.94,19.87 -56.48,30.55 -14.73,8.48 -28.94,17.89 -43.07,27.35 a 183.78,183.78 0 0 0 -20.51,16.22 c -3.83,3.45 -4.8,8 -3.52,13.74 1.49,6.72 0,14.15 6.05,19.55 -1.11,1.2 -2.06,2.05 -2.81,3.06 -12.22,16.61 -24.37,33.27 -36.64,49.84 -6.95,9.38 -14.21,18.52 -21.1,27.93 -7.1,9.7 -13.95,19.59 -20.87,29.42 -4.28,6.07 -8.5,12.19 -12.74,18.29 -0.83,1.17 -3.32,1.17 -4.39,2.4 -5.21,6 -10,12.27 -15,18.46 -9.69,12.1 -19.33,24.24 -29.06,36.3 -7.47,9.26 -11.44,19.41 -8.6,31.47 1.64,7 3,14 4.93,20.89 2.06,7.58 3.5,15.59 7.09,22.42 5.3,10.09 12.33,19.25 18.5,28.89 9.65,15.08 19.28,30.17 28.72,45.38 2,3.28 4.29,7 4.54,10.65 0.37,5.49 -0.89,11.11 -1.52,16.66 -1.15,10 -4.1,20.2 1.87,29.58 5.12,8 10.62,15.8 16.34,23.4 18.49,24.59 37.28,49 55.73,73.57 15.52,20.71 30.66,41.7 46.2,62.38 a 16.89,16.89 0 0 0 7.93,5.41 c 10.37,3.39 21,2.39 31.7,1.43 12.7,-1.14 25.51,-1 38.27,-1.26 25,-0.45 50.09,-0.59 75.12,-1.25 6.38,-0.17 12.37,-2.39 15.23,-9.13 a 30.66,30.66 0 0 0 3.5,1.55 c 8.33,2.68 16.9,4.78 25,8.08 10.67,4.38 21.28,8.76 32.3,12.29 18.9,6.05 37.49,13 56.19,19.7 20,7.14 39.93,14.68 60.11,21.38 9,3 17.42,7.55 27.27,8.65 6.33,0.71 12.17,5.15 18.41,7.43 20.48,7.47 41,14.83 61.59,21.94 3.42,1.18 4.94,2.72 4.32,6.13 -1.29,7.06 -1.07,13.82 3.38,19.88 3.62,4.93 7.21,9.88 10.93,14.73 1.38,1.79 2.82,4.14 4.74,4.82 13.61,4.76 27.39,9 41,13.71 20.58,7.06 41.07,14.37 61.63,21.47 q 38.61,13.34 77.28,26.5 c 21.93,7.45 43.94,14.67 65.86,22.15 18.45,6.28 36.77,13 55.27,19.1 7.85,2.6 15.77,4.16 24.3,1.3 16.72,-5.6 33.65,-10.56 50.59,-15.44 3.89,-1.12 7.51,-3.49 12.29,-1.77 11.94,4.29 24.09,8 36.22,11.71 26.16,8 52.18,16.58 78.61,23.59 17.75,4.7 34,13.54 52.45,16.44 12.44,2 24.67,6.06 36.57,10.4 12.69,4.63 22.41,1.68 31.56,-7.74 8.86,-9.11 18.7,-17.28 27.88,-26.1 3.64,-3.49 5.52,-7.36 1.84,-12.34 z"
         fill="none"
         stroke="#000000"
         stroke-linecap="round"
         stroke-linejoin="round"
         stroke-width="8"
         id="path6" />
    </g>
    <g
       id="Canopy">
      <polygon
         points="1144.67,1067.42 1187.94,1093.26 1226.92,1104.25 1260.61,1071.58 1266.11,1053.42 1245.76,1016.24 1226.92,997.14 1158.57,1048.08 "
         fill="#82b3d1"
         id="polygon9" />
    </g>
    <g
       id="Grey">
      <path
         d="m 1371.07,1104.8 -11.46,-10.1 -15.4,-20.67 3.3,-9.65 -16.8,-33.71 5.8,-31.36 -25.89,-44.66 -125.9,-180.18 -44.56,-22.91 L 1001,566.12 993.3,488.24 989.4,483.3 805.85,388.14 751.67,373.47 712.26,356.8 620.08,315 l -13.5,-0.58 -38.41,4.08 103.39,61.92 -33,30 -15.77,19.62 194.21,165.38 -15.09,40.8 -60.77,-33.68 -35.5,19.3 -6.58,6.39 3.28,8 34.66,42.46 -76.8,26.66 -2.53,24.72 19.79,23.45 H 683 l 79.11,-15.43 10.1,15.6 221.1,205.51 -193.76,8.88 -11.36,15.72 -302,-154.08 -12,-3.07 -24.2,4 -60.26,-61.28 -207.67,-217.69 70.94,-97.25 13,-12.24 -28.94,67 L 266,540.5 330.59,505.08 352,527 l 61,-21.88 -116.15,-77.65 -11.79,-8.87 11.79,-28.25 52.83,-44.25 26.92,-13.37 40.31,-15.9 -11.37,-8.25 -54.27,24.15 -75.53,55.41 1.61,22.05 3.16,4.62 -3.16,3.79 -95.48,128.82 -40,49.86 -12.84,23 4.77,30.41 51,85 8.2,17.64 -2.45,46.67 60.78,83.67 57,78.08 182.67,-3.44 279.11,94.55 c -0.59,12.14 -0.85,27.65 1.22,33.14 3.6,9.5 21.51,18.25 21.51,18.25 L 1078.61,1205 a 55,55 0 0 0 39.08,-1 l 47.75,-19.53 221.56,73 8.91,-3.32 40.7,-37.7 z m -34.84,93.2 -55.56,-10.32 -109.87,-37 -15.67,4.68 -6.72,-1.65 -217.41,-116.82 -10.82,-67 h 0.06 l 69.17,-7.59 24,3.75 112.74,94.51 89,-81.54 -56.58,-56.78 -60.85,-59 -251.44,-195.66 -5.21,-9.21 2.64,-41.74 -17.09,-14.09 22.45,-46.92 -2.79,-10.72 -76.35,-65 -25.53,-21.2 8.16,-33.24 155.08,88.66 v 17.18 l 18.05,20.38 126.64,153.67 39.32,46 13.35,73.85 42.75,14.69 23,11.11 134.62,169.47 v 14.31 l 71.63,128.89 z m -866.7,-848 72.41,44.73 8.62,10.92 2.88,12.35 c 2.36,6.26 5.78,8.33 9.67,0.56 l 11.16,-34 -27.16,-12.28 21.67,-18.6 -35,-20 -64.25,-7.85 -36.31,0.51 8.45,9.34 z m -177.64,271.84 61.58,68.22 86.53,-31.69 107.07,97.53 17.82,1.1 69.88,-25.1 -9.6,-14.18 -188.72,-164 -14.75,-1.82 -124.85,56.25 z"
         fill="#454545"
         id="path12" />
    </g>
    <g
       id="Shadows"
       opacity="0.2">
      <path
         d="m 772.16,1040.63 c 0,0 -231.73,-89.54 -263,-101.86 C 477.89,926.45 454,925.3 439.6,926.5 c -14.4,1.2 -45.75,4.15 -69,7.49 -23.25,3.34 -52.92,8 -60.19,-3.1 -7.27,-11.1 -81.65,-107.89 -93.68,-126.58 -12.03,-18.69 -6,-33.4 -8,-50.79 -2,-17.39 -38.09,-62.81 -58.14,-101.12 -20.05,-38.31 -9.36,-36.55 -8.66,-55.12 l -15.08,18.36 2.24,20.58 11.91,45.28 49.6,74.4 -3.38,43.92 100.37,138.95 27.32,26 171.84,-5.13 283.18,97.32 z m 10.68,-276.48 196.82,179.48 30,19.1 126.72,102.48 59.52,30.3 18.08,0.66 c 0,0 -49.53,-39.87 -66,-55.54 -16.47,-15.67 -122.5,-106.64 -146,-127.41 C 978.48,892.45 756.65,706.93 756.65,706.93 l 9.69,41.07 z m -162,-22.59 57.59,15.18 12.34,-23.82 c 0,0 -197.34,-208.07 -203.35,-213.36 a 13.86,13.86 0 0 0 -13.23,-2.65 l 23.07,47.16 z m 715.39,456.44 -51.47,-12 -409.6,-72.18 -105.23,-36.43 4,18.82 317.95,115.07 77,-25.53 222.12,71.72 z m -298.92,-295.09 -4.1,-7.7 h -13 l -3,7.7 12,9 z m 39.09,-28.57 3.29,-6.1 -7.3,-5 -7.68,-2.64 -7.19,7.6 9,8.77 z M 268,484.35 c 31.08,-9 27.07,21.06 32.1,16.57 5.03,-4.49 7,-5 10.7,-12.68 3.7,-7.68 -6.71,-14.92 -18.06,-17.78 C 281.39,467.6 259,487 268,484.35 Z"
         id="path15" />
    </g>
    <g
       id="Outline">
      <path
         d="m 259.3,507.25 c 3.21,5.69 9.16,8.31 13.83,9.33 a 34.93,34.93 0 0 0 21,-2.38 c 10.2,-4.22 16.19,-15.4 16.26,-15.56 1.73,-4.11 2.86,-7.27 4.27,-11.49 0.65,-1.94 0.41,-7.65 -0.05,-9.67 -0.38,-1.63 -1.31,-6 -1.49,-6.42 a 19.22,19.22 0 0 0 -4.06,-6.56 c -7.1,-6.61 -16.34,-5.77 -24.3,-4.06 -14.48,3.12 -24.16,13 -28.07,27.4 a 25.24,25.24 0 0 0 2.61,19.41 z m 16.33,-15.59 c 4.08,-8.37 11.2,-12.38 19.83,-14 6.54,-1.22 10,3.36 8,9.8 -2.9,9 -13.18,17.33 -21.74,17.59 -7.62,0.25 -10.03,-5.32 -6.09,-13.39 z m 103.65,-58 c 5.51,3.61 20.46,12 31.56,18.72 11.28,6.82 15.91,6.53 22.73,-1.54 4.42,-5.23 8.57,-10.71 13.17,-15.78 4.6,-5.07 4.52,-6.26 -1.77,-9.28 -18.13,-9.87 -33,-18.64 -34.94,-20.18 -2.62,-2.12 -5.74,-3.75 -7.57,-2 -8.16,7.74 -16.15,15.67 -23.81,23.89 -0.99,1.06 -0.53,5.43 0.63,6.18 z M 311.9,398 c 8.27,5.59 16.93,10.61 25.51,15.73 4.4,2.63 13.17,0.09 16.45,-3.55 6.45,-7.15 13.38,-13.88 20.3,-20.6 4.41,-4.3 9.39,-8 13.61,-12.5 0.84,-0.88 0.76,-2.62 0.73,-4.33 a 2.6,2.6 0 0 0 -3.73,-2.07 c -5.53,4.84 -10.82,9.94 -16.25,14.9 -7.76,7.1 -15.53,14.2 -23.43,21.14 a 4.91,4.91 0 0 1 -4.18,0.88 47.18,47.18 0 0 1 -7.86,-4.42 c -4.93,-3.2 -9.77,-6.53 -15,-10 5.45,-5.09 10.59,-10.23 16.1,-15 7.78,-6.68 15.87,-13 23.7,-19.63 a 4.56,4.56 0 0 0 1.5,-3.68 5.72,5.72 0 0 0 -2.89,-3.53 c -0.85,-0.37 -2.65,0.7 -3.63,1.57 q -10.89,9.62 -21.6,19.44 c -6.7,6.15 -13.47,12.26 -19.73,18.84 -1.09,1.22 -0.8,6 0.4,6.81 z m 450.16,228.67 c 0,-1.06 -1.06,-2.26 -1.93,-3.08 a 54,54 0 0 0 -5.46,-4.41 c -3.31,-2.37 -6.67,-4.66 -10.77,-7.49 a 3.25,3.25 0 0 0 -3.4,-0.16 c -5.72,3.08 -11.93,5.69 -16.66,9.94 -5.59,5 -4.23,8.45 1.61,13.88 a 34.28,34.28 0 0 1 3.06,2.73 c 8.87,6.25 8.87,6.25 14.22,3.92 11.78,-7.27 19.49,-10.28 19.33,-15.33 z M 605,930.74 a 2.39,2.39 0 0 0 0.76,0.15 3.39,3.39 0 0 0 2.86,-5.1 2.66,2.66 0 0 0 -1.19,-1.24 c -11.15,-4.76 -22.48,-9.06 -33.75,-13.55 -10,-4 -20,-7.89 -29.88,-12 -4.08,-1.7 -5.42,-2.86 -4.63,-5.09 a 14.67,14.67 0 0 0 -0.49,-11.78 30.75,30.75 0 0 0 -3.65,-5.35 c -4.55,-6.06 -11.23,-5.59 -17.84,-5.41 -7,0.19 -13.2,9.93 -15.13,15.74 -2.32,7 -0.7,13.95 0,14.95 9.67,13 23,15.56 34.66,0.93 l 7.68,3.11 c 20.21,8.24 40.36,16.55 60.6,24.64 z m 2.42,28.58 a 4.32,4.32 0 0 0 -2.46,-2 c -12.74,-5 -25.54,-9.79 -38.28,-14.77 -7.67,-3 -14.92,-6.67 -23,0 -3.33,2.73 -4.77,5.39 -3.24,8.6 1.86,3.9 4.72,0.79 6.82,-0.42 5.16,-3 7.36,-6.68 14.92,-2.62 -1.07,3.52 -1.6,7.51 3.08,8.7 6.79,2.4 8.24,3.09 13,4.62 4.22,1.13 8.84,2.57 13,1.88 5.34,-0.9 8,-0.33 9.8,4.89 a 31.23,31.23 0 0 0 3.57,7.75 5.34,5.34 0 0 0 4.53,1.89 c 1,-0.23 2.45,-2.8 2.21,-4 a 134.12,134.12 0 0 0 -3.95,-14.52 z m 492.5,191.47 c -9.21,0 -17.3,7.25 -16.4,15.65 1.09,10.13 5.92,14.31 18,15.09 6.14,0.39 13.88,-7.66 13.78,-14 -0.19,-9.11 -5.3,-17.68 -15.38,-16.74 z m 199,-171.49 c -4.11,-0.36 -7.31,1.22 -6.56,6 -0.05,8.29 11.81,18.87 19.87,18 4,-0.4 6.89,-5.11 5.85,-9 -2.3,-8.72 -10.95,-14.3 -19.14,-15 z m -341.79,-148 c 6.18,5.86 12.41,11.76 19.24,16.8 1.9,1.4 6.78,1.07 8.82,-0.45 7.67,-5.71 14.82,-12.13 22,-18.52 2.41,-2.14 4,-4.85 0.4,-7.73 -6.32,-5.1 -12.21,-10.81 -18.94,-15.28 -2.7,-1.79 -8,-2.49 -10.61,-1 -6.54,3.64 -12.31,8.69 -18.17,13.46 a 1.67,1.67 0 0 0 -0.4,0.5 c -1.07,2 0.76,4.36 3.06,4.2 a 2.89,2.89 0 0 0 1.47,-0.44 c 6.43,-4.43 12.61,-9.24 18.82,-13.87 l 19.26,16 -21.55,18.72 c -6.37,-5.58 -12.66,-11.3 -19.25,-16.66 a 3,3 0 0 0 -4.59,3.65 2.44,2.44 0 0 0 0.46,0.63 z m 80.73,63.22 c -2.82,-1.89 -5,-4.84 -7.92,-6.44 -1.91,-1.05 -5.2,-1.5 -6.94,-0.53 a 35.52,35.52 0 0 0 -10.45,8.28 c -1.39,1.71 -1.53,6.12 -0.26,7.95 2.39,3.46 6.11,6.05 9.46,8.77 a 31.93,31.93 0 0 0 4.74,2.89 3.38,3.38 0 0 0 3.78,-0.38 c 2.8,-2.35 5.48,-4.56 8,-6.91 6.42,-5.87 8.84,-7.44 -0.39,-13.62 z M 1032,905 l -2.17,1.79 a 3.38,3.38 0 0 1 -4.33,0 l -3.1,-2.63 a 3.38,3.38 0 0 1 0.22,-5.32 c 4.34,-3.13 5.7,-2.87 9.66,1.24 A 3.37,3.37 0 0 1 1032,905 Z m 45.5,-45.47 c -1.75,-1.26 -3.3,-2.8 -5.06,-4 a 12.91,12.91 0 0 0 -1.14,-0.71 6.53,6.53 0 0 0 -6.79,0.32 c -3.06,2.05 -6.11,4.08 -9,6.29 -4,3 -4.17,7 -0.53,10.61 2.84,2.78 6.19,5.07 8.89,8 3.45,3.7 6.64,2.72 10.06,0.28 1.17,-0.84 2.3,-1.72 3.49,-2.51 10.86,-7.29 10.87,-10.42 0.06,-18.25 z m -3.07,12.57 -3.19,2.26 a 3.42,3.42 0 0 1 -4.14,-0.14 l -3.67,-3 A 2.81,2.81 0 0 1 1063,867.3 c 4.43,-5.56 6.29,-5.46 11.88,0.61 a 2.8,2.8 0 0 1 -0.47,4.22 z M 271.17,803.6 c 23.64,-14.5 23.27,-26.16 18.67,-31.35 -1.89,-2.13 -3.24,-4.75 -5.2,-6.8 -4.81,-5 -7.86,-12.61 -15.26,-11.88 -11.09,4.55 -22.45,16 -28.62,21.65 -4.32,4.39 -1.82,9.89 3,17.11 a 25.68,25.68 0 0 1 3,4.26 c 9.41,12.65 13.75,13.93 24.41,7.01 z m 701.09,218.46 c 12.94,9.25 24.86,19.92 37.17,30 8.37,6.88 16.65,13.88 25.21,20.51 1.12,0.87 4.52,0.59 5.49,-0.45 10.22,-10.91 20.16,-22.09 30.16,-33.2 a 19.18,19.18 0 0 0 1.38,-2.1 22.61,22.61 0 0 0 -2.73,-3.29 c -5.82,-4.84 -11.72,-9.59 -17.6,-14.37 q -21.22,-17.22 -42.46,-34.42 c -2.47,-2 -5.34,-5.32 -7.73,-5.08 -2.39,0.24 -4.54,4.07 -6.66,6.46 -7.94,8.94 -15.69,18.05 -23.78,26.85 -3.81,4.18 -3.44,5.52 1.55,9.09 z m 63.51,38.55 -33.85,-27.61 a 6,6 0 0 1 0.58,-0.66 c 8,-5.41 13.64,-2.84 20.62,3.39 8,7.15 13,10.75 19.68,16.15 z m -16.31,-42.33 c 1,-3.49 1.06,-4.38 1.67,-7.16 l 33.69,27.64 c -2.43,3 -4.56,5.7 -6.74,8.44 -8.87,-7.16 -17.52,-14.13 -26.15,-21.13 -2.48,-2.02 -3.62,-3.84 -2.47,-7.79 z m -15.67,-20.86 11.26,9 c -0.79,3.75 -1.62,6.86 -2.09,10 -0.62,4.2 -3,5.76 -7,7.12 -12.32,4.21 -12.22,4.49 -21.52,-5.47 z m 211.14,-75.31 c -8,-7.28 -16.86,-16.22 -24.72,-23.59 -11,-10.92 -26.4,-26.1 -29.4,-29.39 -3,-3.29 -4.43,-3.39 -7.08,-2.15 q -12,5.57 -24,10.92 c -4.22,1.86 -4.79,3.67 -1.44,7 q 28,27.64 56.25,55.09 c 1.1,1.07 3.6,2.07 4.72,1.55 9,-4.21 17.94,-8.77 26.84,-13.3 a 2.73,2.73 0 0 0 0.84,-0.77 2.51,2.51 0 0 0 0,-3.1 20.54,20.54 0 0 0 -2.01,-2.26 z m -71.45,-35 12.74,-5.77 9.19,9.71 a 4.6,4.6 0 0 1 -2.45,7.33 c -8.96,1 -15.18,-3.38 -19.48,-11.27 z m 43.92,43.56 -26.59,-25.81 c 6,-2.19 20.33,15.62 29.3,24.12 1.47,1.29 -0.73,3.21 -2.71,1.69 z m 9.24,-3.14 c -5.94,-6.14 -11.39,-11.82 -16.9,-17.44 -1.91,-2 -4.13,-3.62 -5.88,-5.69 a 68.94,68.94 0 0 1 -4.43,-6.55 l 1.93,-1.5 28.64,26.91 z M 791.82,409.3 c -1,1.38 41.25,20.76 42.08,20.52 0.83,-0.24 12.28,-5.28 12.37,-6.29 0.09,-1.01 -1.46,-3.75 -2.56,-4.58 -1.1,-0.83 -14.49,-10.72 -28.6,-12.74 -2.53,-0.36 -9.9,-0.83 -12.38,-0.46 -2.48,0.37 -9.81,2.06 -10.91,3.55 z m 646,802.51 c -3.69,-5 -6.56,-10.6 -9.68,-16 -6.86,-11.92 -13.56,-23.94 -20.48,-35.82 -11.26,-19.32 -22.54,-38.62 -34.08,-57.77 -1.63,-2.71 -4.74,-4.54 -7.22,-6.73 -2.19,-1.93 -4.94,-3.44 -6.56,-5.75 a 61.43,61.43 0 0 1 -6.69,-12.28 c -1.15,-2.91 -1,-6.33 -1.41,-9.53 -0.24,-1.76 0,-3.77 -0.78,-5.23 -4.35,-8.06 -9.11,-15.9 -13.36,-24 -1.62,-3.08 -3.32,-6.76 -3.09,-10 0.34,-4.9 2.43,-9.66 3.65,-14.51 2.32,-9.18 3.11,-18 -3.82,-26 -3.92,-4.56 -6.67,-10.11 -10,-15.18 -13.76,-21 -27.38,-42.09 -41.34,-63 -12.65,-18.91 -25.78,-37.51 -38.54,-56.35 -11.06,-16.34 -21.75,-32.94 -32.9,-49.22 -8.18,-11.95 -14.2,-25.68 -26.62,-34.29 A 122.37,122.37 0 0 0 1168.1,760 c -6.27,-3 -13,-4.94 -19.55,-7.43 a 8.11,8.11 0 0 1 -3.53,-2.11 q -13.35,-17 -26.48,-34.15 c -6.39,-8.31 -12.79,-16.62 -19,-25.09 -1.59,-2.19 -1.87,-5.35 -3.52,-7.46 -2.43,-3.1 -5.83,-5.43 -8.34,-8.48 -5.84,-7.1 -11.44,-14.39 -17,-21.67 q -15.8,-20.54 -31.46,-41.15 c -7,-9.17 -14.1,-18.22 -20.76,-27.62 -6.48,-9.15 -17,-15.66 -15.84,-29.7 0.82,-10.45 -1.95,-21.15 -2.85,-31.76 -0.92,-10.84 -1.24,-21.73 -2.37,-32.54 -0.53,-5 -2.05,-10.19 -6.93,-12.83 -8.1,-4.39 -16.48,-8.27 -24.69,-12.46 -14.85,-7.57 -29.63,-15.3 -44.54,-22.76 -4.81,-2.41 -9.95,-4.17 -15.92,-6.64 a 29.26,29.26 0 0 0 -4.63,-4.12 c -6.11,-3.83 -12.24,-7.68 -18.65,-11 -6.57,-3.39 -13.57,-5.91 -20.2,-9.19 -13.18,-6.54 -26.17,-13.47 -39.37,-20 a 102.42,102.42 0 0 0 -16.25,-6.59 c -7.36,-2.16 -15,-3.39 -22.44,-5.22 A 332.35,332.35 0 0 1 715.12,354.68 C 686.47,340.5 657.35,327.25 628.27,313.97 a 37.84,37.84 0 0 0 -15.55,-3.37 c -11.23,0.09 -22.45,1.22 -33.67,2.07 -4.3,0.33 -8.57,1.08 -12.86,1.64 -9.61,1.26 -19.18,2.88 -28.83,3.69 -9.65,0.81 -19.28,1 -28.93,1.17 q -38.1,0.69 -76.22,1.08 a 6.8,6.8 0 0 1 -4,-1.18 c -5,-3.87 -9.61,-8.27 -14.78,-11.87 -6.37,-4.44 -12.58,-1.8 -18.61,1.45 -18.84,10.17 -37.94,19.87 -56.48,30.55 -14.73,8.48 -28.94,17.89 -43.07,27.35 a 183.78,183.78 0 0 0 -20.51,16.22 c -3.83,3.45 -4.8,8 -3.52,13.74 1.49,6.72 0,14.15 6.05,19.55 -1.11,1.2 -2.06,2.05 -2.81,3.06 -12.22,16.61 -24.37,33.27 -36.64,49.84 -6.95,9.38 -14.21,18.52 -21.1,27.93 -7.1,9.7 -13.95,19.59 -20.87,29.42 -4.28,6.07 -8.5,12.19 -12.74,18.29 -0.83,1.17 -3.32,1.17 -4.39,2.4 -5.21,6 -10,12.27 -15,18.46 -9.69,12.1 -19.33,24.24 -29.06,36.3 -7.47,9.26 -11.44,19.41 -8.6,31.47 1.64,7 3,14 4.93,20.89 2.06,7.58 3.5,15.59 7.09,22.42 5.3,10.09 12.33,19.25 18.5,28.89 9.65,15.08 19.28,30.17 28.72,45.38 2,3.28 4.29,7 4.54,10.65 0.37,5.49 -0.89,11.11 -1.52,16.66 -1.15,10 -4.1,20.2 1.87,29.58 5.12,8 10.62,15.8 16.34,23.4 18.49,24.59 37.28,49 55.73,73.57 15.52,20.71 30.66,41.7 46.2,62.38 a 16.89,16.89 0 0 0 7.93,5.41 c 10.37,3.39 21,2.39 31.7,1.43 12.7,-1.14 25.51,-1 38.27,-1.26 25,-0.45 50.09,-0.59 75.12,-1.25 6.38,-0.17 12.37,-2.39 15.23,-9.13 a 30.66,30.66 0 0 0 3.5,1.55 c 8.33,2.68 16.9,4.78 25,8.08 10.67,4.38 21.28,8.76 32.3,12.29 18.9,6.05 37.49,13 56.19,19.7 20,7.14 39.93,14.68 60.11,21.38 9,3 17.42,7.55 27.27,8.65 6.33,0.71 12.17,5.15 18.41,7.43 20.48,7.47 41,14.83 61.59,21.94 3.42,1.18 4.94,2.72 4.32,6.13 -1.29,7.06 -1.07,13.82 3.38,19.88 3.62,4.93 7.21,9.88 10.93,14.73 1.38,1.79 2.82,4.14 4.74,4.82 13.61,4.76 27.39,9 41,13.71 20.58,7.06 41.07,14.37 61.63,21.47 q 38.61,13.34 77.28,26.5 c 21.93,7.45 43.94,14.67 65.86,22.15 18.45,6.28 36.77,13 55.27,19.1 7.85,2.6 15.77,4.16 24.3,1.3 16.72,-5.6 33.65,-10.56 50.59,-15.44 3.89,-1.12 7.51,-3.49 12.29,-1.77 11.94,4.29 24.09,8 36.22,11.71 26.16,8 52.18,16.58 78.61,23.59 17.75,4.7 34,13.54 52.45,16.44 12.44,2 24.67,6.06 36.57,10.4 12.69,4.63 22.41,1.68 31.56,-7.74 8.86,-9.11 18.7,-17.28 27.88,-26.1 3.68,-3.49 5.56,-7.36 1.88,-12.34 z M 1244.34,870.18 c 8.72,12.93 16.11,26 24.75,39 q 8.92,13.44 18,26.8 c 2.54,3.75 3.49,7.32 1.89,12.05 -3.72,10.94 -6.69,22.13 -10.28,34.3 l -69.88,-86.7 c 3.72,0 6.87,-0.2 10,0 6.66,0.52 8.49,-0.89 8.66,-7.69 0.16,-6.39 0,-12.78 0,-19.73 -0.61,-8.12 1.13,-11.23 8.15,-7.3 6.09,3.22 6.49,5.99 8.71,9.27 z m 57.3,164.82 c 3.07,5.88 6.34,11.65 9.69,17.37 4.32,7.4 8.85,14.68 13.17,22.08 10.2,17.51 20.47,35 30.42,52.62 5.86,10.38 11.16,21.06 16.15,32.11 -3.71,-3.19 -7.44,-6.34 -11.1,-9.57 -6.25,-5.51 -13,-10.59 -18.5,-16.77 -3.7,-4.18 -6.21,-9.72 -8.2,-15 -4.57,-12.15 -10.52,-23.15 -20.54,-31.8 -10.71,-9.23 -20.74,-19.25 -31.62,-28.25 -12,-9.92 -18.38,-23.66 -26.41,-36.33 -2.21,-3.49 -4.14,-7.31 -7,-10.15 -2.86,-2.84 -2.94,-6.19 -2.51,-9.54 1.26,-9.78 3.49,-19.5 3.89,-29.3 0.15,-3.59 -3.5,-7.52 -5.88,-11 -2.76,-4 -6.11,-7.56 -9.07,-11.42 -4.86,-6.35 -3.92,-7.53 -1.82,-14.16 12,14.64 23.76,29 35.39,43.41 9.48,11.77 18.75,23.71 28.14,35.56 1,1.28 2.25,2.39 3.36,3.61 3.29,3.62 6,7.28 2.65,12.44 a 4.83,4.83 0 0 0 -0.21,4.09 z m -127.2,111.8 c -3.67,-0.91 -6.13,-1.87 -9.9,1.44 -4.41,3.86 -10.22,5.63 -17.08,1.73 -21.73,-12.38 -44,-23.81 -66,-35.79 -4.75,-2.59 -29.85,-17 -40,-23.31 5.56,-1.8 12.69,-4.37 18.3,-6 a 6.44,6.44 0 0 1 4.11,0.8 c 7.68,3.87 15.32,7.8 22.89,11.87 a 18.23,18.23 0 0 0 14.49,1.67 c 16.69,-4.72 33.42,-9.43 50.4,-12.92 4.43,-0.91 9.81,2.55 14.69,4.2 2.69,0.91 20,8.3 24.43,8.94 12.67,1.84 21.06,10.61 29.89,18.69 11.52,10.54 22.8,21.4 34.92,31.21 4.16,3.36 10.53,4 15.93,5.82 8.29,2.75 16.69,5.22 24.91,8.18 a 29.42,29.42 0 0 1 9.27,5.17 c 8.59,7.44 16.92,15.2 25.33,22.87 a 1.64,1.64 0 0 1 -1.31,2.85 73.13,73.13 0 0 1 -10.39,-1.73 c -20.29,-5.67 -40.51,-11.59 -60.75,-17.42 2.04,-8.62 -11.9,-10.5 -84.13,-28.27 z M 897.91,1045.87 c -11.66,-4.18 -42.65,-15.53 -55.84,-20 -2.78,-0.93 -8.13,-0.58 -9.69,1.36 -1.44,1.77 -9.85,21.16 -13.85,31.09 -5.35,-1.44 -18.77,-5.87 -25.69,-8.1 0.43,-8.17 0.45,-16.37 1.49,-24.43 0.34,-2.64 3.18,-5.06 5.11,-7.38 2.77,-3.35 5.77,-6.51 8.63,-9.78 a 4.45,4.45 0 0 0 1.32,-2.27 c 0.21,-6.27 1.08,-24.07 1.42,-26.66 5.7,-0.55 11.26,-1.29 16.84,-1.61 14.69,-0.84 29.39,-1.49 44.09,-2.24 q 20.94,-1.08 41.89,-2.23 a 9.81,9.81 0 0 0 1.18,-0.16 3.5,3.5 0 0 1 4.11,2.94 c 0.92,6.82 1.81,13.56 2.77,20.28 1.77,12.44 4,24.83 5.22,37.32 0.57,6 5.38,6.65 8.67,8.61 14.52,8.69 29.41,16.76 44.08,25 -1.74,7 -3.37,13.85 -5.23,20.66 a 4.72,4.72 0 0 1 -2.54,2.93 c -10.11,2.93 -20.27,5.65 -30.42,8.4 -2.36,0.64 -4.74,1.17 -5.9,1.45 -3,-2.28 -5.47,-5 -8.52,-6.22 -8.64,-3.33 -17.5,-6.15 -26.37,-8.86 -3.12,-1 -3.56,-2 -2.44,-5.06 2.93,-7.88 5.48,-15.89 8.11,-23.88 2.17,-6.55 -1.98,-8.85 -8.44,-11.16 z m -63.82,45.75 c 7.79,2.6 15.39,5.79 23.14,8.52 9.36,3.31 15.58,0.17 19.22,-9.52 0.87,-2.32 1.52,-4.72 2.37,-7.4 l 4.47,2 c -2,7.37 -4,14.89 -6,22.26 a 4.29,4.29 0 0 1 -5.62,3 c -12.82,-4.45 -38.29,-13.22 -48,-16.61 a 3.29,3.29 0 0 1 -2,-4.31 c 1.84,-4.7 4,-10.39 5.75,-14.76 1.25,-3.19 2.9,-1.67 2.91,-0.73 0,2.69 -1.12,6.47 -1.1,9.15 0.1,4.12 0.53,6.95 4.86,8.4 z M 883,1072.14 a 41.92,41.92 0 0 0 1.2,-4.31 c 1,-6.51 -1.81,-11.34 -8,-13.48 -6.75,-2.35 -13.62,-4.39 -20.3,-6.92 -11,-4.16 -16.64,4.4 -20.82,13.18 0,0 -3.72,-0.88 -3.52,-2 0.41,-2.42 8.59,-21.61 8.73,-21.71 2.66,0 48.71,16.29 53.16,18.51 -1.29,3.45 -4.63,12.95 -6.46,17.83 z M 444.16,725 a 6.73,6.73 0 0 0 -3.35,0.86 q -23.49,16.68 -46.71,33.73 c -1.18,0.87 -1.44,3 -2.32,4.93 -2.27,-2.67 -4.4,-5.32 -6.68,-7.84 -7.62,-8.4 -15.16,-16.87 -23,-25.09 -6.92,-7.29 -14.37,-14.08 -21.2,-21.44 -7.37,-8 -14.18,-16.45 -21.49,-24.48 -3.15,-3.47 -6.93,-6.39 -10.45,-9.52 -2.86,-2.55 -3.2,-4.34 0.74,-6.48 11.47,-6.24 10.16,-5.86 21.22,5.56 5.2,5.38 10.09,11 14.87,16.81 3.54,4.25 6.85,6.19 12.64,4.09 19.8,-7.22 39.84,-13.8 59.75,-20.72 6.05,-2.1 11.94,-4.68 18,-6.62 1.69,-0.54 4.47,-0.27 5.72,0.81 11.22,9.78 22.17,19.86 33.28,29.77 8.51,7.6 17.18,15 25.7,22.62 8.52,7.62 17.13,15.42 25.6,23.24 7,6.48 13.81,13.21 21,19.54 1.22,1.08 3.92,1.32 5.63,0.85 11.87,-3.31 23.61,-7.06 35.5,-10.26 a 8.09,8.09 0 0 1 6.66,1.68 c 5.19,5.29 9.75,11.18 14.75,16.67 2.21,2.42 8.38,8.4 9.24,10 l -43.83,10.69 c -15.29,3.74 -30.74,7 -45.76,11.59 -3.52,1.09 -6.21,6.54 -8.2,10.52 -2.8,5.58 -5,11.44 -7.32,17.16 a 4.66,4.66 0 0 1 -6.37,2.45 c -1.84,-0.89 -3.45,-2 -4.35,-2.45 -8.06,-4.35 -19.56,-10.19 -27.07,-9.18 -6.28,0.94 -12.48,2.41 -18.73,2.65 -5.55,0.21 -10.13,-3 -13.72,-7.34 -2.44,-2.95 -4.87,-5.91 -7.48,-8.71 -11.71,-12.54 -23.59,-24.92 -35.35,-37.4 -3.48,-3.69 -2.53,-9.36 1.69,-12.4 13.84,-10 27.68,-20 41.31,-30.26 1,-0.76 1.62,-2.5 1.77,-4.29 A 1.62,1.62 0 0 0 444.16,725 Z m -129.22,49 c -8.43,-12.71 -18.58,-24.28 -28,-36.32 -6.44,-8.22 -17,-10.07 -26.61,-2 -5.09,4.27 -10.52,8.15 -15.8,12.21 -3,-3.24 -3.78,-5.37 -3.34,-10.46 0.34,-4 0.8,-6 1.92,-8.07 4.89,-9.15 -0.52,-15.53 -5.36,-22.19 Q 223.8,688 210,668.79 c -4.16,-5.8 -8.17,-11.7 -12.17,-17.44 6.67,-8 7.06,-14.09 2.32,-20.39 a 12.42,12.42 0 0 0 -13.07,-4.4 c -5.17,1.29 -7.36,-0.14 -9.76,-3.95 -2.4,-3.81 -5.49,-7.55 -8,-11.51 a 4.46,4.46 0 0 1 0.14,-4.1 c 8.8,-10.57 17.77,-21 26.72,-31.44 0.71,-0.82 1.58,-1.51 3.13,-3 7.28,8 14.47,15.85 21.65,23.73 1,1.07 1.76,2.3 2.75,3.34 14.58,15.34 29.27,30.57 43.74,46 12.62,13.45 24.95,27.17 37.49,40.71 14.84,16 29.82,31.93 44.63,48 10.09,10.94 19.94,22.1 30,33 l 0.14,0.15 a 5.94,5.94 0 0 1 -0.2,8.77 l -0.56,0.47 q -19.37,15.63 -38.93,31 c -8.48,6.64 -17.46,12.64 -25.77,19.49 -1.33,1.1 -2.48,2.4 -3.71,3.6 -2.71,2.65 -8.17,-6.31 -10.11,-9.2 -2.49,-3.72 -5.31,-7.21 -8.14,-11 8.21,-7.12 16.75,-12.84 22.78,-20.53 2.72,-3.35 2.46,-12.15 -0.13,-16.09 z m 14.39,-221.38 c 8.63,-5.39 10.09,-10.26 5.37,-19 -0.17,-0.31 -0.57,-1.59 -0.73,-1.91 -2.17,-4.14 -5,-7.12 -10.07,-7.53 -5.27,-0.42 -5,0.21 -10,2.8 -2.82,1.47 -8.78,4.92 -11.78,6.89 -2.12,-3.58 -3.74,-6.43 1.93,-9.48 6.35,-3.42 14.44,-8.62 23.5,-13.19 l 15.18,16.08 c 3.61,3.81 6.88,5.81 13,3.38 19.41,-7.77 39.09,-14.89 58.92,-21.55 A 293.41,293.41 0 0 1 449.8,500 c 2.29,-0.46 6,2.8 8.1,5.17 9.05,10.09 17.76,20.49 26.58,30.79 6.19,7.23 12.35,14.49 18.69,21.93 -11.48,4.81 -21.92,9 -32.22,13.54 -5,2.2 -7.68,-1.12 -10.82,-3.73 -8.2,-6.78 -16.32,-13.66 -24.74,-20.16 -1.36,-1 -4.05,-0.59 -6.11,-0.48 -2.47,0.12 -5.23,1.5 -7.33,0.78 -8.78,-3 -15.17,2 -22.19,5.55 -11.14,5.54 -22.41,10.83 -33.69,16.09 -4,1.85 -6.95,3.12 -12.05,5.14 -5.34,2.11 -8.37,0.12 -12.14,-0.54 -7.86,-1.4 -26.23,-9 -28.4,-10.81 5.79,-3.91 10.72,-7.43 15.85,-10.64 z m -20.28,-1.15 c -1.45,-3.4 -2.92,-6.79 -4.72,-11 5.27,-3.17 10.09,-6.58 15.38,-9 1.76,-0.8 5.33,0.36 7,1.85 2,1.79 3.2,4.77 3.85,7.45 0.34,1.38 -0.81,3.91 -2.07,4.76 -4.27,2.87 -9,5 -13.3,7.84 -3.3,2.26 -4.86,1.13 -6.14,-1.89 z M 582.39,385 c 6.39,3.36 12.17,2.75 18.43,-0.68 2.27,-1.24 7.28,-0.07 9.59,1.79 8.44,6.81 16.28,14.37 25.29,22.51 -6,6.08 -11.8,11.7 -17.15,17.74 -1,1.12 -0.94,4.72 0.09,5.83 3.41,3.7 7.52,6.77 11.32,10.12 5.61,5 11.2,9.95 17.09,15.19 l -11,13.55 c -9.16,-6.24 -18.27,-12.54 -27.48,-18.67 -12.77,-8.5 -25.45,-17.15 -38.55,-25.12 -3.76,-2.29 -3.51,-4.57 -2.37,-7.36 4.76,-11.54 9.73,-23.03 14.74,-34.9 z m -8.12,-10.42 c 2.8,-2.75 8.74,-4.6 22.49,3.45 -3.67,3.89 -9.86,3.21 -22.49,-3.41 z m 338.87,166.58 c 2.42,2.62 4.53,5.52 7.35,9 -9.15,0.55 -17.71,1.12 -26.27,1.52 -0.87,0 -1.88,-0.77 -2.67,-1.39 -5.23,-4.13 -10.68,-7.19 -17.61,-8.35 -4.55,-0.77 -8.92,-4.21 -12.75,-7.24 -14.35,-11.36 -28.45,-23 -42.7,-34.62 a 1.42,1.42 0 0 1 -0.3,-1.84 c 1.57,-2.53 2.25,-4.74 -1.7,-6.8 -3.28,-1.71 -2.46,-7.09 1.09,-9.11 1.69,-0.95 3.62,-1.52 5.22,-2.6 6.6,-4.46 12.93,-4 19.69,0 10.19,6 20.66,11.54 31,17.28 9.8,5.44 19.69,10.71 29.32,16.45 1.72,1 3.71,4.38 3.21,5.88 -3.02,9.23 1.39,15.66 7.12,21.82 z m 40.68,33.08 a 17.27,17.27 0 0 0 2.52,5.54 q 17.79,22.44 35.82,44.68 c 6,7.43 12.41,14.59 18.51,22 1.18,1.42 1.82,3.31 2.7,5 a 0.68,0.68 0 0 1 -1.12,0.74 c -4.51,-5.33 -9.1,-10.61 -13.52,-16 -8.91,-10.87 -17.7,-21.83 -26.59,-32.71 q -13,-15.93 -26.09,-31.79 c -5.69,-6.88 -11.53,-13.65 -17.18,-20.57 -5.45,-6.69 -11.11,-13.27 -15.91,-20.41 -1.68,-2.49 -1.08,-6.51 -1.51,-9.83 l 1.42,-1.26 c 6.72,3.55 13.22,7.63 20.22,10.52 10.15,4.19 12.53,14.74 19.08,21.84 2.45,2.67 5.62,5.51 2.79,10.65 a 16.33,16.33 0 0 0 -1.14,11.6 z m 7.34,-6 a 3.38,3.38 0 0 1 1,-1.53 5.37,5.37 0 0 1 3.63,-0.41 c 3.24,1.07 5.37,1.27 8.26,2.83 3.06,1.65 5.37,3.54 5.66,5.76 0.47,3.55 -3.57,4.57 -10,2.09 -6.43,-2.48 -9.64,-5.8 -8.55,-8.78 z m 265,382.08 c 3.69,3.9 6.18,8.94 10,12.69 7.08,7 6.66,15.15 5.14,23.76 -0.71,4.06 -1.42,8.13 -2.19,12.58 -7.6,-8.14 -42,-43.4 -48,-49.27 -7.82,-7.61 -15.88,-15 -23.66,-22.65 -11.11,-10.92 -22,-22.06 -33.11,-33 -4.59,-4.53 -9.34,-8.93 -14.24,-13.13 -4.45,-3.81 -4.82,-8.9 -5.36,-14.11 -1.17,-11.25 -2.48,-22.49 -3.74,-33.8 9.63,3.21 19.08,6.3 28.48,9.53 5.65,2 11.08,4.92 16.87,6 7.24,1.32 11.12,6.38 15.15,11.27 17.54,21.3 35.1,42.6 52,64.43 2.2,2.85 1.1,8.91 0.29,13.25 -0.88,4.67 -1.26,8.52 2.41,12.41 z m -328.88,-19 c -4.25,-4.54 -8.31,-9.48 -13.34,-13 -2.58,-1.81 -7.34,-1.87 -10.63,-1 -3.75,1 -7.79,3.29 -7.77,8.49 0,3.84 0,7.68 0,12 -2.52,-2.07 -4.58,-4 -6.84,-5.58 -7.93,-5.7 -7.12,-11.91 -5.75,-21.77 1.54,-11 1.42,-20 2.54,-29.91 0.2,-1.77 -1.08,-4.17 -2.42,-5.57 -5.31,-5.55 -36.12,-38.42 -40.52,-42.89 9.16,-0.46 18.51,-1.07 27.88,-1.28 1.68,0 3.72,1.2 5,2.43 13.32,12.43 26.52,25 39.77,37.5 q 18.76,17.71 37.58,35.37 c 9.83,9.2 19.77,18.28 29.6,27.48 7,6.56 13.94,13.21 21.94,20.81 -2.91,0.31 -4.22,0.51 -5.53,0.57 -16.72,0.75 -33.44,1.36 -50.15,2.28 -7.2,0.39 -14.36,1.48 -21.56,2.11 -6.68,0.58 -13.29,0.75 -15.8,-7.74 8.37,3 10.19,-1.56 16.54,-9.15 2.81,-3.25 2.78,-7.71 -0.5,-11.21 z m -47.14,-49.79 a 89.18,89.18 0 0 1 -1,15 c -0.69,4.59 -0.33,6.73 -4.51,7.33 -7.8,1.11 -15.62,2.12 -24.66,3.33 1,-17.08 1.78,-37.59 2.78,-54.19 9.09,8 18.32,19.36 27.43,28.47 z m -118.4,-19 c 0.9,0.84 1.94,1.6 3,2.39 12.47,9.44 24.84,19 38,29.15 -5.66,5.41 -10.79,10.58 -16.29,15.32 -1,0.88 -4.13,0.77 -5.26,-0.14 -15.13,-12.26 -30.09,-24.75 -45.11,-37.16 a 35.43,35.43 0 0 0 -3.76,-2.23 c 5.3,-1.13 24.68,-6 29.46,-7.4 z m -43.67,-4.09 c -2,-1.61 -4,-3.1 -5.16,-4 12,-12.58 36.82,-39.11 38.37,-40.55 3.18,-2.94 6.33,-3.49 9.5,0.25 1.61,1.9 3.63,3.47 6.23,5.92 -2.49,11.19 -8,36 -8,36.43 -9.13,2.2 -16.62,4.56 -24.73,6.31 -7.42,1.59 -11.43,-0.52 -16.17,-4.43 z m 60.65,9 c -3.68,-2.88 -7.43,-5.7 -10.9,-8.82 a 5.48,5.48 0 0 1 -1.73,-4.2 c 1.82,-9.61 3.94,-19.17 6,-29.1 l 54.41,42.93 c -6.6,7.17 -13,14.09 -19.58,21.24 -9.54,-7.63 -18.86,-14.89 -28.16,-22.17 z m -23.44,-77.58 23.8,-5.74 c 3.44,0 11.61,9.09 17.22,14.73 7.8,7.83 11.31,12.75 19.62,20.07 1.61,1.42 22.9,21.34 27.93,26.4 3.29,3.31 4.08,8.89 1.85,15.83 z m 145.9,-39.18 c -0.12,-0.92 1.25,-2.29 2.24,-3.07 4.52,-3.55 9.14,-7 13.77,-10.42 1,-0.74 2.27,-2 3.21,-1.8 8.9,1.53 14.11,-5.14 20.69,-8.83 a 5.18,5.18 0 0 1 4.61,0.16 c 12,9.16 23.91,18.52 35.83,27.83 12.35,9.65 24.74,19.22 37,28.94 14,11.07 27.83,22.32 41.84,33.37 4.21,3.32 8.76,6.22 14,9.92 -6,4.19 -11.49,7.75 -16.67,11.65 -2.41,1.82 -33.71,25.83 -37.53,28.92 -3.39,2.73 -6.46,5.84 -9.81,8.61 -7.17,5.94 -10.68,14 -13.71,22.49 -0.83,2.3 -2.11,4.43 -4,8.3 -5.91,-6.38 -10.94,-12.33 -16.5,-17.72 -13.85,-13.44 -28,-26.6 -41.92,-39.94 -6.13,-5.87 -13.23,-11.18 -17.81,-18.12 -4.15,-6.26 -9.44,-7.43 -15.44,-7.73 -9.74,-0.49 -17.18,-4.72 -24.07,-11.39 -20,-19.39 -40.43,-38.42 -60.72,-57.55 a 57.05,57.05 0 0 0 -7.87,-6.64 c -1.69,-1.1 -4.07,-1.16 -7.06,-1.92 l -6.65,-15.83 c 8,7.19 16.23,14.23 24.19,21.51 10.6,9.72 21.05,19.6 31.6,29.36 3.22,3 6.5,5.91 9.91,8.66 3.11,2.5 11.57,0.41 13,-3.32 a 54.54,54.54 0 0 1 22.63,-27.09 c 2.93,-1.86 5.83,-4.15 5.28,-8.47 z m 87.87,160.09 C 958.54,911.82 958,913 957,915 l -90.27,-85.2 c 9,-0.82 13.78,4.94 18.6,9.36 10.52,9.64 20.26,20.13 30.45,30.15 13.53,13.3 42.29,40.69 43.31,41.34 z m -17.17,61.94 c 19.49,-1.45 39,-2.85 58.47,-4.4 5.79,-0.46 10.82,0.39 15.48,4.42 13.65,11.82 27.64,23.25 41.4,34.95 13.29,11.3 26.4,22.84 39.71,34.13 13.31,11.29 26.58,22.24 39.88,33.34 2.11,1.75 4.27,3.44 6.4,5.15 -0.23,0.57 -0.45,1.13 -0.68,1.69 l -12.68,3.29 c -8.13,2.1 -16.58,3.42 -24.32,6.5 -8.69,3.45 -15.6,0.89 -22.69,-3.49 -6.4,-4 -12.63,-8.4 -19.48,-11.32 -2.79,-1.18 -7.11,0.85 -10.62,1.82 -6.7,1.86 -13.23,5.06 -20,5.67 -4.27,0.38 -9.1,-2.51 -13.26,-4.71 -16.59,-8.75 -33,-17.83 -49.5,-26.74 -11,-5.92 -22.06,-11.67 -33,-17.72 a 7.57,7.57 0 0 1 -3.16,-4.53 86.76,86.76 0 0 1 -2.06,-13.79 c -0.09,-1.44 -5.16,-40.65 -5.55,-43.15 5.31,-0.49 10.5,-0.82 15.7,-1.23 z m 189.37,65.71 c -6.21,0.13 -9,3.51 -12.27,7.51 -3.09,-2.34 -6.4,-4.78 -9.61,-7.35 a 4.41,4.41 0 0 1 -1.73,-2.52 c -1.7,-17.1 -13.77,-26.39 -26.4,-35.28 a 13.12,13.12 0 0 1 -1.59,-1.79 c 5.83,-6.52 10.78,-12.71 17,-21.09 a 12.45,12.45 0 0 0 1.37,-7.47 c -0.83,-4.51 -2.63,-8.84 -4.13,-13.58 -1,-4.28 4.11,-4.65 5.12,-1.09 2,6.15 3.81,12.35 6.21,18.3 a 3.84,3.84 0 0 0 2.09,1.67 2.66,2.66 0 0 0 3.66,-1.74 5,5 0 0 0 0.18,-2.57 c -1.16,-4.46 -3,-8.75 -4.63,-13.38 6.79,-5.44 13.57,-11 20.57,-16.34 1.23,-0.92 3.44,-1.08 5.08,-0.82 5.46,0.86 10.84,2.28 16.31,3 a 3.28,3.28 0 0 0 2.12,-0.83 2.69,2.69 0 0 0 0.72,-3.58 4,4 0 0 0 -1.81,-1.85 c -5.74,-1.92 -11.69,-3.23 -17.48,-5 -1.54,-0.47 -5.06,-0.57 -4.14,-2.93 l 0.46,-0.72 a 1.92,1.92 0 0 1 2.1,-0.8 c 5.22,1.43 10.52,2.63 15.58,4.5 5.86,2.15 8.6,-2.07 12.59,-6 17.2,18.18 34.08,36 51.05,54 -5.51,3.37 -12.61,7.5 -19.48,12 -4.19,2.75 -38,34.27 -41.54,38.78 -4.65,5.66 -11.16,6.71 -17.36,6.85 z m 99.3,-34.42 c 0.57,2.76 4.26,8.06 3.2,9.07 -3.78,3.64 -26.76,18.27 -35.53,24.8 a 1.69,1.69 0 0 1 -2.59,-0.79 c -1.29,-3.43 -3.37,-6.26 0.79,-9.88 1.85,-1.6 3.55,-3 5.15,-4.25 0.04,-0.12 25.48,-16.03 29.02,-19.07 z m -70.91,48.4 c 3.78,-3.88 22.85,-12.11 27,-15.68 0.5,0.17 3.76,9 4.26,9.21 -1.09,3.28 -9.63,11.7 -12.05,13.22 -0.37,0.23 -20.59,4.71 -23.54,5.35 -0.73,-3.65 0.8,-6.86 4.37,-12.22 z m 12.56,15.14 c 2.18,0.25 15.63,10.46 22.67,15.7 a 2.52,2.52 0 0 1 0.3,3.76 v 0 a 1.19,1.19 0 0 1 -1.39,0.26 c -10,-4.8 -22.88,-11.32 -34,-16.65 3.76,-0.92 10.45,-3.42 12.46,-3.19 z m 11.73,-0.2 23.55,-26.59 27.59,32.75 c -1.47,4.35 -3.42,8.5 -4.18,12.86 -0.69,4 -2.52,4.87 -6.14,5.26 -6.79,0.74 -11.59,-2.38 -16.57,-6.38 -7.91,-6.52 -16.37,-12.24 -24.18,-18.02 z m 30.36,-32.67 24.68,-14.08 c 14.16,8.48 25,31.24 20.6,43.2 l -17.67,3.75 z m -64.1,-115.37 a 3.19,3.19 0 0 1 0.75,1.54 3.86,3.86 0 0 1 -3.55,4.74 3,3 0 0 1 -0.91,-0.11 c -6.27,-1.93 -12.38,-4.37 -18.64,-6.33 -1,-0.32 -2.74,0.52 -3.75,1.31 -10.25,7.93 -19.93,16.74 -30.77,23.74 -9.18,5.93 -9.24,12.62 -5.46,21.11 1.14,2.58 2.21,5.19 2.74,6.43 l -19,21.69 c -3.81,-4.11 -7.83,-9.48 -12.89,-13.55 -3.29,-2.63 -8,-4 -12.26,-4.75 -4.44,-0.78 -9.14,0.09 -13.7,-0.22 a 17.18,17.18 0 0 1 -6.94,-2.1 c -5.25,-2.92 -6.57,-9 -10.18,-13.32 -3.61,-4.32 -7.69,-7.33 -14,-6.71 -5.73,0.56 -12.08,-6.71 -11.84,-12.28 0.09,-1.91 0.12,-4.5 -1,-5.67 -6.75,-7.17 -13.83,-14 -21.47,-21.63 2.87,-5.74 6.49,-12.51 9.67,-19.47 4.51,-9.89 13.49,-15.16 21.49,-21.45 11.45,-9 23,-17.92 34.51,-26.85 4.69,-3.64 9.41,-7.23 14.14,-10.82 2.93,-2.22 5.49,-1.48 8.25,0.66 13.93,10.8 27.95,21.47 41.94,32.2 a 10,10 0 0 1 0.78,0.68 c 17.43,16.86 34.9,33.86 52.13,51.04 z m -52.55,-59.95 a 57.62,57.62 0 0 1 -6.43,-3.73 q -24.8,-19.12 -49.5,-38.4 -32.6,-25.4 -65.15,-50.85 c -7.94,-6.19 -16.51,-11.73 -23.64,-18.75 -3.1,-3 -4.23,-10.21 -4.63,-13.81 a 0.7,0.7 0 0 1 1.1,-0.64 c 4.25,3 8.53,6 12.74,9 0.55,0.4 18.94,15 21.22,16.76 5.3,4 10.07,9 15.86,12.1 4.53,2.41 10.26,2.6 15.48,3.66 11.24,2.29 22.5,4.47 33.73,6.82 1.29,0.27 2.43,1.33 4.2,2.35 -3.13,0.74 -5.78,0.92 -8,2 -3.86,1.9 -4.72,6.28 -2.12,8.62 a 142.12,142.12 0 0 0 20.55,15.29 c 6.27,3.86 10.2,-1.91 14.62,-5.45 1.21,0.65 13.31,10.32 14.64,10.6 0.17,0 0.35,0.05 0.53,0.08 1.52,13.5 3.19,27 4.77,40.48 0.17,0.95 0.07,2.04 0.07,3.75 z m -102.09,-135.21 -14.06,5.93 -43.81,-37 c 0.06,-0.46 0.13,-0.91 0.2,-1.37 6.74,0.87 18.47,2.64 23.51,3.25 z m -32.07,-34.36 c 0.3,-5.08 1.58,-10.18 2.59,-16.32 l 49.27,42.32 -10.91,4.6 -2.08,0.89 z m 61.13,79.61 c -24.43,-2 -28,-12.71 -40.55,-22.43 5,0.83 10,1.57 15,2.52 4.31,0.82 19.23,2.49 25.74,3.2 -0.04,5.63 0.3,11.38 -0.19,16.71 z m -67.88,-81.65 c -14.09,-3.12 -30,1.51 -39.25,-13.86 7,-3 10.38,-4.7 21.25,-9.27 9.26,-3.89 16,-5 22.22,5.38 -1.21,5.08 -2.71,11.42 -4.22,17.75 z m 17.46,49.76 c 0.3,1.89 0.62,4.37 0,4 -5.16,-3.6 -41.45,-28.88 -47.16,-33.28 -7.12,-5.48 -14.37,-13.22 -21.83,-18.19 a 77,77 0 0 1 -13.05,-10.76 c 0.58,-2 1.61,-5.42 3,-10.12 z m 82.41,38.84 c -5.14,-3.38 -11.95,-3.16 -18.06,-5 a 57.28,57.28 0 0 0 -6.85,-1.29 c 0,-9.25 -0.16,-19.37 0.16,-28.38 0.05,-1.43 2,-3.27 3.55,-4.1 7.88,-4.32 15.84,-8.51 23.95,-12.37 1.43,-0.68 4.47,-0.3 5.45,0.79 6.66,7.37 13.66,14.61 19.13,22.84 2.79,4.2 3.13,10.3 3.76,15.64 1.51,13 2.63,26 4,38.95 -10.53,-8.64 -26.39,-21.37 -35.09,-27.08 z m -28.78,-44.09 c -4.5,1.94 -4,4.4 -3.59,7.58 0.27,2.09 0.72,4.18 1.11,6.27 -9.7,-1.61 -28.1,-3.34 -36.52,-4.93 8.28,-3.95 15.1,-7.33 22,-10.5 8.29,-3.8 16.67,-7.37 25,-11.16 a 4.53,4.53 0 0 0 2.31,-2.53 c 0.19,-0.7 -0.7,-2 -1.45,-2.6 -6.82,-5.54 -13.85,-10.83 -20.56,-16.49 -14.94,-12.58 -29.74,-25.33 -44.57,-38 -5.92,-5.07 -11.65,-10.36 -17.74,-15.21 -1.58,-1.25 -4.62,-2.28 -6.24,-1.6 -15.32,6.41 -30.46,13.24 -45.7,19.86 -1.51,0.66 -3.3,0.68 -5.26,1.06 3,-13 5.91,-24.93 8.4,-37 a 5.29,5.29 0 0 0 -0.36,-2.72 2.72,2.72 0 0 0 -4.33,-1.2 4.5,4.5 0 0 0 -1.51,2 c -4.69,15.75 -9,31.6 -13.49,47.41 -0.89,3.16 -3.35,6.82 -2.46,9.3 1,2.68 5,4.26 7.52,6.16 l 3.33,2.48 v 0 a 97.42,97.42 0 0 1 7.73,6.05 c 10.27,8.08 25.83,20.26 32,24.06 6.68,4.08 6.56,9.74 7.06,17.29 -10.49,-8.25 -41.83,-34.3 -42.17,-34.57 -5.37,-4.28 -10.45,-8.92 -15.89,-13.09 -4.79,-3.66 -9.93,-6.87 -15,-10.22 -2.13,-1.43 -3,-2.7 -2.09,-5.68 5.55,-19.25 10.72,-38.6 16,-57.92 1.8,-6.55 11.94,-47.34 15.2,-56.17 a 6.15,6.15 0 0 1 4.5,-3.23 c 7.13,-0.35 14.29,-0.3 21.43,-0.05 a 7.79,7.79 0 0 1 5.12,2.23 c 5.83,6.65 11.42,13.52 17,20.39 8.74,10.78 17.37,21.65 26.11,32.43 5.45,6.72 28.74,34.89 31.58,38.25 q 10.91,12.8 21.56,25.8 c 7.08,8.65 14,17.42 21.07,26.08 4,4.87 8.11,9.62 12.44,14.74 -10.19,5.45 -19.57,11.12 -29.54,15.43 z M 855.18,627.36 c -6.38,-8.79 -11.74,-18.63 -23.2,-23.52 L 840.93,585 c 9.15,6.19 23.9,14.93 32.32,20.28 0.54,0.34 1.15,0.87 1.8,1.39 q -7.95,26.54 -15.83,53.09 c -1.06,3.58 -1.62,7.31 -2.48,11.27 -8.26,-4.71 -3.49,-11 -3,-16.32 0.64,-6.72 3,-13.27 3.89,-20 0.37,-2.33 -0.98,-5.32 -2.45,-7.35 z M 737.59,502.65 c 10.23,8.86 20.51,17.7 31.32,25.82 2.38,1.79 7.19,1.58 10.43,0.67 4,-1.12 6.74,-1.17 9.66,2.1 3.6,4 7.42,7.32 8.31,13.54 0.58,4 4.39,8.05 7.65,11.11 7.66,7.15 15.88,13.71 23.83,20.56 0.69,0.6 1.65,1.76 1.48,2.37 -1.69,5.93 -3.6,11.79 -5.7,18.46 L 631.13,435.12 c 8.35,-0.57 15.3,-1.42 22.23,-1.31 2.29,0 4.73,2.29 6.76,3.95 12.72,10.4 25.34,20.92 38,31.41 2.65,2.19 5.72,4.07 7.78,6.73 5.29,6.83 12.54,7 19.76,5.9 6.75,-1 8.92,4.39 12.25,7.78 1.05,1.07 -1,4.91 -1.16,7.52 -0.15,1.9 -0.26,4.6 0.84,5.55 z m 24,-24.27 q 21.52,17.76 43.87,36.16 a 0.32,0.32 0 0 1 -0.28,0.56 c -2.53,-0.6 -4.73,-1.65 -5.79,-1.07 -8.17,4.47 -12.28,-2 -17.26,-6.06 -5.6,-4.54 -10.93,-9.42 -16.66,-13.78 -2.79,-2.12 -4.78,-3.75 -3.46,-7.75 0.68,-2.02 -0.15,-4.53 -0.4,-8.06 z m 51.14,55.36 c 0,6.25 2.68,10.67 7.81,14.42 a 79.11,79.11 0 0 1 15.2,14 c 1.65,2.06 0.92,6 0.91,9.44 a 1.39,1.39 0 0 1 -2.3,1.06 c -5.63,-5 -11.22,-10.06 -16.93,-15 a 88.15,88.15 0 0 0 -10.62,-8.32 c -4.31,-2.68 -4.44,-7.18 -4.69,-10.94 -0.36,-5.26 -3.64,-7.55 -7,-10.22 -1.38,-1.09 -2.66,-2.31 -4.06,-3.54 2.89,-1 5.33,-1.87 7.8,-2.67 a 5.91,5.91 0 0 1 2.12,-0.32 c 2.9,0.14 11.78,9.14 11.78,12.09 z m -4.41,-16.83 c 4.37,3.56 8.78,7.06 13.11,10.67 7.09,5.9 13.9,12.15 21.24,17.71 5.65,4.27 3.16,9.41 1.42,14.57 -4.88,-4 -9.25,-7.63 -13.64,-11.22 -1.25,-1 -2.63,-1.89 -3.82,-3 -3.83,-3.51 -7.84,-6.44 -7.64,-12.95 0.1,-3.21 -3.39,-6.73 -5.73,-9.75 a 34.2,34.2 0 0 0 -5.57,-5.3 c -0.69,-0.64 0.16,-1.13 0.65,-0.73 z M 656.86,465.42 c 15.37,12.9 30.49,26.1 45.86,39 14.23,11.94 28.72,23.57 43,35.44 3.35,2.78 10.13,8.08 14.81,12.64 a 0.69,0.69 0 0 1 -0.87,1.07 c -37,-24.7 -79.4,-52.9 -116.2,-77.48 2.9,-3.72 5.55,-7.52 8.7,-10.86 0.74,-0.77 3.71,-0.65 4.7,0.19 z M 694,517.24 c 15.39,10.22 30.67,20.62 45.91,31 16.73,11.45 33.34,23.07 50.08,34.51 7,4.75 14.09,9.22 21.29,13.9 l -9.74,25.92 C 791.78,616.03 782.09,609.45 772.31,603 752.39,589.89 732.4,576.89 712.53,563.69 a 11.23,11.23 0 0 1 -4.13,-5.16 c -4,-11.09 -7.38,-22.41 -11.7,-33.37 -1.4,-3.48 -10.8,-13.3 -2.7,-7.92 z m 113.15,118.13 c 3.56,-9.35 6.71,-18.85 10,-28.3 0.47,-1.33 1,-2.64 1.76,-4.53 l 22.14,15.32 c -3.42,11.3 -6.54,21.62 -9.64,31.85 -1.22,-0.15 -11.46,-6.15 -24.49,-13.94 a 3,3 0 0 0 0.23,-0.4 z M 803.6,479.92 c -1.18,-0.14 -3.62,0.48 -3.57,1.48 0.1,1.78 0.49,3.94 1.62,5.2 2.28,2.54 5.2,4.48 7.68,6.85 2.48,2.37 5.33,4 3.68,8.49 -0.48,1.3 1.63,3.48 3,4.65 15.08,12.32 30.07,24.77 45.55,36.57 4,3.07 9.83,3.69 14.54,6 a 103.63,103.63 0 0 1 13.13,8.06 c 0.61,0.42 0.25,2.74 -0.15,4 -2.54,8.19 -5.33,16.29 -7.81,24.5 -1.16,3.84 -2.3,7.69 -3.46,11.54 -0.17,-0.11 -0.33,-0.22 -0.51,-0.32 -8.53,-4.9 -23.2,-13.58 -31.53,-19 2.71,-6.7 5.41,-13.31 8.07,-19.94 1.05,-2.62 -2.14,-12.93 -4.3,-14.75 -10.24,-8.63 -20.37,-17.37 -30.62,-26 -8.86,-7.43 -17.8,-14.76 -26.73,-22.09 -9.48,-7.78 -19,-15.5 -28.49,-23.27 -5,-4.11 -10,-8.25 -15.57,-12.82 l 7.72,-26.67 69.76,38 c -7.69,3.93 -12.96,10.6 -22.01,9.52 z m -55.14,-2.71 a 11.42,11.42 0 0 1 4.61,4.11 c 1.23,2.19 3.1,5.89 2.2,7.08 -4.71,6.32 0.58,8.93 4,11.88 7.6,6.57 15.52,12.78 23.67,19.44 -7.87,5.85 -11.94,-1 -16.68,-4.63 -6.55,-5.05 -12.86,-10.42 -19.07,-15.88 -1.31,-1.15 -2.66,-3.42 -2.44,-4.95 1.07,-7.43 -2,-12.09 -8.65,-14.87 a 5,5 0 0 1 -1.56,-1.5 3.73,3.73 0 0 1 -0.44,-1 c 4.36,-2.57 10.19,-1.95 14.36,0.32 z m -10.11,-9.47 c -4.94,0.38 -7.71,-1 -13,-7.29 12.05,-3.78 13.24,-1.48 22.59,7.24 -2.82,0 -6.22,-0.21 -9.59,0.05 z m 6,-44.18 c -0.52,0.89 -6.63,23.72 -7.43,26.47 -0.8,2.75 -13.44,4.4 -15.09,4.4 a 6.92,6.92 0 0 1 -6.32,-5.78 v -1.23 c 0.27,-1.52 11,-32.62 12.65,-32.61 1.65,0.01 16.75,7.86 16.24,8.75 z m -20.64,47 a 17.63,17.63 0 0 1 1.74,1.93 c -9.08,5.23 -13.16,-3.1 -18.41,-6.84 -7.55,-5.38 -14.24,-12 -21.31,-18.07 8.2,-3.71 12.82,2.34 18,6.38 6.85,5.32 13.39,11.04 20.03,16.58 z M 709,405.75 c -1.1,3 -9.9,27.69 -12.38,31.18 -2.48,3.49 -12.81,4.52 -14.14,4.57 -1.91,0.07 -4.94,-3.78 -5.66,-4.57 -1.17,-1.29 19.8,-36.46 21.45,-37.68 1.65,-1.22 11.79,3.55 10.73,6.5 z m -24.75,-11 c -0.83,1.1 -23.05,27.65 -24,28.81 -0.95,1.16 -0.6,1.88 -2.53,1.74 -1.93,-0.14 -22.94,0.42 -26.51,0 -2.13,-0.25 37.13,-36.87 38.23,-37.15 1.1,-0.28 15.56,5.5 14.77,6.6 z m -84.83,81 31.45,7.48 c 31.2,13.77 38.84,18.77 46.19,25.41 8.44,7.61 13.84,16.75 15.94,24.5 2.52,9.31 6.26,18.28 8.81,27.58 1.57,5.73 5.85,8.32 10.14,11.12 17.56,11.47 35.19,22.84 52.78,34.26 10.37,6.74 20.8,13.4 31,20.33 1.71,1.16 4,2.37 3.76,4.92 -23.45,-14.05 -51.69,-30.77 -54.46,-31.27 -3.07,-0.55 -4.74,-0.73 -11,1.84 -6.26,2.57 -30.53,15.65 -34.91,20.7 -0.42,0.49 -4.15,8.8 -1.77,12.1 8.05,11.18 27.71,32.86 34.4,41.49 a 1,1 0 0 1 -0.59,1.62 11.64,11.64 0 0 0 -1.32,0.35 c -3.23,1.1 -5.08,0.4 -7.15,-1.82 -16.34,-17.49 -32.66,-35 -49.14,-52.37 -7.24,-7.63 -14.81,-14.94 -22.3,-22.34 a 6.11,6.11 0 0 0 -3.11,-1.82 c -29.52,-2.53 -41.79,-4 -62.71,-5.67 a 3.79,3.79 0 0 1 -2.38,-0.76 c -5.12,-5.79 -28.43,-32.82 -42.29,-48.15 -7.07,-8.93 -8.34,-17.12 -8.34,-25.36 5.91,-0.53 14.64,-0.49 20.55,-0.84 8.53,-0.5 14.43,-0.53 22.71,-2.21 5.45,-1.1 10.55,-4.86 14.76,-8.93 8,-7.66 8.94,-8.52 9,-16.6 0.09,-4.84 -0.06,-9.74 -0.06,-15.52 z M 740,683.91 c 1.63,-0.48 2.33,-1 2.19,-2.65 a 5.41,5.41 0 0 0 -0.7,-1.82 c -2.29,-4.1 -5.06,-5.76 -11.35,-13.8 -6.54,-8.36 -28.91,-33.12 -28.17,-36.51 0.74,-3.39 34.89,-24.64 39.63,-23 4.74,1.64 76.54,43.29 88.12,52.35 l 0.21,0.16 c 9,7.12 18.06,14.16 27.06,21.29 10.45,8.27 20.91,16.53 31.2,25 5.61,4.62 10.86,9.66 16.32,14.55 -4.84,2.89 -9.06,7.52 -16.73,7 -2.82,-0.19 -6,2.71 -8.78,4.61 a 112.44,112.44 0 0 0 -13.29,10.12 c -2.13,2 -2.71,5.58 -4.58,8 a 55.46,55.46 0 0 1 -8.34,8.71 c -3.21,2.64 -6.13,4.87 -7.42,9.4 -1.29,4.53 -4.54,8.75 -6.91,13.1 -1.65,3 -3.61,2.33 -5.61,0.47 -7.8,-7.29 -15.52,-14.68 -23.39,-21.91 -9.6,-8.82 -19.38,-17.45 -28.95,-26.3 -5,-4.65 -10.37,-9.15 -14.46,-14.56 -2.26,-3 -5.63,-11.69 -9.36,-11.18 a 4,4 0 0 0 -0.66,0.14 c -19.17,5.44 -37.9,10.7 -56.59,16.1 a 59.43,59.43 0 0 0 -11.91,4.4 c -4.19,2.27 -6.17,6.26 -6.29,11.25 -0.1,3.95 -0.83,7.88 -1.37,12.54 -6.45,-6.36 -13,-12.12 -18.56,-18.72 -1.67,-2 -1,-6.29 -0.75,-9.48 A 61.83,61.83 0 0 1 662.71,711 c 0.5,-1.75 2.14,-3.94 3.75,-4.48 11.69,-3.92 23.49,-7.52 35.29,-11.11 12.31,-3.73 37.34,-11.2 38.25,-11.5 z M 670.59,751 c 6.2,7.45 12.79,7.45 21.15,5.64 22.74,-5 45.61,-9.35 68.46,-13.75 a 1.64,1.64 0 0 1 1,0.16 3.41,3.41 0 0 1 1.12,5.38 1.59,1.59 0 0 1 -0.81,0.53 c -11.08,2.86 -22.26,5.35 -33.38,8 -10.23,2.47 -20.42,5.15 -30.67,7.59 -17.39,4.14 -34.82,8.14 -52.22,12.23 -3,0.7 -5.88,1.66 -8.74,2.42 -8.91,2.34 -11.57,0.67 -15.91,-4.81 -6.27,-7.93 -13,-15.53 -19.55,-23.35 13,-4.42 26,-8.43 38.69,-13.29 6,-2.3 5.88,-6.21 1.14,-10.39 C 632.79,720.32 625,713 617,705.86 c -14.27,-12.57 -28.69,-25 -43,-37.54 -8.17,-7.21 -16.07,-14.73 -24.24,-21.94 -14.26,-12.58 -28.69,-25 -42.94,-37.55 -8.45,-7.46 -16.68,-15.15 -25,-22.74 l -7.64,-7 c 10.88,-4.49 21.61,-9.06 32.49,-13.23 1.3,-0.5 4,0.69 5.09,1.94 9.68,11.21 19.08,22.67 28.7,33.93 7.77,9.09 15.85,17.91 23.59,27 13.45,15.83 26.72,31.81 40.17,47.63 a 6.78,6.78 0 0 0 4.5,2.36 c 5.11,-0.07 6.47,3.42 7.07,7.19 1.06,6.74 6.63,12.17 13.43,14.1 2.21,0.64 4.74,4 5.13,6.49 1,6.52 4.83,11.18 8.95,15.62 9.01,9.74 18.85,18.71 27.29,28.88 z M 515.23,715 a 0.49,0.49 0 0 1 -0.81,0.44 l -46.07,-43.75 c -1.58,-1.05 5.21,-0.56 10.25,-0.41 7.88,0.24 9.33,0.35 11.94,3.05 5.41,5.61 11.64,10.76 17.38,16.27 5.15,4.94 13.77,8.6 6.89,18.45 -0.91,1.34 -0.07,3.26 0.42,5.95 z m -15.48,-47.58 c -3.63,-3.19 -6.55,-8.26 -15.94,-3.11 -1.82,1 -6.78,-0.63 -9.71,-1.72 a 14.59,14.59 0 0 1 -4.57,-3.5 c -3.57,-3.73 -2.94,-10.64 1.47,-15 0.44,0.11 2.86,1.21 3.13,1.8 2.83,6.3 8.86,9 19.16,7.59 a 9.43,9.43 0 0 1 6.36,2.07 c 6.63,5.69 13.16,11.51 19.3,17.64 4.48,4.47 13.13,8 5,16.8 -8.37,-7.79 -16.06,-15.38 -24.2,-22.54 z m -55.31,-50.76 c -4.61,-4.57 -12.17,-8.69 -5.1,-15.57 7,6.11 11.92,10.09 19.64,16.79 4.72,4.1 15.9,9.94 7.26,18.31 a 19.21,19.21 0 0 1 -2.38,-1.57 c -6.57,-5.98 -13.29,-11.85 -19.42,-17.93 z m 13.63,32.08 c -1,3.35 -1.52,4.61 -2.93,9.6 -11,-9 -14.19,-10 -6,-21.93 10.44,7.52 10.44,7.52 8.93,12.36 z m -18.85,-13.28 c -1.56,2.93 -5,9.29 -5.81,10.34 -1.1,1.37 -79.2,32.45 -81.4,32.86 -2.2,0.41 -13.26,-14 -12.51,-15.26 1.79,-3 90.61,-41.91 93.08,-40.81 1.88,0.84 5.18,7 6.66,9.86 a 3.24,3.24 0 0 1 -0.02,3.04 z m 81.55,84.82 c 2,1.34 4.31,2.81 5.59,3.5 4.11,2.23 8.86,5.75 13.33,5 8.89,-1.47 12.78,2.73 17.46,6.62 1.45,1.21 2.62,2.7 4,4 4.85,4.6 4.41,4.6 9.85,9.69 -7.6,2.28 -13.81,8 -19.74,1.72 -7.64,-8 -10.88,-10.51 -18.87,-18 -3.69,-3.46 -8.19,-7.86 -12.21,-11.78 a 0.46542991,0.46542991 0 0 1 0.59,-0.72 z m 39.69,7.44 c -4.92,-5.29 -10.74,-7.58 -19.15,-6.51 -4,0.52 -16,-8.26 -16,-11.58 a 6.2,6.2 0 0 1 0.59,-2.46 c 1.26,-2.88 2.58,-5.71 4.09,-9 1.57,1.37 3.14,2.6 4.53,4 3.42,3.36 6.34,6.68 13.27,6.28 4.89,-0.28 10.67,-0.79 14.09,3.53 3,3.84 6.94,7.16 10.74,10.51 6.61,5.83 17.46,13.39 24.28,19.19 a 1.23,1.23 0 0 1 -0.67,2.15 c -4.49,0.54 -10.24,2.78 -13.22,1.08 -7.01,-4.04 -17.2,-11.41 -22.55,-17.16 z m 9.65,-18.81 c -3.86,-3.09 -8.94,-6.61 -14,-6.68 -8,-0.11 -12.11,-3.79 -17.25,-7.12 -4.17,-2.7 -4,-5.61 -2.35,-9.89 1.29,-3.41 1.75,-8.28 -0.42,-10.49 -9.77,-10 -20.39,-19.22 -30.91,-28.36 -1.12,-1 -4.7,-0.76 -7.16,-0.57 -3.46,0.28 -7.4,2 -10.17,1.41 -2.77,-0.59 -11.21,-4.84 -8.81,-11.13 2.49,-6.55 3,-10.7 -4.93,-17.49 -3.62,-3.1 -5.23,-4.41 -7.71,-6.68 -11.8,-10.75 -23.49,-21.36 -34.86,-31.89 -1.8,-1.67 -4.31,-3.69 -3.83,-5.44 1.42,-5.2 4.07,-10.22 6.6,-16.12 58.55,52 129.54,112.06 195.83,170.89 -7.36,3.42 -16.3,5.64 -23.21,8.64 -0.72,0.32 -2.2,-0.56 -3,-1.24 -8.84,-7.75 -24.75,-20.56 -33.82,-27.81 z M 419.93,556 c 5.84,-2.62 -4.67,27.45 -4.67,27.45 0,0 -107,44 -108.45,43.62 -1.45,-0.38 -6.68,-3.88 -9.25,-6.22 -1.84,-1.66 0.42,-9.75 2.49,-10.62 C 307.71,607 404.12,563.05 419.93,556 Z m -104.87,82.13 c 3.5,-2.7 29.31,-14.7 56.13,-24.89 26.82,-10.19 52,-20.35 54,-20.21 2,0.14 0.76,17.05 -1.71,18.7 -2.47,1.65 -94,38.65 -95.15,38.92 -1.15,0.27 -15.01,-11.18 -13.27,-12.52 z m 205.42,196.34 c 2.77,-6.58 5.57,-13.16 8.75,-19.54 a 8,8 0 0 1 4.69,-3.67 c 19,-5 93.17,-22.74 105.18,-25.65 13.2,-3.19 26.42,-6.27 39.62,-9.45 q 26,-6.25 52.08,-12.6 c 9.73,-2.36 19.52,-4.51 29.14,-7.24 3.23,-0.91 5,-0.33 7.4,1.86 q 27.23,25.35 54.73,50.42 c 4.13,3.78 8.4,7.4 13.06,11.51 -1.35,0.86 -2,1.64 -2.72,1.68 -9.79,0.59 -19.58,1.18 -29.39,1.48 -1.25,0 -2.81,-1.29 -3.81,-2.38 -6.9,-7.53 -39.21,-38.09 -39.35,-38.29 -5.35,-7.6 -11.08,-7.45 -20,-4.48 -20.11,6.7 -41,11.08 -61.59,16.25 -10.94,2.75 -22,5.06 -32.89,7.87 a 2.84,2.84 0 0 0 -1.48,1.39 3.15,3.15 0 0 0 1,4.37 2.5,2.5 0 0 0 1.67,0.49 c 9.46,-1.93 18.87,-4.17 28.26,-6.42 13.57,-3.24 27.11,-6.59 40.68,-9.83 1,-0.24 4.92,-1.21 4,0 -1.8,1.93 -3,3.26 -4.22,4.51 q -20.67,20.7 -41.37,41.38 c -3,3 -6.12,6 -9.09,9.11 -2.63,2.74 -2.52,5.52 0.38,8 8,6.83 15.9,13.71 23.95,20.43 9.7,8.08 19.42,16.15 29.3,24 11.28,9 22.77,17.63 34.12,26.5 2.53,2 4.43,1.62 6.63,-0.6 12.79,-12.95 25.79,-25.75 38.6,-38.7 4.73,-4.79 9.23,-9.8 13.7,-14.83 1.45,-1.64 2.49,-3.66 4.74,-5.34 -0.68,13.92 -1.36,25.64 -2,39.16 -4.7,0.93 -16.06,3.15 -16.62,3.31 -6.77,1.94 -12,5 -14.65,7.41 -12.33,11.29 -18.22,16.47 -30.41,27.91 -3.55,3.34 -6.37,7.47 -10.19,12 -34.24,-17.14 -185,-98.55 -204.88,-108.3 -5.25,-2.58 -10.45,-5.26 -15.68,-7.87 -2.89,-1.4 -2.21,-3.77 -1.34,-5.85 z m 234.4,119.69 c 7.61,-7.39 15.68,-14.3 23.45,-21.52 4.82,-4.48 9,-9.8 14.33,-13.53 3.39,-2.37 8.27,-2.92 12.59,-3.58 13.33,-2 26.71,-3.75 40.07,-5.57 a 6.27,6.27 0 0 1 1.56,0.43 c 0,4.57 -0.38,7.14 -0.14,11.8 0.54,10.74 3.74,13.16 7.7,17.27 6.56,6.79 13.56,13.09 20.41,19.54 a 1,1 0 0 1 -0.63,1.7 q -29.78,1.53 -59.54,3.07 c -4.88,0.26 -9.77,0.59 -14.62,1.17 a 6.67,6.67 0 0 0 -4.09,2.07 c -2.91,3.61 -5.48,7.5 -8.72,12 -8,-3.82 -16,-7.6 -24,-11.48 -2.23,-1.09 -4.24,-2.61 -6.46,-3.7 -4.65,-2.25 -5.73,-5.97 -1.91,-9.67 z m 176.26,154.89 c 11.22,-2.92 29.09,-7 36.94,-8.88 9.23,-2.24 12.55,-4.46 14.78,-12.24 2.65,-9.25 3.08,-10.54 5.49,-16.35 l 110.57,60.77 c -13.43,6 -26.26,11.69 -39.06,17.45 -11.59,5.22 -23.24,10.31 -34.66,15.87 -6.76,3.29 -12.24,-0.64 -17.88,-2.5 -22.84,-7.54 -45.53,-15.53 -68.22,-23.49 -8.77,-3.07 -17.41,-6.51 -26.12,-9.75 -1.66,-0.62 -3.37,-1.09 -5.11,-1.64 1.7,-8.23 1.27,-11.92 7.88,-14.59 a 123,123 0 0 1 15.39,-4.65 z m 377.06,52.7 a 10.06,10.06 0 0 0 -3.59,-2.15 c -13.57,-4.47 -27.21,-8.74 -40.73,-13.36 a 22.32,22.32 0 0 1 -7.69,-4.83 c -11.23,-10.49 -22.27,-21.18 -33.76,-32.17 11,0 17.84,-7.4 25.25,-13.41 q 12.45,-10.08 24.2,-21 c 2.78,-2.59 4.53,-6.29 6.85,-9.64 7.42,6.65 14.56,13.67 22.35,19.88 13.56,10.8 22.17,25 28.57,40.63 4.1,10 12.41,15.78 19.6,22.73 6.17,6 12.83,11.42 19.79,17.56 l -28.6,25.6 c -11,-10.19 -21.59,-20.05 -32.24,-29.84 z m -79.59,-320.56 10,15.26 c -4.28,-1.67 -7.67,-3.31 -11.24,-4.2 -1.15,-0.29 -3.53,1.06 -4.06,2.24 -1,2.22 -1,4.85 -1.63,8.25 -4.21,-6.82 -8,-13 -12.05,-19.56 6.99,-0.96 13.44,5.42 18.98,-1.99 z M 1172,773.63 c 12.91,3.31 15.82,9.74 22,21.44 -7,-1.83 -39.16,-6.58 -44.93,-8 -0.94,-0.23 -2.8,0 -2.9,0.32 -0.44,1.58 -1.05,3.65 -0.38,4.89 2.3,4.24 5,8.25 7.75,12.25 5.51,8.18 9,14.57 14.4,22.79 1.47,2.21 4.23,6.82 5.89,8.83 3.25,3.92 8.14,4 12.79,4.44 3.78,0.35 7.85,0 11.21,1.43 2.88,1.19 5.26,4.12 7.3,6.72 5.38,6.83 10.48,13.88 15.59,20.91 a 5.67,5.67 0 0 1 1.19,3.4 c -0.38,5.21 -1,10.41 -1.58,16 -0.9,-0.35 -13.06,3.46 -19.9,-7.4 -8,-12.67 -18.42,-23.76 -29,-34.35 -4.56,-4.58 -12.12,-6.41 -18.56,-8.81 -14.4,-5.38 -29,-10.2 -43.38,-15.67 -1.55,-0.59 -2.56,-3.86 -2.93,-6 -1,-5.85 -1.56,-11.78 -2.15,-17.69 -1.2,-12.05 -2.32,-24.1 -3.43,-36.16 a 30.92,30.92 0 0 1 0.19,-3.95 c 6.19,1.98 64.58,12.98 70.83,14.61 z m -70.79,-70.09 18.24,24.3 c 19.46,23.31 10.68,20.25 5.8,19.74 a 14.56,14.56 0 0 1 -3.89,-0.81 c -10,-4.52 -20.18,-18.17 -26.09,-24.87 z m 0,39 c -7.61,2.94 -12.59,1.47 -17.35,-4.31 -4.14,-5 -8.66,-9.74 -13.4,-15 5.14,-1 5.3,-3.51 2.59,-6.92 q -8,-10.1 -16.09,-20.21 c 10.28,-0.4 18.92,3.8 29.83,2.31 3.85,3.37 3.85,7.68 2.13,12.47 a 56.23,56.23 0 0 0 -2.88,10.27 7.59,7.59 0 0 0 1.59,5.21 c 4.28,5.51 8.92,10.78 13.51,16.21 z M 1009.7,584.46 c 2.18,2.64 74.62,95.81 82,105.57 -4.48,3.56 -17.39,-19.64 -24.28,-20.88 -1.58,-0.28 -28.45,-4.76 -29.93,-4.51 -6.69,1.13 -52.11,-58.86 -71.8,-83.31 a 0.61,0.61 0 0 1 0.71,-0.94 c 10.86,4.22 14.36,7.68 22.52,19.41 7.89,11.35 16.2,22.4 24.44,33.5 a 3.75,3.75 0 0 0 3.18,1.3 3.6,3.6 0 0 0 1.86,-2.83 9,9 0 0 0 -1.27,-5.11 c -10.28,-13.67 -20.73,-27.21 -31.22,-40.91 0.62,-1.21 1.36,-2.62 1.59,-3.08 1.32,-2.81 -0.19,-15.25 -20.5,-21.83 -2.08,-0.67 -3.53,-4.19 -5.21,-6.45 -2.57,-3.46 -5.11,-7 -8.5,-11.59 7.84,4.32 14.71,7.93 21.4,11.84 6.35,3.71 12.43,7.88 18.79,11.57 7.4,4.36 10.98,12 16.15,18.28 z M 907.78,442.19 c 14.08,7.49 37,20.05 51.08,27.55 l -0.18,-0.17 c 9,4.38 18.08,8.53 26.9,13.21 5.62,3 5.94,8.92 6.48,14.45 0.78,7.91 1.57,15.83 2.15,23.76 0.92,12.66 1.66,25.34 2.52,38.67 -1.41,-0.6 -39,-21.8 -53.67,-31.07 -9.13,-5.76 -19.35,-9.76 -28.94,-14.82 -2.89,-1.53 -5.1,-4.33 -8,-5.93 -15.47,-8.68 -31.06,-17.15 -46.59,-25.72 -1.57,-0.86 -14,-7 -15.85,-8.17 2.65,-1.65 8.8,-3.49 14.8,-7.16 8.74,-4.21 18.19,-8.76 27.65,-13.3 1.11,-0.53 2.28,-0.94 3.37,-1.5 4.97,-2.52 11.3,-4.75 18.28,-9.8 z m -43.64,-16.46 v -5.3 l 34.44,17.74 -19.31,9.25 -21,-11.91 c 2.37,-0.92 5.55,-6.8 5.87,-9.78 z m -10.62,-8.23 c 7.05,11.35 -10,18 -18.39,19.42 -2.88,0.47 -39.46,-17.79 -56.81,-26.13 -2.55,-1.22 -1.88,-2.25 0.34,-3.17 2.87,-1.18 5.67,-2.55 8.54,-3.73 3.79,-1.56 7.54,-3.74 11.47,-4.21 a 52.35,52.35 0 0 1 12.39,-0.11 c 8.81,1.78 41.28,17.31 42.46,17.93 z M 743.14,373.83 c 20.91,7.68 75.75,18.87 64,19.77 a 25.93,25.93 0 0 0 -16.38,2.13 c -3.47,1.55 -6.88,0.23 -10.66,-0.6 A 180.89,180.89 0 0 1 741,382 c -19.59,-9.64 -38.83,-20 -58.44,-29.57 -4.13,-2 -6.34,-4.69 -8.1,-9.13 23.29,10.47 45.44,21.99 68.68,30.53 z m -83.62,-37.35 c -5.52,3.13 -6.89,1.13 -23.74,-7.4 7.95,-3.92 6.58,-1.28 23.74,7.4 z m -18.58,1.71 c 2.95,1.53 6.64,2.79 6,7.47 -0.16,1.16 1.95,3.33 3.44,3.88 5.15,1.89 10.51,3.22 15.76,4.87 5.25,1.65 11,2.93 16,5.39 15.27,7.47 30.19,15.64 45.46,23.12 a 283.26,283.26 0 0 0 29.27,12.65 c 6,2.12 11.84,3.14 19,4.51 a 0.68,0.68 0 0 1 0.21,1.25 c -3.27,1.87 -5,2.61 -5.81,4.48 -1.62,3.88 -0.52,7.89 3.8,10.14 16.21,8.45 32.31,17.13 48.68,25.24 6.44,3.19 13.5,5.07 20.5,0.82 6.08,-3.68 11.34,-1.28 16.76,1.87 4.74,2.75 9.82,4.92 15.53,7.73 l -40.84,18.85 c -1.56,-2.9 -2,-5.18 -3.34,-6 -11,-6.44 -22.08,-12.59 -33.14,-18.85 l -54.66,-31 c 1.1,-4.28 4.12,-9.37 -1.34,-12.32 -5,-2.7 -9,0.38 -12.07,4.58 -5.46,-2.92 -10.81,-5.61 -16,-8.66 -1.13,-0.67 -2.47,-3.35 -2.1,-3.81 3.34,-4.15 1.23,-7.94 -1.89,-9.67 -3.88,-2.15 -8.12,-0.84 -10.36,3.81 -0.14,0.3 -0.41,1.37 -1.13,1 L 685.4,382 c -0.87,-5.1 -0.22,-10.36 -2.38,-12.09 -4.81,-3.85 -9,0.37 -12.39,3.93 L 598.37,333 c 6.87,-1 12.83,-1.71 18.71,-2.82 6.56,-1.23 9.66,0.68 14.78,3.46 4.85,2.6 6.6,3.27 9.08,4.55 z m -50.66,-20.05 c 6,-0.49 12,-0.74 17.92,-1.16 7.52,-0.53 14.73,0.18 21.56,5.67 -4.66,0.71 -8.87,1.43 -13.1,2 -9.09,1.15 -18.18,2.37 -27.31,3.17 -1.65,0.14 -3.51,-1.49 -5.18,-2.46 -2.85,-1.66 -5.63,-3.45 -9,-5.52 5.57,-0.65 10.33,-1.3 15.11,-1.7 z m -83.53,6.61 c 16,-0.12 32,-1.21 48,-1.07 1.84,0 3.78,1 5.47,1.95 q 43.6,23.64 87.13,47.39 c 4.53,2.47 8.94,5.17 14.75,8.54 -2.36,0.54 -3.35,1 -4.29,0.93 -5.37,-0.49 -10.72,-1.18 -16.08,-1.68 -5.64,-0.52 -6.89,4.7 -8.93,8 -0.74,1.2 2.36,4.62 4.37,6.59 a 28.35,28.35 0 0 0 5.61,4.55 l -3.22,2.55 c -7.73,-7.25 -15.18,-14.5 -22.95,-21.39 -2.33,-2.06 -5.43,-3.39 -8.36,-4.6 -9.38,-3.9 -18.82,-7.66 -28.23,-11.47 -4.5,3.28 -12.11,8.26 -15.6,10.53 -2.28,-1.23 -5,-2.35 -8.36,-4.14 -2.24,-1.14 -0.63,-3.18 1.68,-4.54 9,-7.56 21.93,-13.83 11.07,-19.21 -11.65,-5.76 -22.84,-12.49 -34.58,-18.07 -4.16,-2 -9.32,-2 -14.06,-2.66 -4.46,-0.59 -8.95,-0.94 -13.43,-1.34 a 0.43002907,0.43002907 0 0 1 0.01,-0.86 z m 31.61,27.8 c -14.29,-1 -25.86,-4.47 -37,-11.05 9.82,-5.16 30.55,1.14 37,11.05 z m -44.48,-21.41 c -1.58,1.87 -2.67,3 -3.56,4.25 -2.3,3.29 -0.89,5.88 2.84,6.89 2,0.55 3.57,2.75 5.41,4.1 a 63.18,63.18 0 0 0 27.85,11.56 c 4.33,0.71 8.09,-0.68 13.5,3.66 0.79,0.64 6.77,-2 9.34,-4.3 1.23,-1.1 0.48,-5 -0.13,-7.41 a 10.84,10.84 0 0 0 -2.29,-3.72 0.7,0.7 0 0 1 0.88,-1.05 l 16.36,8.42 -18.57,12.94 c -4.86,3.39 -4.72,5.89 0.42,8.58 7.93,4.15 15.84,8.34 24.46,12.88 L 557,418.56 c -2.27,-1.61 -0.5,-7.57 -3.2,-12.59 -5,-9.26 -12.39,-15.56 -21.19,-21.34 C 509.31,369.34 499.22,363 485.66,355 c -2.47,-1.47 -15.85,-10.32 -18.34,-11.72 -1.14,-0.64 -7.1,-4.05 -10.08,-3.59 -4,0.61 -16.68,-7 -20,-11.29 15.86,0.89 39.89,1.77 56.64,2.74 z m -120.17,-2.76 33.91,-17.62 5.36,4.92 -38.9,13.55 a 0.47,0.47 0 0 1 -0.37,-0.85 z m 0.65,11 c -1.42,4.15 0.63,6 4.45,5.06 6.77,-1.63 13.44,-3.7 20.08,-5.83 8,-2.57 15.88,-5.52 23.91,-8 1.39,-0.43 3.47,0.36 4.87,1.2 6.6,4 13.08,8.11 20.63,12.84 l -36.8,12 c -1,0.33 -2.06,0.64 -3.08,0.9 -3.24,0.83 -5.75,1.25 -4.51,4.14 0.63,1.47 4.53,2.79 6.51,2.32 5.88,-1.38 11.51,-3.79 17.3,-5.62 8,-2.51 16.11,-4.69 24,-7.39 2.21,-0.75 4,-2.84 6.59,-4.83 L 485,363 l -24.56,7.88 c -1.53,0.49 -3.26,0.64 -4.59,1.46 -2.58,1.59 -4.61,4.62 -1.57,6.59 8.86,5.72 22.69,14.06 27.64,17.33 8.35,5.5 15.13,8.92 25.43,4.59 6.35,-2.68 19.53,-7.32 23.2,-9.27 10.34,3.07 14.93,12.84 19.82,22.34 -3.12,-1.53 -5.76,-5 -9.88,-2.3 -0.87,0.56 -2.44,1.27 -2.4,1.81 0.37,4.53 1.05,9 1.62,13.55 a 17,17 0 0 1 0.29,2.82 c -0.34,8.54 -0.81,17.08 -1.05,25.63 -0.1,3.88 6.48,10.51 10.29,11.21 10,1.84 31.45,5.77 32.15,5.88 10.61,1.58 12.1,4.88 10.58,16.7 -0.06,0.53 -1.32,8.2 -3,9.83 -4.32,4.13 -13.56,11.12 -22.63,11.44 -11.51,0.41 -23,0.1 -35.28,0.1 -0.69,-6.9 -2.24,-13.55 -1.82,-20.06 0.67,-10.15 -3.51,-15.69 -15.55,-15.3 -12.37,0.4 -24.79,-0.53 -37.18,-1 -1.35,-0.05 -2.65,-1.09 -4,-1.2 -1.56,-0.12 -4.19,-0.18 -4.53,0.57 -0.75,1.63 -1.17,4.42 -0.26,5.62 a 154.64,154.64 0 0 0 10.85,12.21 C 491.31,505 504.26,518.49 517,532.18 527,543 536.66,554 546.5,565 c 9.84,11 19.36,21.9 29.49,32.42 2.07,2.14 6.13,2.86 9.39,3.27 13.79,1.72 27.62,3 41.43,4.56 q 9.13,1 18.24,2.26 a 4.21,4.21 0 0 1 2.28,1.25 c 6.18,6.44 12.25,13 18.46,19.42 13.73,14.18 27.57,28.27 41.29,42.46 3.33,3.44 6.39,7.13 9.62,10.76 -3.83,1.69 -29.94,9.31 -32.81,10.33 -3.08,1.08 -10.08,3 -18.1,5.88 -11.1,3.54 -10.71,14.74 -12.15,25.89 -3.74,-4.43 -6.95,-7.45 -9.18,-11.07 -3,-4.89 -5,-10.41 -8,-15.28 -1.14,-1.84 -3.82,-3.25 -6,-3.77 -3.74,-0.88 -8.6,-5.37 -9,-9.31 -0.74,-7.43 -3.38,-10.14 -10.3,-11.89 -2.05,-0.52 -4,-2.45 -5.45,-4.16 Q 592.5,652.9 579.55,637.55 c -11.18,-13.26 -22.19,-26.66 -33.4,-39.89 -9.24,-10.91 -18.69,-21.65 -28,-32.5 -10.85,-12.62 -21.63,-25.3 -32.48,-37.92 -7.32,-8.51 -14.74,-16.94 -22.08,-25.44 -4.08,-4.73 -6.72,-9.37 -18.6,-9 -3,0.47 -8.49,0.56 -12.44,1.88 -6.55,2.18 -13.09,3.32 -19.61,5.58 -12.4,-8.27 -45.33,-29.92 -46.34,-30.59 -5.38,-3.57 -10.79,-7.08 -16.2,-10.6 -9.93,-6.47 -47.05,-30.92 -60.14,-39.2 a 71,71 0 0 0 7.07,-9.51 c 2.13,-3.61 1.66,-8.67 3,-12.89 a 15.78,15.78 0 0 1 4.34,-7 Q 324.7,373 345.22,356.15 c 8.7,-7.15 17.19,-14.8 29.14,-16.81 z m -31.23,5.5 a 0.55301447,0.55301447 0 0 1 0.67,0.88 c -6.23,5.38 -12.37,10.86 -18.69,16.14 -8,6.7 -16.13,13.27 -24.22,19.87 -4.82,3.94 -4.84,3.93 -11.43,-1.2 z M 277.35,393 c 0,-2.46 2.52,-5.35 4.64,-7.19 0.78,-0.69 3.79,0.86 5.59,1.77 a 46.14,46.14 0 0 1 5.18,3.45 c 0.31,9.13 -8.4,12.47 -11.39,19.44 -0.54,1.23 -1.28,1.28 -1.61,-0.2 -0.89,-5.8 -2.35,-11.55 -2.41,-17.27 z m -4.73,51.18 c 3.08,-6.16 7.6,-11.63 11.74,-17.21 0.58,-0.78 1.18,-1.54 1.79,-2.3 7.53,5.3 38.19,25.17 42.24,27.82 10.46,6.84 58.77,38.36 77.15,50.25 L 381.79,511 c -9.11,3.19 -18.14,6.63 -27.32,9.6 -1.52,0.49 -4.14,-0.32 -5.39,-1.47 -5.51,-5.1 -10.87,-10.39 -15.95,-15.92 -2.82,-3.07 -5.37,-2.93 -8.6,-1 q -26.19,15.35 -52.46,30.58 c -1.24,0.72 -2.53,1.36 -4.43,2.37 -8.07,-9 -16.18,-18 -24.7,-27.54 4.83,-9.82 9.91,-19.65 14.56,-29.68 5.19,-11.2 9.59,-22.78 15.12,-33.8 z m -80.93,98.58 c 20.15,-27.32 40.32,-54.63 60.85,-81.85 a 0.78,0.78 0 0 1 1.35,0.76 q -1.11,2.75 -2.29,5.45 c -5.56,12.64 -10.7,25.49 -17,37.74 -2.78,5.42 0,8.32 2.6,11.36 8,9.18 16.45,18 24.55,27 2.89,3.25 5.87,3.2 9.17,1.28 6.81,-4 13.55,-8 21.07,-12.53 2.12,4.5 4,8.3 5.71,12.17 3.82,8.56 7.49,17.18 11.41,25.7 a 5.58,5.58 0 0 0 3.15,2.35 c 8.93,3 17.9,5.93 27.24,9 -2.08,2.66 -3.75,5.38 -6,7.44 -1,0.88 -3.33,0.81 -4.86,0.4 -3.08,-0.83 -6,-2.4 -9.06,-3.21 a 6.86,6.86 0 0 0 -4.47,0.73 q -9.29,4.79 -18.36,10 a 8,8 0 0 0 -2.62,3.26 q -3.15,6 -6,12.08 c -4,8.52 -2.95,13.82 3.46,20.48 8.19,8.51 16.19,17.2 24.58,26.14 l -14.85,9.09 c -10.89,-12 -22.07,-24.37 -33.29,-36.69 q -7.73,-8.48 -15.58,-16.82 c -12.68,-13.46 -25.46,-26.84 -38.09,-40.35 -7.48,-8 -14.74,-16.18 -22.11,-24.28 -1.98,-2.14 -2.25,-4.38 -0.56,-6.74 z m -55.58,106.81 c -0.12,1.48 -3.25,-11.72 -4.1,-19.49 a 26.66,26.66 0 0 1 1.49,-13 c 1.31,-3.6 3.39,-6.23 5.82,-9.1 8.58,-10.18 16.61,-20.83 24.88,-31.27 3.13,-4 6.4,-7.79 9.52,-11.75 2.2,-2.78 4.08,-5.86 6.51,-8.42 0.7,-0.75 3.47,-0.79 4.18,-0.07 3.36,3.39 6.33,7.17 10.18,11.67 -9,10.14 -18.5,20.58 -27.68,31.29 -8.92,10.4 -18.13,20.63 -25.92,31.84 -3.28,4.73 -3.26,11.73 -4.88,18.3 z m 89.35,194.92 c -9.53,-12.83 -19,-25.75 -28.51,-38.58 -4.94,-6.63 -4,-13.7 -3.18,-21.42 1.2,-10.53 3.54,-21 1.29,-32 -1.24,-6.06 -1.91,-11.22 -5.72,-16.74 C 179.19,721 170,705.54 161.28,689.9 c -6.73,-12.06 -15.26,-23.17 -17.61,-37.62 -1.54,-9.48 1.36,-16.51 6.81,-23.27 3.63,-4.5 7.62,-8.73 11.7,-13.37 3.69,5 7.5,9.82 10.81,14.94 0.84,1.31 0.36,3.68 0,5.49 -0.63,3.48 -2.64,7.06 -2.19,10.33 1.06,7.65 9.35,11.91 17.06,10.23 1.79,-0.39 4.92,1 6.05,2.64 10.82,15.19 21.36,30.2 32,45.5 3.09,4.42 5.37,7.33 9.76,13.24 2.16,2.91 2.09,5 1.51,7.77 -0.93,4.36 -2.68,8.68 -2.8,13.05 a 22.22,22.22 0 0 0 2.82,10.5 c 1.42,2.67 1.63,3.66 -1,5.62 -5.65,4.19 -10.85,9 -16.27,13.5 -8.06,6.68 -8.87,14.21 -2,23.47 9.31,12.53 18.2,25.37 27.32,38.05 0.72,1 1.64,2.28 2.7,2.56 a 4.79,4.79 0 0 0 3.93,-0.66 c 0.63,-0.57 0.54,-2.74 0,-3.67 -2.5,-3.93 -5.2,-7.84 -7.87,-11.54 -11.07,-15.32 -16.57,-23.23 -21.33,-29.92 -3.25,-4.55 -4.17,-8.64 0.16,-12.22 q 21.69,-17.89 43.84,-35.2 c 5.09,-4 11.43,-2.69 15.27,2.2 5.68,7.23 11.48,14.36 17.05,21.66 1.47,1.93 9.17,10.92 10.4,13.81 1.23,2.89 1.53,8 -0.14,9.5 -11,9.77 -22.72,18.77 -34.12,28.11 -5.46,4.48 -10.83,9.07 -16,13.87 a 3.24,3.24 0 0 0 -0.77,1.9 2.6,2.6 0 0 0 2.22,3 3.4,3.4 0 0 0 2.32,-0.27 c 5.41,-3.86 10.52,-8.16 15.8,-12.23 2.67,-2.06 5.48,-4 8.43,-6.06 l 15,18.93 c -15.69,15.7 -38.06,25 -49.89,46.58 C 242.68,867.51 234,856 225.46,844.49 Z m 230.59,102.43 a 38.84,38.84 0 0 0 -12.2,-1.71 c -4.32,-0.06 -38.33,2.44 -51,3.21 a 4.37,4.37 0 0 0 -2.5,0.71 c -5.53,5 -12.62,5.08 -19.3,5.73 -9.22,0.88 -37.46,3.58 -47.65,3.51 -3.87,0 -16.13,-2.52 -19.86,-7.87 -2.54,-3.65 -11.38,-16.69 -13.47,-19.42 -9.86,-12.82 -19.7,-25.66 -29.4,-38.61 -3.59,-4.8 -3,-9.12 1.22,-14.12 1.28,-1.51 104.85,-83.06 127,-100.61 a 5.65,5.65 0 0 1 7.66,0.59 c 10.89,11.81 22.31,24.21 33.77,36.57 3,3.28 5.92,6.87 9.49,9.46 7.17,5.2 8.72,12.77 10,20.64 2.89,17.89 6,35.76 8.61,53.69 0.92,6.26 3.6,28.26 5,32.84 2.25,7.51 4.52,15 6.91,22.47 1.36,4.49 -13.13,-6.67 -14.28,-7.08 z m 216.35,66.35 a 4.68,4.68 0 0 1 -3.83,0.41 c -30.87,-11.42 -61.7,-23 -92.56,-34.45 q -35.12,-13.07 -70.28,-26 c -0.83,-0.3 -2.17,-0.75 -2.59,-0.37 -4.29,3.83 -6.26,2.4 -10.2,1.62 -3.94,-0.78 -7.12,-2.17 -11,-3.41 -4.08,-1.31 -5.12,0.1 -7.59,-8.82 -2.89,-10.45 -18,-93.59 -19.72,-101.67 -1.26,-6 -0.44,-7.22 5.79,-7.77 4.82,-0.43 9.6,-1.37 14.4,-2 6.73,-0.94 11.51,3.6 16.92,6.23 11.26,5.42 22.26,11.12 33.37,16.76 5.27,2.69 128.49,67.81 141.3,73.69 1,0.45 1.86,3.25 2.17,3.43 -1.11,1.31 -2.59,2.39 -3.13,3.83 -4.79,12.73 -9.42,25.52 -14.07,38.3 -1.46,4 -3,8.33 1.37,11.29 4.59,3.11 7.94,-0.08 10.09,-2.54 1.8,2.75 3.06,6.76 5.67,8.06 2.4,1.2 6.25,-0.52 9.47,-1 1.46,1.66 3.34,4.64 6,6.45 1.24,0.85 4.15,-0.28 6.06,-1.08 a 5.86,5.86 0 0 0 2.73,-3.18 c 5,-13.35 10.92,-29 16,-43 9.67,4.94 45.07,21.47 47.73,22.83 5,2.58 10,5.38 15,8 3.59,1.89 7.16,3.83 10.85,5.48 5.49,2.45 6.77,7 2.82,12.88 -2.51,3.72 -5.77,6.93 -8.69,10.37 -11.22,-5.24 -22,-10.24 -32.7,-15.33 -1.32,-0.63 -9.46,-4.86 -12.38,-3.75 -12.18,4.62 -22,7.56 -34.21,12 -8.85,3.23 -17.29,6.96 -24.79,12.74 z m 97.48,4.94 c -0.78,8.64 -1.63,17.29 -2.15,26 -0.36,5.9 -0.7,6.13 -6.43,4 -20.24,-7.64 -40.54,-15.14 -60.82,-22.69 l -17,-6.32 c 5.41,-2.5 10.72,-5.27 16.21,-7.59 10.06,-4.26 20.29,-8.12 30.27,-12.55 4.31,-1.9 7.49,-0.33 11.15,1.47 8.29,4.07 16.67,8 25.19,11.57 3.26,1.26 3.84,3.16 3.58,6.11 z m 23.47,80.16 c -9.69,-2 -17,-6.34 -19.74,-15 -1.56,-4.89 -1.55,-10.46 -1.37,-15.69 0.27,-7.75 1.45,-15.47 2,-23.22 0.55,-7.75 0.48,-15.28 1.3,-22.85 0.3,-2.84 2.19,-5.58 3.68,-8.17 a 11.77,11.77 0 0 1 3.46,-3.5 c 8.46,-6 11.05,-14.52 11.49,-24.36 0.28,-6.4 4.16,-11 10,-14.35 -0.65,5.27 -0.82,13.63 -1.57,21.05 -0.88,8.69 -2.39,14.15 -8.66,19.24 -8,6.47 -7.9,15.22 -8.68,23.92 -0.81,9 -1.93,18 -2,27 0,4.27 1.61,8.74 3.31,12.78 1.7,4.04 5.19,7.55 6.51,11.72 1.15,3.52 0.27,7.66 0.27,11.43 z m 104.06,37 c -15.24,-5.33 -29.56,-10.37 -43.89,-15.35 q -24.07,-8.34 -48.18,-16.56 c -2.54,-0.87 -4,-2.1 -3.58,-5 1.39,-10.82 -2,-20.08 -8.4,-28.84 -2.14,-2.91 -1.17,-6.8 -1.17,-12.74 8.5,2.65 13.94,4.17 20.56,6.6 1,0.38 2,3.28 1.65,4.56 -2.14,6.83 -4.59,13.57 -7.21,20.23 -2.93,7.43 0.36,12.18 7.9,13.92 8.65,2 17,5.54 25.36,8.54 10.93,3.9 21.74,8.15 32.73,11.83 6.79,2.27 8.62,1.19 11.29,-5.41 3.47,-8.58 6.75,-17.23 10.12,-25.9 l 30.79,10 a 1.33,1.33 0 0 1 0.08,2.5 c -2.82,1.11 -5.62,2.38 -8.54,2.79 -8.62,1.24 -12.44,5.32 -15.12,14.34 -1.41,4.84 -2.87,9.62 -4.39,14.53 z m 527.76,88.88 c -8.16,7.22 -16.09,14.71 -24.25,21.94 a 58,58 0 0 1 -9.48,7.08 8.39,8.39 0 0 1 -6.21,0.45 c -11.63,-4.08 -23.07,-8.74 -34.73,-12.73 -11.66,-3.99 -23.54,-7.25 -35.25,-11.08 -10.66,-3.49 -21.25,-7.23 -31.79,-11.09 a 2.25,2.25 0 0 1 -0.6,-0.34 2.79,2.79 0 0 1 1.06,-4.81 2.61,2.61 0 0 1 1.23,-0.08 141.22,141.22 0 0 1 13.93,3.78 q 29.48,9.15 58.9,18.42 c 7.83,2.48 15.51,5.42 23.39,7.68 1.93,0.55 5.75,-0.12 6.36,-1.37 1.76,-3.65 -1.83,-4.37 -4.35,-5.15 q -35.62,-11 -71.29,-21.87 c -9.46,-2.88 -29.48,-9.67 -33.76,-6.53 -4.95,3.63 -7.58,3.25 -11.89,1.65 -3,-1.11 -6.35,-1.44 -9.17,-2.86 -3.35,-1.71 -6.78,-3.36 -7,-8.44 -0.22,-5.08 -3.39,-7.18 -8.61,-9.35 -8.59,-3.57 -12.08,-4.31 -25,-8 -5.78,-1.67 -9.46,0.3 -13,3.72 -2.91,2.78 -5.49,3.61 -9.61,2.25 -10.52,-3.46 -14.16,-3.73 -24.68,-7.16 -4.63,-1.5 -9.79,-1.59 -13.67,0.66 -3.78,1.38 -7.08,2.38 -10.2,3.76 -14,6.21 -28,12.45 -41.94,18.93 -1.57,0.73 -13.43,1 -18.57,-0.91 -6.37,-2.32 -13.08,-3.68 -19.52,-5.83 -13.71,-4.59 -27.34,-9.44 -41,-14.15 -11.93,-4.11 -23.9,-8.14 -35.83,-12.26 -10.93,-3.78 -21.84,-7.63 -32.75,-11.47 q -22.75,-8 -45.48,-16 c -1.5,-0.53 -3.39,-0.94 -4.25,-2.06 -0.86,-1.12 -0.46,-3 0.26,-4.34 a 1.89,1.89 0 0 1 2.67,-0.94 q 27.72,9.63 55.36,19.51 c 15.53,5.59 31.2,10.87 46.39,17.28 8.25,3.48 14.4,-0.24 21.07,-3.14 21.86,-9.54 43.65,-19.24 65.49,-28.82 a 41.89,41.89 0 0 1 8,-2.84 c 2,-0.42 4.44,-0.6 6.1,0.25 11.66,5.94 23.39,11.81 34.62,18.5 4.94,3 9.19,3.94 13.88,0.82 8,-5.31 15.11,-0.2 22.29,1.84 8.89,2.53 17.42,6.29 26.24,9.09 12.77,4.06 25.69,7.64 38.5,11.6 13.14,4.07 26,9.72 39.42,12.05 8.5,1.48 16.89,3.44 25.32,5.16 7.88,1.61 15.64,3.85 23.4,6 2.8,0.77 4,0.5 5.87,-2.45 2.6,-4.14 6.91,-7.24 10.63,-10.64 7,-6.41 14.45,-12.43 21.1,-19.22 2.53,-2.59 8.87,-2.25 7.43,-8 -0.93,-3.7 -3,-7.16 -4.71,-10.62 -3.24,-6.35 -7.48,-12.31 -9.85,-19 -10.86,-30.5 -30.64,-56.09 -45.82,-84.2 -2.57,-4.77 -6.51,-8.78 -9.66,-13.27 -0.77,-1.1 -1.61,-3 -1.2,-4 4.35,-10.82 -5.08,-15.77 -9.49,-22.82 -3.1,-4.94 -10.67,-12.4 -10.85,-12.62 -7.15,-8.71 -3.25,-13.11 -2.13,-18.18 2.11,-9.56 5.28,-18.89 8.13,-28.29 a 53.33,53.33 0 0 1 2.8,-6.17 c 5,7.51 9.87,14.54 14.45,21.75 5.07,8 9.88,16.12 14.83,24.17 a 8.89,8.89 0 0 0 1.51,1.56 c 4.6,4.48 7.54,9.21 5,16.16 -2,5.32 -2.81,11.06 -4.37,16.55 -1.56,5.49 -1.41,10.34 1.82,15.43 a 227.72,227.72 0 0 1 11.52,21.32 c 0.66,1.34 -0.42,3.51 -0.64,5.31 -0.28,2.25 -1.48,5 -0.6,6.67 4.3,8 9.08,15.81 13.89,23.56 a 7.92,7.92 0 0 0 3.91,3 c 9.82,3.42 13.25,12.19 17.44,20.37 0.16,0.32 51.3,87.32 51.47,87.54 6.35,8.55 6.08,9.75 -2.48,17.33 z"
         id="path18" />
    </g>
    <g
       id="Thrusters">
      <path
         d="m 1171.61,803.74 c 9,16.35 13,20.74 26.47,19 -4.34,-13.01 -9.6,-16.74 -26.47,-19 z M 808.69,411.8 c 0,3.56 26.58,14.94 28.69,10.91 0,-3.48 -20.12,-17.14 -28.69,-10.91 z M 189.58,632.68 c -4.16,-0.34 -12.37,6.57 -12.51,11.26 -0.07,2.61 4.69,6.56 8.2,6.26 6.09,-0.52 10.47,-4.29 10.4,-11.07 0.84,-4.39 -1.78,-6.13 -6.09,-6.45 z m 79.28,134.13 c -5.29,-0.43 -15.73,8.35 -15.9,14.31 -0.1,3.32 6,8.34 10.41,8 7.75,-0.66 13.32,-5.45 13.24,-14.06 1.06,-5.63 -2.28,-7.8 -7.75,-8.25 z m 258,114.87 a 17.87,17.87 0 0 0 -4.53,-0.4 c -8.15,0.05 -13.17,5 -13.2,13.09 -0.03,8.09 6.11,12.26 14.19,10.25 5,-1.26 7.48,-4.63 8.63,-8.72 a 13.87,13.87 0 0 0 -0.79,-10.37 c -0.38,-0.92 -2.3,-3.37 -4.25,-3.85 z M 974,569.09 a 22.54,22.54 0 0 0 -8.26,-2.83 c -0.85,-0.15 -3,-0.16 -3.63,0.41 a 3.38,3.38 0 0 0 -1,1.53 c -1.09,3 2.12,6.3 8.47,8.74 6.35,2.44 10.5,1.46 10,-2.09 -0.21,-2.22 -2.52,-4.11 -5.58,-5.76 z m -117.8,492.23 c -8.14,0 -13.16,5 -13.2,13.09 -0.04,8.09 6.11,12.26 14.2,10.25 5,-1.26 7.47,-4.63 8.63,-8.72 1.09,-3.87 1.8,-14.62 -9.63,-14.62 z m 251.56,101.52 c -3.1,-2.08 -6.06,-4.29 -9.06,-4.36 -4.59,-0.11 -8.29,4.18 -6.29,9.47 1,2.66 4.07,5.87 6.65,6.33 4.5,0.8 7.2,-2.06 9.85,-6.44 a 3.73,3.73 0 0 0 -1.15,-5 z M 1310.46,995 c -0.8,-5.8 -4.82,-7.62 -10.43,-7.46 -1.14,0.27 -1.58,0.8 -1.19,1.63 1.33,3.72 4.3,6.51 10.16,7.69 1.31,0.64 1.94,0.23 1.46,-1.86 z"
         fill="#007aff"
         id="path21" />
    </g>
  </g>
  <metadata
     id="metadata846">
    <rdf:RDF>
      <cc:Work
         rdf:about="">
        <dc:title>Python</dc:title>
      </cc:Work>
    </rdf:RDF>
  </metadata>
</svg>
