<?xml version="1.0" encoding="UTF-8" standalone="no"?>
<svg
   enable-background="new 0 0 24 24"
   height="500"
   viewBox="0 0 500 500"
   width="500"
   version="1.1"
   id="svg18"
   sodipodi:docname="speed75.svg"
   inkscape:version="1.1-dev (25441a5, 2020-10-26)"
   xmlns:inkscape="http://www.inkscape.org/namespaces/inkscape"
   xmlns:sodipodi="http://sodipodi.sourceforge.net/DTD/sodipodi-0.dtd"
   xmlns="http://www.w3.org/2000/svg"
   xmlns:svg="http://www.w3.org/2000/svg">
  <defs
     id="defs22" />
  <sodipodi:namedview
     pagecolor="#ffffff"
     bordercolor="#666666"
     borderopacity="1"
     objecttolerance="10"
     gridtolerance="10"
     guidetolerance="10"
     inkscape:pageopacity="0"
     inkscape:pageshadow="2"
     inkscape:window-width="1920"
     inkscape:window-height="1057"
     id="namedview20"
     showgrid="false"
     width="500px"
     inkscape:zoom="0.56835938"
     inkscape:rotation="-3"
     inkscape:cx="-101.4958"
     inkscape:cy="244.40254"
     inkscape:window-x="-8"
     inkscape:window-y="-8"
     inkscape:window-maximized="1"
     inkscape:current-layer="g14" />
  <g
     id="g4">
    <rect
       fill="none"
       height="24"
       width="24"
       id="rect2"
       x="0"
       y="0" />
  </g>
  <g
     id="g16">
    <g
       id="g14">
      <g
         id="g2370"
         transform="matrix(52.631576,0,0,52.631576,-1.5263149e-6,92.105272)">
        <g
           id="g12"
           transform="matrix(0.99957906,0,0,1,-6.4972639,-9)">
          <path
             d="M 7.75,15 H 9.5 l 1.46,-4.71 C 11.15,9.65 10.67,9 10,9 H 6.5 v 1.5 h 2.63 z"
             id="path8" />
        </g>
        <path
           d="M 9.5000006,5 V 3.5 c 0,-0.55 -0.45,-1 -1,-1 h -2.000001 v -1 h 3.000001 V 0 H 5 v 3.5 h 3.0000006 v 1 H 5 V 6 h 3.5000006 c 0.55,0 1,-0.45 1,-1 z"
           id="path2200" />
      </g>
    </g>
  </g>
</svg>
