<?xml version="1.0" encoding="UTF-8" standalone="no"?>
<svg
   version="1.1"
   x="0px"
   y="0px"
   width="500"
   height="500"
   viewBox="0 0 499.99999 499.99999"
   enable-background="new 0 0 391.001 444.648"
   xml:space="preserve"
   id="svg56"
   sodipodi:docname="wing1.svg"
   inkscape:version="1.1-dev (25441a5, 2020-10-26)"
   xmlns:inkscape="http://www.inkscape.org/namespaces/inkscape"
   xmlns:sodipodi="http://sodipodi.sourceforge.net/DTD/sodipodi-0.dtd"
   xmlns="http://www.w3.org/2000/svg"
   xmlns:svg="http://www.w3.org/2000/svg"><defs
   id="defs60" /><sodipodi:namedview
   pagecolor="#ffffff"
   bordercolor="#666666"
   borderopacity="1"
   objecttolerance="10"
   gridtolerance="10"
   guidetolerance="10"
   inkscape:pageopacity="0"
   inkscape:pageshadow="2"
   inkscape:window-width="1920"
   inkscape:window-height="1057"
   id="namedview58"
   showgrid="false"
   height="500px"
   inkscape:zoom="0.49083769"
   inkscape:cx="279.11467"
   inkscape:cy="591.84535"
   inkscape:window-x="1912"
   inkscape:window-y="-8"
   inkscape:window-maximized="1"
   inkscape:current-layer="svg56" />

<g
   id="g905"
   transform="translate(30.11809,-0.05000381)"><g
     id="Layer_2"
     transform="scale(1.1247099)">
	<path
   fill="#6dcdd5"
   d="m 195.5,69.334 c 69.68,0 126.167,56.487 126.167,126.167 0,69.679 -56.487,126.167 -126.167,126.167 -69.68,0 -126.166,-56.488 -126.166,-126.168 0,-69.679 56.487,-126.166 126.166,-126.166 m 0,-12 c -36.906,0 -71.602,14.372 -97.698,40.468 -26.097,26.096 -40.468,60.792 -40.468,97.698 0,36.906 14.372,71.602 40.468,97.698 26.096,26.097 60.793,40.469 97.698,40.469 36.905,0 71.602,-14.372 97.698,-40.469 26.097,-26.096 40.468,-60.792 40.468,-97.698 0,-36.906 -14.372,-71.602 -40.468,-97.698 C 267.103,71.706 232.406,57.334 195.5,57.334 Z"
   id="path2" />
	<g
   id="g6">
		<path
   fill="#91f2f2"
   d="M 195.5,44 C 279.171,44 347,111.829 347,195.5 347,279.171 279.171,347 195.5,347 111.829,347 44,279.172 44,195.5 44,111.828 111.829,44 195.5,44 m 0,-13 C 173.298,31 151.754,35.351 131.465,43.933 111.875,52.219 94.284,64.078 79.181,79.182 64.077,94.285 52.219,111.876 43.932,131.466 35.351,151.754 31,173.299 31,195.5 c 0,22.201 4.351,43.747 12.933,64.035 8.286,19.591 20.145,37.182 35.249,52.285 15.103,15.103 32.694,26.962 52.284,35.248 20.289,8.581 41.833,12.933 64.035,12.933 22.202,0 43.746,-4.352 64.035,-12.933 19.59,-8.286 37.181,-20.146 52.284,-35.248 15.104,-15.104 26.962,-32.694 35.249,-52.285 8.582,-20.288 12.933,-41.833 12.933,-64.035 0,-22.202 -4.351,-43.746 -12.933,-64.035 C 338.783,111.875 326.924,94.284 311.82,79.181 296.717,64.077 279.126,52.219 259.536,43.932 239.247,35.351 217.702,31 195.5,31 Z"
   id="path4" />
	</g>
	<g
   id="g10">
		<path
   fill="#dff2f5"
   d="M 195.5,20 C 292.426,20 371,98.574 371,195.5 371,292.426 292.426,371 195.5,371 98.574,371 20,292.427 20,195.5 20,98.573 98.574,20 195.5,20 m 0,-20 C 169.116,0 143.511,5.172 119.396,15.372 96.113,25.22 75.208,39.313 57.26,57.261 39.312,75.209 25.218,96.115 15.371,119.397 5.172,143.512 0,169.117 0,195.5 c 0,26.383 5.172,51.989 15.372,76.104 9.848,23.282 23.941,44.188 41.889,62.136 17.948,17.948 38.854,32.041 62.136,41.889 24.115,10.2 49.72,15.372 76.104,15.372 26.384,0 51.989,-5.172 76.104,-15.372 23.283,-9.848 44.188,-23.94 62.136,-41.889 17.948,-17.948 32.042,-38.854 41.889,-62.136 10.2,-24.115 15.372,-49.721 15.372,-76.104 0,-26.384 -5.172,-51.989 -15.372,-76.104 C 365.782,96.113 351.689,75.208 333.741,57.26 315.793,39.312 294.887,25.218 271.605,15.371 247.489,5.172 221.884,0 195.5,0 Z"
   id="path8" />
	</g>
	<g
   id="g14">
		<path
   fill="#d73d0b"
   d="m 36.498,343.385 -23.474,21.76 c 2.058,2.21 4.145,4.398 6.29,6.543 6.228,6.228 12.744,12.077 19.516,17.566 l 19.892,-25.083 c -7.888,-6.403 -15.31,-13.356 -22.224,-20.786 z"
   id="path12" />
	</g>
	<g
   id="g18">
		<path
   fill="#d73d0b"
   d="m 63.236,367.715 -19.538,25.354 c 2.396,1.837 4.817,3.648 7.287,5.408 7.175,5.108 14.571,9.796 22.16,14.086 L 88.6,384.526 C 79.76,379.52 71.288,373.896 63.236,367.715 Z"
   id="path16" />
	</g>
	<g
   id="g22">
		<path
   fill="#d73d0b"
   d="m 93.64,387.271 -15.06,28.245 c 2.667,1.414 5.355,2.799 8.083,4.125 7.923,3.846 15.994,7.242 24.19,10.213 l 10.589,-30.211 c -9.548,-3.471 -18.836,-7.612 -27.802,-12.372 z"
   id="path20" />
	</g>
	<g
   id="g26">
		<path
   fill="#d73d0b"
   d="m 126.868,401.514 -10.166,30.352 c 2.865,0.951 5.746,1.871 8.655,2.726 8.451,2.479 16.975,4.489 25.55,6.058 l 5.43,-31.549 c -9.992,-1.839 -19.837,-4.382 -29.469,-7.587 z"
   id="path24" />
	</g>
	<g
   id="g30">
		<path
   fill="#d73d0b"
   d="m 161.998,410.045 -4.989,31.617 c 2.983,0.463 5.977,0.893 8.987,1.252 8.745,1.043 17.484,1.611 26.201,1.734 l 0.12,-32.012 c -10.158,-0.154 -20.289,-1.029 -30.319,-2.591 z"
   id="path28" />
	</g>
	<g
   id="g34">
		<path
   fill="#d73d0b"
   d="m 198.056,412.631 0.325,32.006 c 3.02,-0.039 6.042,-0.111 9.071,-0.257 8.796,-0.423 17.509,-1.312 26.125,-2.636 l -5.192,-31.588 c -10.043,1.532 -20.178,2.35 -30.329,2.475 z"
   id="path32" />
	</g>
	<g
   id="g38">
		<path
   fill="#d73d0b"
   d="m 234.044,409.197 5.63,31.509 c 2.972,-0.54 5.94,-1.112 8.903,-1.759 8.604,-1.877 17.049,-4.197 25.326,-6.934 l -10.361,-30.289 c -9.649,3.178 -19.508,5.667 -29.498,7.473 z"
   id="path36" />
	</g>
	<g
   id="g42">
		<path
   fill="#d73d0b"
   d="m 268.964,399.842 10.779,30.137 c 2.841,-1.025 5.674,-2.082 8.488,-3.211 8.173,-3.279 16.116,-6.968 23.824,-11.039 l -15.243,-28.15 c -8.987,4.734 -18.297,8.823 -27.848,12.263 z"
   id="path40" />
	</g>
	<g
   id="g46">
		<path
   fill="#d73d0b"
   d="m 301.848,384.82 15.63,27.932 c 2.631,-1.482 5.249,-2.994 7.838,-4.574 7.515,-4.59 14.736,-9.545 21.662,-14.839 l -19.702,-25.231 c -8.078,6.16 -16.58,11.737 -25.428,16.712 z"
   id="path44" />
	</g>
	<g
   id="g50">
		<path
   fill="#d73d0b"
   d="m 331.784,364.553 20.047,24.951 c 2.35,-1.898 4.68,-3.823 6.971,-5.811 6.649,-5.773 12.948,-11.857 18.9,-18.228 l -23.615,-21.612 c -6.945,7.415 -14.404,14.325 -22.303,20.7 z"
   id="path48" />
	</g>
</g><g
     id="Layer_5"
     transform="scale(1.1247099)">
	<polygon
   fill="#d6f2fa"
   points="125.384,164.834 125.384,226.167 125.384,235.981 133.884,240.89 187,271.557 190.75,273.722 190.75,254.092 142.384,226.167 142.384,164.834 195.5,134.167 248.617,164.834 248.617,226.167 200.25,254.092 200.25,273.722 204,271.557 257.117,240.89 265.617,235.981 265.617,226.167 265.617,164.834 265.617,155.019 257.117,150.111 204,119.445 195.5,114.537 187,119.445 133.884,150.111 125.384,155.019 "
   id="polygon53" />
</g></g>
</svg>
