<?xml version="1.0" encoding="UTF-8" standalone="no"?>
<svg
   height="500"
   viewBox="0 0 500 500"
   width="500"
   version="1.1"
   id="svg6"
   sodipodi:docname="headset_off.svg"
   inkscape:version="1.1-dev (25441a5, 2020-10-26)"
   xmlns:inkscape="http://www.inkscape.org/namespaces/inkscape"
   xmlns:sodipodi="http://sodipodi.sourceforge.net/DTD/sodipodi-0.dtd"
   xmlns="http://www.w3.org/2000/svg"
   xmlns:svg="http://www.w3.org/2000/svg">
  <defs
     id="defs10" />
  <sodipodi:namedview
     pagecolor="#ffffff"
     bordercolor="#666666"
     borderopacity="1"
     objecttolerance="10"
     gridtolerance="10"
     guidetolerance="10"
     inkscape:pageopacity="0"
     inkscape:pageshadow="2"
     inkscape:window-width="1920"
     inkscape:window-height="1057"
     id="namedview8"
     showgrid="false"
     width="500px"
     inkscape:zoom="0.56835938"
     inkscape:cx="191.78007"
     inkscape:cy="331.65636"
     inkscape:window-x="-8"
     inkscape:window-y="-8"
     inkscape:window-maximized="1"
     inkscape:current-layer="svg6" />
  <g
     id="g829"
     transform="scale(20.833333)">
    <path
       d="M 0,0 H 24 V 24 H 0 Z"
       fill="none"
       id="path2" />
    <path
       d="m 12,4 c 3.87,0 7,3.13 7,7 v 2 H 16.08 L 21,17.92 V 11 C 21,6.03 16.97,2 12,2 10.05,2 8.24,2.62 6.77,3.68 L 8.21,5.12 C 9.3,4.41 10.6,4 12,4 Z M 2.27,1.72 1,3 4.33,6.32 C 3.49,7.68 3,9.29 3,11 v 7 c 0,1.66 1.34,3 3,3 H 9 V 13 H 5 V 11 C 5,9.83 5.29,8.74 5.79,7.78 L 15,17 v 4 h 3 c 0.3,0 0.59,-0.06 0.86,-0.14 L 21,23 22.27,21.73 Z"
       id="path4" />
  </g>
</svg>
