<?xml version="1.0" encoding="UTF-8" standalone="no"?>
<svg
   enable-background="new 0 0 24 24"
   height="500"
   viewBox="0 0 500 500"
   width="500"
   version="1.1"
   id="svg10"
   sodipodi:docname="cam_off.svg"
   inkscape:version="1.1-dev (25441a5, 2020-10-26)"
   xmlns:inkscape="http://www.inkscape.org/namespaces/inkscape"
   xmlns:sodipodi="http://sodipodi.sourceforge.net/DTD/sodipodi-0.dtd"
   xmlns="http://www.w3.org/2000/svg"
   xmlns:svg="http://www.w3.org/2000/svg">
  <defs
     id="defs14" />
  <sodipodi:namedview
     pagecolor="#ffffff"
     bordercolor="#666666"
     borderopacity="1"
     objecttolerance="10"
     gridtolerance="10"
     guidetolerance="10"
     inkscape:pageopacity="0"
     inkscape:pageshadow="2"
     inkscape:window-width="1920"
     inkscape:window-height="1057"
     id="namedview12"
     showgrid="false"
     width="1e-05px"
     inkscape:zoom="0.40189077"
     inkscape:cx="216.47673"
     inkscape:cy="371.99162"
     inkscape:window-x="1912"
     inkscape:window-y="-8"
     inkscape:window-maximized="1"
     inkscape:current-layer="svg10" />
  <g
     id="g8"
     transform="scale(20.833333)">
    <rect
       fill="none"
       height="24"
       width="24"
       id="rect2"
       x="0"
       y="0" />
    <g
       id="g6">
      <path
         d="M 8.9,6.07 7.48,4.66 9,3 h 6 l 1.83,2 H 20 c 1.1,0 2,0.9 2,2 v 12 c 0,0.05 -0.01,0.1 -0.02,0.16 L 20,17.17 V 7 H 15.95 L 14.12,5 H 9.88 Z M 20.49,23.31 18.17,21 H 4 C 2.9,21 2,20.1 2,19 V 7 C 2,6.41 2.27,5.88 2.68,5.51 l -2,-2 L 2.1,2.1 21.9,21.9 Z M 9.19,12.02 C 9.08,12.33 9,12.65 9,13 c 0,1.66 1.34,3 3,3 0.35,0 0.67,-0.08 0.98,-0.19 z M 16.17,19 14.49,17.32 C 13.76,17.75 12.91,18 12,18 9.24,18 7,15.76 7,13 7,12.09 7.25,11.24 7.68,10.51 L 4.17,7 H 4 v 12 z m -1.36,-7.02 2.07,2.07 C 16.96,13.71 17,13.36 17,13 17,10.24 14.76,8 12,8 11.64,8 11.29,8.04 10.94,8.12 l 2.07,2.07 c 0.84,0.3 1.5,0.96 1.8,1.79 z"
         id="path4" />
    </g>
  </g>
</svg>
