<?xml version="1.0" encoding="UTF-8" standalone="no"?>
<svg
   height="500"
   viewBox="0 0 500 500"
   width="500"
   version="1.1"
   id="svg6"
   sodipodi:docname="mic_off.svg"
   inkscape:version="1.1-dev (25441a5, 2020-10-26)"
   xmlns:inkscape="http://www.inkscape.org/namespaces/inkscape"
   xmlns:sodipodi="http://sodipodi.sourceforge.net/DTD/sodipodi-0.dtd"
   xmlns="http://www.w3.org/2000/svg"
   xmlns:svg="http://www.w3.org/2000/svg">
  <defs
     id="defs10" />
  <sodipodi:namedview
     pagecolor="#ffffff"
     bordercolor="#666666"
     borderopacity="1"
     objecttolerance="10"
     gridtolerance="10"
     guidetolerance="10"
     inkscape:pageopacity="0"
     inkscape:pageshadow="2"
     inkscape:window-width="1920"
     inkscape:window-height="1057"
     id="namedview8"
     showgrid="false"
     width="500px"
     inkscape:zoom="0.56835938"
     inkscape:cx="-174.18557"
     inkscape:cy="426.66667"
     inkscape:window-x="1912"
     inkscape:window-y="-8"
     inkscape:window-maximized="1"
     inkscape:current-layer="svg6" />
  <g
     id="g829"
     transform="scale(20.833333)">
    <path
       d="M 0,0 H 24 V 24 H 0 Z"
       fill="none"
       id="path2" />
    <path
       d="m 10.8,4.9 c 0,-0.66 0.54,-1.2 1.2,-1.2 0.66,0 1.2,0.54 1.2,1.2 L 13.19,8.81 15,10.6 V 5 C 15,3.34 13.66,2 12,2 10.46,2 9.21,3.16 9.04,4.65 L 10.8,6.41 Z M 19,11 h -1.7 c 0,0.58 -0.1,1.13 -0.27,1.64 l 1.27,1.27 C 18.74,13.03 19,12.04 19,11 Z M 4.41,2.86 3,4.27 l 6,6 V 11 c 0,1.66 1.34,3 3,3 0.23,0 0.44,-0.03 0.65,-0.08 l 1.66,1.66 C 13.6,15.91 12.81,16.1 12,16.1 9.24,16.1 6.7,14 6.7,11 H 5 c 0,3.41 2.72,6.23 6,6.72 V 21 h 2 v -3.28 c 0.91,-0.13 1.77,-0.45 2.55,-0.9 l 4.2,4.2 1.41,-1.41 z"
       id="path4" />
  </g>
</svg>
